<svg width="118" height="67" viewBox="0 0 118 67" fill="none" xmlns="http://www.w3.org/2000/svg">
<path opacity="0.3" d="M40.1993 54.835C48.8181 57.2354 58.6191 57.8213 67.907 56.4914C77.195 55.1614 85.3856 51.9992 91.0621 47.5518C96.7387 43.1043 99.5441 37.6513 98.9931 32.1361C98.4422 26.6209 94.5695 21.3903 88.0449 17.3491C81.5203 13.3078 72.7543 10.7102 63.2631 10.0055C53.7719 9.30072 44.1526 10.5332 36.0689 13.4898C27.9853 16.4463 21.9459 20.9409 18.9953 26.1962C16.0448 31.4514 16.3687 37.1367 19.911 42.2687L34.8718 38.8271C32.7198 35.7093 32.5231 32.2555 34.3156 29.0628C36.108 25.8702 39.7771 23.1397 44.6879 21.3436C49.5988 19.5475 55.4427 18.7987 61.2087 19.2268C66.9746 19.655 72.3001 21.2331 76.2638 23.6881C80.2276 26.1432 82.5803 29.3209 82.915 32.6714C83.2497 36.022 81.5454 39.3347 78.0968 42.0366C74.6483 44.7384 69.6724 46.6595 64.0299 47.4675C58.3874 48.2754 52.4332 47.9195 47.1972 46.4612L40.1993 54.835Z" fill="url(#paint0_linear)"/>
<g opacity="0.1" filter="url(#filter0_f)">
<rect width="36.9924" height="61.5554" rx="7.27553" transform="matrix(0.866044 -0.499967 0.866044 0.499967 17.1843 26.4536)" fill="#FF5A5A"/>
</g>
<g filter="url(#filter1_d)">
<path d="M23.448 28.2941C20.8381 26.7874 20.8381 24.3445 23.448 22.8378L42.9581 11.5746C45.568 10.0679 49.7995 10.0679 52.4095 11.5746L96.2677 36.894C98.8777 38.4007 98.8777 40.8436 96.2677 42.3503L86.5127 47.9819L76.7576 53.6134C74.1477 55.1202 69.9162 55.1202 67.3063 53.6134L23.448 28.2941Z" fill="url(#paint1_linear)"/>
</g>
<rect width="26.3386" height="6.51066" rx="1.88404" transform="matrix(0.866044 -0.499967 0.866044 0.499967 25.1296 25.7134)" fill="white" fill-opacity="0.3"/>
<circle opacity="0.3" r="1.03579" transform="matrix(0.866044 -0.499967 0.866044 0.499967 30.3836 25.9351)" fill="white"/>
<circle opacity="0.3" r="1.03579" transform="matrix(0.866044 -0.499967 0.866044 0.499967 36.4067 22.4585)" fill="white"/>
<circle opacity="0.3" r="1.03579" transform="matrix(0.866044 -0.499967 0.866044 0.499967 42.4297 18.9814)" fill="white"/>
<circle opacity="0.3" r="1.03579" transform="matrix(0.866044 -0.499967 0.866044 0.499967 48.4528 15.5039)" fill="white"/>
<rect width="26.4306" height="4.08721" rx="1.25603" transform="matrix(0.866044 -0.499967 0.866044 0.499967 61.9521 47.1748)" fill="#FF5555" fill-opacity="0.2"/>
<path fill-rule="evenodd" clip-rule="evenodd" d="M44.3119 23.7851C40.8755 25.769 40.8755 28.9855 44.3119 30.9694L47.0128 32.5286C45.3653 33.9521 45.63 35.8948 47.807 37.1515L56.8679 42.3824C59.3462 43.8131 63.3643 43.8131 65.8426 42.3824L76.5267 36.2144C79.005 34.7837 79.005 32.4641 76.5267 31.0333L67.4658 25.8025C65.2887 24.5456 61.9232 24.3929 59.4573 25.3443L56.7565 23.7851C53.3201 21.8012 47.7484 21.8012 44.3119 23.7851ZM56.8461 26.7521L54.2315 25.2428C52.1896 24.064 48.8789 24.064 46.8369 25.2428C44.795 26.4216 44.795 28.3329 46.8369 29.5117L49.4514 31.0211L56.8461 26.7521Z" fill="url(#paint2_linear)" fill-opacity="0.3"/>
<g style="mix-blend-mode:soft-light">
<path d="M55.3714 34.134C55.6928 33.9485 56.0314 33.8149 56.3871 33.7333C56.7427 33.6467 57.0856 33.617 57.4155 33.6442C57.7412 33.6689 58.0262 33.7518 58.2705 33.8928C58.5576 34.0586 58.7054 34.2379 58.714 34.4309C58.7183 34.6214 58.6219 34.7933 58.4247 34.9467C58.699 34.8379 58.9947 34.781 59.3118 34.776C59.6289 34.7711 59.9332 34.8527 60.2246 35.0209C60.486 35.1718 60.6381 35.3487 60.681 35.5516C60.7195 35.752 60.666 35.9585 60.5203 36.1713C60.3703 36.3816 60.1432 36.5746 59.8389 36.7502C59.6289 36.8714 59.3954 36.9741 59.1382 37.0582C58.8854 37.1398 58.654 37.1893 58.444 37.2066L57.3963 36.6018C57.6362 36.5721 57.8526 36.5313 58.0455 36.4793C58.2383 36.4224 58.414 36.3482 58.5726 36.2567C58.7569 36.1503 58.879 36.0402 58.939 35.9264C58.9947 35.8101 58.9433 35.7062 58.7847 35.6147C58.6861 35.5578 58.5812 35.5343 58.4697 35.5442C58.354 35.5516 58.2362 35.5825 58.1162 35.6369C57.9962 35.6864 57.8784 35.7446 57.7627 35.8114L57.4413 35.9969L56.567 35.4922L56.8884 35.3067C57.0041 35.2399 57.1134 35.1768 57.2163 35.1174C57.3234 35.0556 57.392 34.9962 57.422 34.9393C57.4477 34.8799 57.4091 34.8205 57.3063 34.7612C57.1477 34.6696 56.9656 34.6437 56.7599 34.6832C56.5499 34.7203 56.3613 34.7871 56.1942 34.8836C55.9028 35.0519 55.7507 35.2683 55.7378 35.533L54.7029 34.9356C54.7115 34.8119 54.7651 34.682 54.8636 34.5459C54.9665 34.4074 55.1357 34.2701 55.3714 34.134ZM59.871 31.529C60.2996 31.2816 60.7731 31.1072 61.2916 31.0057C61.8102 30.9043 62.3351 30.8882 62.8665 30.9575C63.3979 31.0268 63.895 31.195 64.3578 31.4622C64.6749 31.6453 64.9213 31.8494 65.097 32.0745C65.2727 32.2947 65.3713 32.5223 65.3927 32.7573C65.4141 32.9923 65.3499 33.2224 65.1999 33.4475C65.0499 33.6726 64.8078 33.8817 64.4735 34.0747C64.2764 34.1885 64.0578 34.3047 63.8178 34.4235C63.5864 34.5422 63.3507 34.6536 63.1108 34.7575C62.8751 34.8638 62.6522 34.9578 62.4422 35.0395L58.2962 32.646C58.5233 32.4604 58.7718 32.2699 59.0418 32.0745C59.3118 31.8741 59.5882 31.6923 59.871 31.529ZM61.0345 32.1561C60.9359 32.213 60.8417 32.2773 60.7517 32.3491C60.6617 32.4159 60.5845 32.4802 60.5203 32.5421L62.6222 33.7555C62.7508 33.7159 62.8729 33.6702 62.9886 33.6182C63.1 33.5638 63.2008 33.5106 63.2907 33.4586C63.5093 33.3325 63.6443 33.1976 63.6957 33.0542C63.7471 32.9057 63.7278 32.7585 63.6379 32.6126C63.5479 32.4666 63.3979 32.333 63.1879 32.2118C62.8536 32.0188 62.4937 31.9149 62.108 31.9001C61.7223 31.8803 61.3645 31.9656 61.0345 32.1561ZM64.3192 28.9685C64.5721 28.8225 64.8528 28.6976 65.1613 28.5937C65.4698 28.4848 65.7505 28.4168 66.0034 28.3896L67.1668 29.0612C66.8754 29.1058 66.6012 29.1577 66.3441 29.2171C66.0826 29.274 65.8298 29.373 65.5855 29.514C65.4441 29.5956 65.3434 29.6785 65.2834 29.7626C65.2234 29.8467 65.2427 29.9172 65.3413 29.9741C65.4484 30.036 65.592 30.0471 65.772 30.0075C65.9477 29.9655 66.1598 29.9123 66.4083 29.8479L67.0447 29.681C67.4775 29.5696 67.8611 29.5362 68.1953 29.5808C68.5339 29.6228 68.806 29.7032 69.0117 29.822C69.2859 29.9803 69.4509 30.1671 69.5066 30.3823C69.5581 30.5951 69.5109 30.8153 69.3652 31.0429C69.2152 31.268 68.9731 31.477 68.6389 31.67C68.3817 31.8184 68.0818 31.9397 67.7389 32.0337C67.3961 32.1277 67.064 32.1908 66.7426 32.2229L65.5791 31.5512C65.9391 31.5216 66.2862 31.4671 66.6205 31.388C66.959 31.3063 67.2483 31.1962 67.4882 31.0577C67.6382 30.9711 67.7411 30.8919 67.7968 30.8202C67.8525 30.7435 67.8354 30.6792 67.7454 30.6272C67.6811 30.5901 67.5911 30.5778 67.4754 30.5901C67.3597 30.6025 67.2268 30.6322 67.0768 30.6792L66.2733 30.9204C65.9562 31.0144 65.6648 31.0614 65.3991 31.0614C65.1334 31.0614 64.8935 31.0292 64.6792 30.9649C64.4606 30.8981 64.2657 30.8153 64.0942 30.7163C63.79 30.5406 63.6121 30.3489 63.5607 30.1411C63.505 29.9308 63.5479 29.723 63.6893 29.5177C63.8307 29.3123 64.0407 29.1293 64.3192 28.9685Z" fill="url(#paint3_linear)"/>
</g>
<g filter="url(#filter2_d)">
<rect width="14.797" height="14.797" rx="2.72832" transform="matrix(0.866044 -0.499967 0.866044 0.499967 21.1097 37.2275)" fill="url(#paint4_linear)"/>
</g>
<path d="M30.2834 37.6773C30.4311 37.592 30.5962 37.5275 30.7788 37.4837C30.9593 37.4387 31.1469 37.4156 31.3418 37.4144C31.5366 37.4109 31.7274 37.431 31.914 37.4748C32.1027 37.5174 32.2771 37.5849 32.4371 37.6773C32.5971 37.7696 32.714 37.8703 32.7878 37.9792C32.8637 38.087 32.8996 38.1977 32.8955 38.3114C32.8914 38.4227 32.8514 38.531 32.7755 38.6364C32.6976 38.7406 32.5847 38.8353 32.4371 38.9206C32.2894 39.0058 32.1243 39.0715 31.9417 39.1177C31.7592 39.1615 31.5705 39.1852 31.3756 39.1888C31.1808 39.19 30.989 39.1692 30.8003 39.1266C30.6137 39.0828 30.4403 39.0147 30.2804 38.9223C30.1204 38.83 30.0024 38.7299 29.9265 38.6222C29.8527 38.5132 29.8178 38.4031 29.8219 38.2918C29.826 38.1781 29.8671 38.0692 29.945 37.965C30.0229 37.8584 30.1358 37.7625 30.2834 37.6773ZM30.6865 37.9099C30.5634 37.981 30.4824 38.0621 30.4434 38.1533C30.4065 38.2433 30.4106 38.3333 30.4557 38.4233C30.5008 38.5132 30.588 38.5955 30.7172 38.6701C30.8444 38.7435 30.987 38.7939 31.1449 38.8211C31.3008 38.8472 31.4567 38.8495 31.6125 38.8282C31.7684 38.8045 31.9079 38.7572 32.031 38.6861C32.154 38.6151 32.235 38.5351 32.274 38.4463C32.3109 38.3564 32.3068 38.2664 32.2617 38.1764C32.2145 38.0852 32.1274 38.0029 32.0002 37.9295C31.871 37.8549 31.7284 37.8046 31.5725 37.7785C31.4167 37.7525 31.2608 37.7501 31.1049 37.7714C30.949 37.7927 30.8095 37.8389 30.6865 37.9099ZM33.3108 35.9828L33.6954 36.2049L33.037 36.585L34.7045 37.5476L34.28 37.7927L32.6124 36.8301L31.954 37.2102L31.5695 36.9881L33.3108 35.9828ZM34.5384 35.2742C34.6348 35.2185 34.7456 35.1735 34.8707 35.1392C34.9958 35.1048 35.1271 35.0847 35.2645 35.0788C35.404 35.0717 35.5404 35.0817 35.6737 35.109C35.807 35.1338 35.9311 35.1794 36.046 35.2457C36.1854 35.3263 36.2736 35.4186 36.3105 35.5228C36.3475 35.6247 36.3382 35.7271 36.2829 35.8301C36.2275 35.9331 36.1311 36.0243 35.9936 36.1036C35.9013 36.1569 35.8091 36.1995 35.7168 36.2315C35.6245 36.2635 35.5414 36.2866 35.4675 36.3008L36.1752 36.7093L35.7475 36.9562L33.6862 35.7662L34.5384 35.2742ZM34.5138 35.7502L35.123 36.1018C35.1865 36.0865 35.2573 36.0645 35.3353 36.0361C35.4132 36.0053 35.486 35.9704 35.5537 35.9313C35.6768 35.8603 35.7403 35.7845 35.7444 35.704C35.7485 35.6211 35.7034 35.5524 35.6091 35.498C35.5004 35.4352 35.3773 35.4115 35.2399 35.4269C35.1025 35.4423 34.9784 35.482 34.8676 35.5459L34.5138 35.7502Z" fill="url(#paint5_linear)"/>
<g filter="url(#filter3_d)">
<rect width="14.797" height="14.797" rx="2.72832" transform="matrix(0.866044 -0.499967 0.866044 0.499967 73.8837 47.3242)" fill="white"/>
</g>
<g filter="url(#filter4_d)">
<path d="M83.0076 47.5971L86.0442 48.2418L85.5427 48.5313L85.0012 48.3999L84.1859 48.8706L84.4136 49.1832L83.9121 49.4727L82.7953 47.7196L83.0076 47.5971ZM83.6014 48.0607L83.9736 48.574L84.4905 48.2756L83.6014 48.0607ZM85.6104 46.1122L85.995 46.3343L85.3366 46.7143L87.0041 47.677L86.5795 47.9221L84.912 46.9595L84.2536 47.3395L83.869 47.1175L85.6104 46.1122ZM88.0286 44.6984L90.1053 45.8973L89.6777 46.1442L88.4224 45.4195L88.4717 46.059L88.3486 46.13L87.2349 46.1051L88.4901 46.8298L88.0625 47.0767L85.9857 45.8778L86.1303 45.7943L87.9271 45.8156L87.884 44.7819L88.0286 44.6984Z" fill="url(#paint6_linear)"/>
</g>
<g filter="url(#filter5_d)">
<rect width="14.797" height="14.797" rx="2.72832" transform="matrix(0.866044 -0.499967 0.866044 0.499967 69.2946 23.9194)" fill="url(#paint7_linear)"/>
</g>
<path d="M76.0457 25.3214C76.1647 25.2527 76.2898 25.1994 76.421 25.1615C76.5523 25.1236 76.6733 25.0976 76.7841 25.0834L77.2056 25.3267C77.0866 25.3433 76.9656 25.3646 76.8425 25.3907C76.7195 25.4167 76.6046 25.4605 76.498 25.5221C76.4446 25.5529 76.3995 25.5884 76.3626 25.6287C76.3277 25.6677 76.3093 25.7068 76.3072 25.7459C76.3072 25.7838 76.3328 25.8175 76.3841 25.8471C76.4518 25.8862 76.5328 25.8986 76.6272 25.8844C76.7215 25.8702 76.8292 25.8483 76.9502 25.8187L77.3071 25.7335C77.5122 25.6861 77.6927 25.6683 77.8486 25.6802C78.0045 25.692 78.1388 25.7305 78.2516 25.7956C78.3747 25.8667 78.4475 25.9501 78.4701 26.0461C78.4926 26.1396 78.4711 26.2361 78.4055 26.3356C78.3419 26.4338 78.2383 26.5244 78.0947 26.6073C77.9737 26.6772 77.8373 26.7322 77.6855 26.7725C77.5338 26.8128 77.3871 26.8394 77.2456 26.8524L76.8241 26.6091C76.98 26.5949 77.1348 26.5694 77.2886 26.5327C77.4425 26.496 77.5809 26.4421 77.704 26.3711C77.7901 26.3214 77.8476 26.2693 77.8763 26.2148C77.9029 26.1591 77.8824 26.1118 77.8148 26.0727C77.7614 26.0419 77.6927 26.0318 77.6086 26.0425C77.5245 26.0508 77.4415 26.0656 77.3594 26.0869L76.9195 26.1988C76.6979 26.2556 76.5092 26.2722 76.3534 26.2485C76.1975 26.2225 76.059 26.1745 75.938 26.1047C75.8129 26.0324 75.738 25.9501 75.7134 25.8578C75.6888 25.7631 75.7062 25.6689 75.7657 25.5754C75.8231 25.4807 75.9165 25.396 76.0457 25.3214ZM78.7285 23.8188L79.1131 24.0408L78.4547 24.4209L80.1222 25.3836L79.6976 25.6287L78.0301 24.666L77.3717 25.0461L76.9871 24.8241L78.7285 23.8188ZM79.7838 23.1918L82.8204 23.8365L82.3189 24.1261L81.7774 23.9946L80.9621 24.4653L81.1898 24.7779L80.6883 25.0674L79.5715 23.3144L79.7838 23.1918ZM80.3776 23.6554L80.7499 24.1687L81.2667 23.8703L80.3776 23.6554ZM82.3866 21.707L82.7712 21.929L82.1128 22.3091L83.7803 23.2717L83.3558 23.5168L81.6882 22.5542L81.0298 22.9343L80.6452 22.7122L82.3866 21.707ZM85.5617 21.81L85.9463 22.032L84.8233 22.6803L84.4387 22.4583L84.7864 22.2576L83.4942 21.5116L83.1465 21.7123L82.762 21.4903L83.8849 20.842L84.2695 21.064L83.9219 21.2647L85.214 22.0107L85.5617 21.81ZM85.2971 19.9734C85.4263 19.8988 85.5566 19.845 85.6878 19.8118C85.8171 19.7775 85.9473 19.7579 86.0786 19.7532L86.5093 20.0019C86.4231 20.009 86.336 20.0178 86.2478 20.0285C86.1596 20.0392 86.0704 20.0575 85.9801 20.0836C85.8919 20.1084 85.8027 20.1469 85.7124 20.199C85.5894 20.2701 85.5073 20.3518 85.4663 20.4441C85.4253 20.5365 85.4253 20.6288 85.4663 20.7212C85.5073 20.8136 85.5925 20.897 85.7217 20.9716C85.8488 21.045 85.9934 21.0942 86.1555 21.1191C86.3155 21.1427 86.4755 21.1427 86.6354 21.1191C86.7934 21.0942 86.9339 21.0462 87.0569 20.9752C87.1944 20.8959 87.2887 20.8177 87.34 20.7407C87.3913 20.6614 87.4241 20.5821 87.4384 20.5027L87.8538 20.7425C87.8476 20.8195 87.8117 20.8994 87.7461 20.9823C87.6784 21.064 87.58 21.1421 87.4507 21.2167C87.3031 21.302 87.138 21.3677 86.9554 21.4139C86.7708 21.4589 86.5811 21.4832 86.3862 21.4867C86.1893 21.4891 85.9965 21.469 85.8078 21.4263C85.6191 21.3837 85.4448 21.3162 85.2848 21.2238C85.1248 21.1315 85.0079 21.0308 84.9341 20.9219C84.8602 20.813 84.8264 20.7023 84.8325 20.5898C84.8366 20.4761 84.8787 20.3666 84.9587 20.2612C85.0366 20.1546 85.1494 20.0587 85.2971 19.9734Z" fill="url(#paint8_linear)"/>
<defs>
<filter id="filter0_f" x="10.8715" y="0.0855064" width="97.9724" height="65.0167" filterUnits="userSpaceOnUse" color-interpolation-filters="sRGB">
<feFlood flood-opacity="0" result="BackgroundImageFix"/>
<feBlend mode="normal" in="SourceGraphic" in2="BackgroundImageFix" result="shape"/>
<feGaussianBlur stdDeviation="5.00192" result="effect1_foregroundBlur"/>
</filter>
<filter id="filter1_d" x="16.8221" y="4.99779" width="86.0716" height="53.6358" filterUnits="userSpaceOnUse" color-interpolation-filters="sRGB">
<feFlood flood-opacity="0" result="BackgroundImageFix"/>
<feColorMatrix in="SourceAlpha" type="matrix" values="0 0 0 0 0 0 0 0 0 0 0 0 0 0 0 0 0 0 127 0"/>
<feOffset dy="-0.778077"/>
<feGaussianBlur stdDeviation="2.33423"/>
<feColorMatrix type="matrix" values="0 0 0 0 0.0823529 0 0 0 0 0.0823529 0 0 0 0 0.0823529 0 0 0 0.05 0"/>
<feBlend mode="normal" in2="BackgroundImageFix" result="effect1_dropShadow"/>
<feBlend mode="normal" in="SourceGraphic" in2="effect1_dropShadow" result="shape"/>
</filter>
<filter id="filter2_d" x="19.0396" y="28.0836" width="29.77" height="20.1065" filterUnits="userSpaceOnUse" color-interpolation-filters="sRGB">
<feFlood flood-opacity="0" result="BackgroundImageFix"/>
<feColorMatrix in="SourceAlpha" type="matrix" values="0 0 0 0 0 0 0 0 0 0 0 0 0 0 0 0 0 0 127 0"/>
<feMorphology radius="0.575717" operator="dilate" in="SourceAlpha" result="effect1_dropShadow"/>
<feOffset dy="0.909441"/>
<feGaussianBlur stdDeviation="1.43929"/>
<feColorMatrix type="matrix" values="0 0 0 0 0.0823529 0 0 0 0 0.0823529 0 0 0 0 0.0823529 0 0 0 0.1 0"/>
<feBlend mode="normal" in2="BackgroundImageFix" result="effect1_dropShadow"/>
<feBlend mode="normal" in="SourceGraphic" in2="effect1_dropShadow" result="shape"/>
</filter>
<filter id="filter3_d" x="71.8135" y="38.1802" width="29.77" height="20.1065" filterUnits="userSpaceOnUse" color-interpolation-filters="sRGB">
<feFlood flood-opacity="0" result="BackgroundImageFix"/>
<feColorMatrix in="SourceAlpha" type="matrix" values="0 0 0 0 0 0 0 0 0 0 0 0 0 0 0 0 0 0 127 0"/>
<feMorphology radius="0.575717" operator="dilate" in="SourceAlpha" result="effect1_dropShadow"/>
<feOffset dy="0.909441"/>
<feGaussianBlur stdDeviation="1.43929"/>
<feColorMatrix type="matrix" values="0 0 0 0 0.0823529 0 0 0 0 0.0823529 0 0 0 0 0.0823529 0 0 0 0.1 0"/>
<feBlend mode="normal" in2="BackgroundImageFix" result="effect1_dropShadow"/>
<feBlend mode="normal" in="SourceGraphic" in2="effect1_dropShadow" result="shape"/>
</filter>
<filter id="filter4_d" x="79.341" y="42.1534" width="14.2187" height="11.6829" filterUnits="userSpaceOnUse" color-interpolation-filters="sRGB">
<feFlood flood-opacity="0" result="BackgroundImageFix"/>
<feColorMatrix in="SourceAlpha" type="matrix" values="0 0 0 0 0 0 0 0 0 0 0 0 0 0 0 0 0 0 127 0"/>
<feMorphology radius="0.575717" operator="dilate" in="SourceAlpha" result="effect1_dropShadow"/>
<feOffset dy="0.909441"/>
<feGaussianBlur stdDeviation="1.43929"/>
<feColorMatrix type="matrix" values="0 0 0 0 0.0823529 0 0 0 0 0.0823529 0 0 0 0 0.0823529 0 0 0 0.1 0"/>
<feBlend mode="normal" in2="BackgroundImageFix" result="effect1_dropShadow"/>
<feBlend mode="normal" in="SourceGraphic" in2="effect1_dropShadow" result="shape"/>
</filter>
<filter id="filter5_d" x="67.2244" y="14.7755" width="29.77" height="20.1065" filterUnits="userSpaceOnUse" color-interpolation-filters="sRGB">
<feFlood flood-opacity="0" result="BackgroundImageFix"/>
<feColorMatrix in="SourceAlpha" type="matrix" values="0 0 0 0 0 0 0 0 0 0 0 0 0 0 0 0 0 0 127 0"/>
<feMorphology radius="0.575717" operator="dilate" in="SourceAlpha" result="effect1_dropShadow"/>
<feOffset dy="0.909441"/>
<feGaussianBlur stdDeviation="1.43929"/>
<feColorMatrix type="matrix" values="0 0 0 0 0.0823529 0 0 0 0 0.0823529 0 0 0 0 0.0823529 0 0 0 0.1 0"/>
<feBlend mode="normal" in2="BackgroundImageFix" result="effect1_dropShadow"/>
<feBlend mode="normal" in="SourceGraphic" in2="effect1_dropShadow" result="shape"/>
</filter>
<linearGradient id="paint0_linear" x1="-4.35963" y1="46.3493" x2="94.5372" y2="-42.6526" gradientUnits="userSpaceOnUse">
<stop offset="0.207433" stop-color="#FBFBFB" stop-opacity="0"/>
<stop offset="1" stop-color="#599CFF"/>
</linearGradient>
<linearGradient id="paint1_linear" x1="33.203" y1="17.2062" x2="59.8544" y2="63.3717" gradientUnits="userSpaceOnUse">
<stop stop-color="#FF5353"/>
<stop offset="0.552383" stop-color="#FFBABA"/>
<stop offset="1" stop-color="white"/>
</linearGradient>
<linearGradient id="paint2_linear" x1="44.3122" y1="23.7849" x2="62.2164" y2="58.2943" gradientUnits="userSpaceOnUse">
<stop stop-color="white"/>
<stop offset="1" stop-color="white"/>
</linearGradient>
<linearGradient id="paint3_linear" x1="58.2441" y1="30.56" x2="62.2203" y2="37.4478" gradientUnits="userSpaceOnUse">
<stop stop-color="#FAFAFA"/>
<stop offset="1" stop-color="white" stop-opacity="0"/>
</linearGradient>
<linearGradient id="paint4_linear" x1="7.39848" y1="0" x2="7.39848" y2="14.797" gradientUnits="userSpaceOnUse">
<stop stop-color="#FF7777"/>
<stop offset="1" stop-color="#FFDDDD"/>
</linearGradient>
<linearGradient id="paint5_linear" x1="31.7388" y1="36.2706" x2="33.5885" y2="39.4748" gradientUnits="userSpaceOnUse">
<stop stop-color="#FAFAFA"/>
<stop offset="1" stop-color="white" stop-opacity="0"/>
</linearGradient>
<linearGradient id="paint6_linear" x1="84.549" y1="46.1052" x2="86.3988" y2="49.3094" gradientUnits="userSpaceOnUse">
<stop stop-color="#FF7777"/>
<stop offset="1" stop-color="#FFDDDD"/>
</linearGradient>
<linearGradient id="paint7_linear" x1="7.39848" y1="0" x2="7.39848" y2="14.797" gradientUnits="userSpaceOnUse">
<stop stop-color="#FF7777"/>
<stop offset="1" stop-color="#FFDDDD"/>
</linearGradient>
<linearGradient id="paint8_linear" x1="80.1177" y1="22.397" x2="81.9675" y2="25.6012" gradientUnits="userSpaceOnUse">
<stop stop-color="white"/>
<stop offset="1" stop-color="white" stop-opacity="0"/>
</linearGradient>
</defs>
</svg>
