<svg width="80" height="18" viewBox="0 0 80 18" fill="none" xmlns="http://www.w3.org/2000/svg">
<path d="M33.8616 14.7209L35.0673 15.6246L36.2729 16.5385H36.2001L35.4622 16.7213L34.8906 16.8635L34.1422 17.0564L33.7473 17.1579H33.6641C33.6477 17.1646 33.63 17.1681 33.6122 17.1681C33.5943 17.1681 33.5767 17.1646 33.5602 17.1579L32.1259 15.5129L31.6686 14.9849C31.6536 14.9665 31.6346 14.9516 31.6131 14.941C31.5916 14.9305 31.568 14.9247 31.5439 14.924C31.2373 14.9137 30.9317 14.8831 30.6293 14.8326C29.9404 14.7455 29.28 14.5097 28.6961 14.1421C28.1197 13.7527 27.6604 13.2198 27.3657 12.5986C27.1689 12.186 27.0191 11.7536 26.9188 11.309C26.7228 10.3876 26.6356 9.44725 26.659 8.50642C26.659 7.9987 26.659 7.49098 26.7629 6.98326C26.8135 6.57719 26.9004 6.17625 27.0227 5.78505C27.1236 5.39924 27.2737 5.02737 27.4697 4.67822C27.8626 3.92978 28.5091 3.33765 29.2989 3.00275C29.6327 2.8591 29.9811 2.75019 30.3382 2.67781C30.9278 2.57297 31.5269 2.52873 32.1259 2.5458C32.5089 2.54595 32.8913 2.57651 33.2692 2.63719C33.8836 2.7137 34.4768 2.90687 35.0153 3.20584C35.6773 3.58244 36.2037 4.14997 36.5223 4.83054C36.7237 5.24133 36.8738 5.67431 36.9693 6.12014C37.079 6.61186 37.152 7.11075 37.1875 7.61283C37.2187 8.19123 37.2187 8.77083 37.1875 9.34923C37.1791 9.78073 37.1444 10.2114 37.0836 10.6388C37.0836 10.9536 36.9796 11.2684 36.8965 11.5832C36.7487 12.2014 36.4767 12.7847 36.0962 13.2993C35.7424 13.7734 35.27 14.151 34.7243 14.3959C34.4528 14.5148 34.1711 14.6099 33.8824 14.6803H33.82L33.8616 14.7209ZM34.8594 8.7095C34.8739 8.1464 34.8462 7.58301 34.7762 7.02388C34.7326 6.60955 34.6312 6.203 34.4748 5.81551C34.3679 5.56003 34.2087 5.32854 34.0071 5.13517C33.697 4.86673 33.3147 4.69057 32.9054 4.62745C32.6171 4.57858 32.325 4.55479 32.0324 4.55637C31.5904 4.54109 31.1487 4.59247 30.7228 4.70868C30.2601 4.83829 29.8658 5.13629 29.6211 5.54134C29.4067 5.93428 29.2626 6.36012 29.195 6.80048C29.1409 7.12976 29.1097 7.46222 29.1014 7.79561C29.0356 8.71331 29.0635 9.63513 29.1846 10.5474C29.232 10.8954 29.3228 11.2364 29.4548 11.5629C29.5651 11.8395 29.7312 12.0916 29.9433 12.3041C30.2583 12.581 30.6478 12.7642 31.0658 12.8322C31.3471 12.881 31.6323 12.9048 31.918 12.9033C32.3715 12.9156 32.8241 12.8574 33.2588 12.7306C33.5428 12.6494 33.8029 12.5032 34.0175 12.3041C34.2798 12.0404 34.4755 11.7205 34.5892 11.3699C34.7241 10.9512 34.8078 10.5183 34.8386 10.0803C34.8866 9.63859 34.904 9.19417 34.8906 8.75012" fill="#020202"/>
<path d="M16.8372 6.37381C16.8372 6.37381 16.8372 6.37381 16.8372 6.43473C16.8372 6.86122 16.8372 7.29785 16.8372 7.73449V14.609C16.8372 14.7309 16.8372 14.7309 16.702 14.7309H14.8936C14.8208 14.7309 14.8104 14.7309 14.8 14.6496V2.84008C14.8 2.71823 14.8 2.71823 14.9352 2.71823H16.6813C16.7176 2.71652 16.7537 2.72522 16.7851 2.74325C16.8165 2.76129 16.8418 2.78788 16.8579 2.81977L18.2922 4.85065L20.7867 8.42499L22.3769 10.7097L22.4496 10.791C22.4467 10.764 22.4467 10.7367 22.4496 10.7097C22.4496 10.0598 22.4496 9.40997 22.4496 8.77024V2.78931C22.4496 2.78931 22.4496 2.71823 22.5224 2.71823H24.3516C24.4659 2.71823 24.4659 2.71823 24.4659 2.82993V14.6598C24.4659 14.7106 24.4659 14.7309 24.3932 14.7309H22.9797C22.9429 14.7343 22.9058 14.7275 22.8727 14.7114C22.8397 14.6952 22.8119 14.6703 22.7926 14.6395L21.0153 12.172L19.1133 9.53182L17.5023 7.29785L16.9099 6.42458L16.8579 6.36365" fill="#020202"/>
<path d="M0 2.71851H2.22419C2.22419 2.71851 2.29694 2.71851 2.28655 2.77943V12.5581C2.28655 12.6799 2.28655 12.6799 2.41127 12.6799H7.60798C7.70152 12.6799 7.70152 12.6799 7.70152 12.7815C7.70152 13.4009 7.70152 14.0203 7.70152 14.6397C7.70152 14.7311 7.70152 14.7311 7.60798 14.7311H0V2.71851Z" fill="#020202"/>
<path d="M9.60352 8.71972V2.78959C9.60352 2.72866 9.60352 2.71851 9.67627 2.71851H11.8277C11.9109 2.71851 11.9109 2.71851 11.9212 2.79974V14.6295C11.9212 14.7209 11.9212 14.7311 11.8069 14.7311H9.72824C9.6347 14.7311 9.6347 14.7311 9.6347 14.6397V8.71972H9.60352Z" fill="#020202"/>
<path d="M33.259 0.89073H33.3422L35.1091 0.79934L36.0549 0.728259L37.0215 0.667332C37.167 0.661584 37.3122 0.685801 37.4476 0.738413C37.5422 0.768613 37.6329 0.809508 37.7178 0.860267C37.8316 0.942121 37.9271 1.04578 37.9984 1.1649C38.0842 1.32487 38.1305 1.50222 38.1336 1.68278C38.1336 2.01787 38.1336 2.34282 38.2063 2.69822C38.2791 3.05363 38.2063 3.3481 38.2063 3.71366C38.2063 4.07922 38.2583 4.3737 38.2791 4.72911V5.35868C38.2606 5.34985 38.2445 5.33703 38.2319 5.3212C38.2193 5.30536 38.2105 5.28693 38.2063 5.26729L38.1128 4.97282C38.1128 4.86112 38.0192 4.73926 37.9673 4.62756C37.9153 4.51587 37.7906 4.28231 37.697 4.10969L37.51 3.77459L37.4164 3.66289L37.167 3.31764C37.1046 3.23641 37.0215 3.16532 36.9591 3.08409C36.7935 2.82004 36.5982 2.57482 36.3771 2.35297C36.2316 2.22096 36.0549 2.11942 35.899 1.98741C35.7357 1.86973 35.5656 1.76124 35.3897 1.66247C35.3087 1.60857 35.2215 1.56425 35.1299 1.53046L34.7037 1.32737L34.4959 1.24614L34.2984 1.19536L34.0282 1.09382H33.9762L33.3006 0.971965L33.259 0.89073Z" fill="#020202"/>
<path d="M79.1669 9.10553C79.1669 10.6017 78.7127 12.0644 77.8619 13.3084C77.0111 14.5525 75.8018 15.5221 74.3869 16.0947C72.9721 16.6673 71.4152 16.8171 69.9132 16.5252C68.4111 16.2333 67.0315 15.5128 65.9486 14.4548C64.8657 13.3968 64.1282 12.0489 63.8294 10.5814C63.5307 9.11392 63.684 7.59285 64.2701 6.21053C64.8561 4.8282 65.8486 3.64671 67.1219 2.81546C68.3953 1.98421 69.8923 1.54053 71.4238 1.54053C73.4774 1.54053 75.4468 2.33755 76.899 3.75626C78.3511 5.17498 79.1669 7.09916 79.1669 9.10553Z" fill="#E80D80"/>
<path d="M43.8097 3.63424V3.92317C44.2674 3.36865 44.7429 2.96296 45.2363 2.70613C45.7296 2.44346 46.2884 2.31212 46.9125 2.31212C47.6615 2.31212 48.351 2.50183 48.9811 2.88124C49.6111 3.26066 50.1075 3.81519 50.4701 4.54483C50.8386 5.27447 51.0229 6.13837 51.0229 7.13652C51.0229 7.872 50.9159 8.54911 50.7019 9.16785C50.4939 9.78075 50.2056 10.2973 49.837 10.7176C49.4685 11.132 49.0316 11.4531 48.5263 11.6807C48.027 11.9025 47.4891 12.0135 46.9125 12.0135C46.217 12.0135 45.6315 11.8763 45.156 11.6019C44.6864 11.3276 44.2376 10.9248 43.8097 10.3936V13.9835C43.8097 15.0342 43.4203 15.5595 42.6416 15.5595C42.1839 15.5595 41.8808 15.4223 41.7322 15.148C41.5836 14.8795 41.5093 14.4855 41.5093 13.966V3.65175C41.5093 3.19645 41.6103 2.8579 41.8124 2.63608C42.0145 2.40844 42.2909 2.29461 42.6416 2.29461C42.9864 2.29461 43.2658 2.41135 43.4798 2.64484C43.6997 2.87249 43.8097 3.20229 43.8097 3.63424ZM48.5798 7.11025C48.5798 6.47984 48.4818 5.93991 48.2856 5.49045C48.0894 5.03515 47.816 4.68784 47.4653 4.44852C47.1206 4.20336 46.7372 4.08078 46.3151 4.08078C45.6434 4.08078 45.0758 4.34053 44.6121 4.86004C44.1544 5.37954 43.9256 6.14421 43.9256 7.15403C43.9256 8.10549 44.1544 8.8468 44.6121 9.37798C45.0698 9.90333 45.6375 10.166 46.3151 10.166C46.7193 10.166 47.0938 10.0522 47.4386 9.82453C47.7833 9.59104 48.0597 9.24373 48.2678 8.7826C48.4758 8.32146 48.5798 7.76401 48.5798 7.11025Z" fill="#020202"/>
<path d="M59.1277 10.6651C58.5393 11.1145 57.9686 11.4531 57.4158 11.6807C56.869 11.9025 56.2537 12.0135 55.5702 12.0135C54.946 12.0135 54.3962 11.8938 53.9207 11.6545C53.4511 11.4093 53.0885 11.0795 52.8329 10.6651C52.5773 10.2506 52.4495 9.80118 52.4495 9.31669C52.4495 8.66293 52.6605 8.10549 53.0825 7.64435C53.5046 7.18322 54.0841 6.87385 54.8212 6.71625C54.9757 6.68122 55.3591 6.60242 55.9714 6.47984C56.5836 6.35726 57.1067 6.24636 57.5406 6.14713C57.9805 6.04206 58.456 5.91656 58.9672 5.77063C58.9375 5.14022 58.8067 4.67908 58.5749 4.38723C58.349 4.08953 57.8765 3.94069 57.1572 3.94069C56.5391 3.94069 56.0724 4.02532 55.7574 4.1946C55.4483 4.36388 55.1808 4.61779 54.9549 4.95635C54.735 5.2949 54.5775 5.51963 54.4824 5.63054C54.3932 5.73561 54.1971 5.78814 53.8939 5.78814C53.6205 5.78814 53.3827 5.7035 53.1806 5.53423C52.9845 5.35911 52.8864 5.1373 52.8864 4.86879C52.8864 4.44852 53.0379 4.03992 53.3411 3.64299C53.6443 3.24607 54.1168 2.91919 54.7588 2.66235C55.4007 2.40552 56.2002 2.2771 57.1572 2.2771C58.2272 2.2771 59.0683 2.4026 59.6805 2.6536C60.2928 2.89876 60.7237 3.28984 60.9734 3.82686C61.229 4.36388 61.3568 5.07601 61.3568 5.96326C61.3568 6.52362 61.3538 6.99935 61.3479 7.39044C61.3479 7.78153 61.3449 8.21639 61.3389 8.69504C61.3389 9.1445 61.4133 9.61439 61.5619 10.1047C61.7164 10.5892 61.7937 10.9015 61.7937 11.0416C61.7937 11.2867 61.6748 11.5115 61.437 11.7158C61.2052 11.9142 60.9407 12.0135 60.6435 12.0135C60.3938 12.0135 60.1471 11.8996 59.9034 11.672C59.6597 11.4385 59.4012 11.1029 59.1277 10.6651ZM58.9672 7.20657C58.6106 7.33498 58.0905 7.47216 57.4069 7.61809C56.7293 7.75818 56.2597 7.86325 55.9981 7.93329C55.7366 7.9975 55.4869 8.12884 55.2492 8.3273C55.0114 8.51992 54.8925 8.79135 54.8925 9.14158C54.8925 9.50348 55.0322 9.81285 55.3116 10.0697C55.591 10.3207 55.9565 10.4462 56.4083 10.4462C56.8898 10.4462 57.3326 10.344 57.7368 10.1397C58.1469 9.92959 58.4471 9.66109 58.6373 9.33421C58.8573 8.9723 58.9672 8.37691 58.9672 7.54804V7.20657Z" fill="#020202"/>
<path d="M70.226 9.72639L72.4729 2.62549H74.2383L70.3598 13.5614C69.7594 15.1374 68.8054 15.9255 67.4977 15.9255L67.1856 15.8992L66.5704 15.7854V14.472L67.0162 14.507C67.5749 14.507 68.0089 14.3961 68.318 14.1743C68.633 13.9525 68.8916 13.5468 69.0937 12.9573L69.4592 11.9941L66.0176 2.62549H67.8187L70.226 9.72639Z" fill="#FAFBFF"/>
</svg>
