<svg width="146" height="41" viewBox="0 0 146 41" fill="none" xmlns="http://www.w3.org/2000/svg">
<rect width="145.232" height="40.2854" rx="1.89759" fill="white"/>
<g clip-path="url(#clip0)">
<path d="M15.3526 37.2216L10.9464 32.9354V7.31791L15.3526 3.06494V37.2216Z" fill="#213263"/>
<path d="M8.70917 30.8088L4.30298 26.5226V13.7305L8.70917 9.47754V30.8088Z" fill="#213263"/>
<path d="M17.556 30.8088L21.9967 26.5226V13.7305L17.556 9.47754V30.8088Z" fill="#2DAFE6"/>
<path d="M60.964 19.3458C61.859 18.5815 62.3409 17.4851 62.3409 16.0563C62.3409 13.0328 60.3099 11.5708 56.1103 11.5708H48.0208V28.6491H56.9708C61.377 28.6491 63.8211 26.7884 63.8211 23.3994C63.7867 21.4722 62.7884 20.0435 60.964 19.3458ZM56.4201 18.4154H51.1189V14.3618H56.2135C58.933 14.3618 59.1739 15.2921 59.1739 16.2225C59.1739 17.7177 58.2789 18.4154 56.4201 18.4154ZM51.1189 21.1732H56.6955C60.1378 21.1732 60.6197 22.3029 60.6197 23.4326C60.6197 25.1936 59.4837 25.8913 56.661 25.8913H51.1189V21.1732Z" fill="#213263"/>
<path d="M88.2621 28.0178C88.09 22.8013 87.5736 17.4518 86.7819 12.1356L86.713 11.604H83.9247L77.7285 22.3693L71.4635 11.604H68.6752L68.6063 12.1356C67.8146 17.4518 67.3326 22.8013 67.1261 28.0178L67.0917 28.6823H70.1554V28.0843C70.2586 24.3961 70.5684 20.1099 71.0159 16.7541L76.7302 26.3897H78.6579L84.3722 16.7541C84.7853 20.1099 85.1295 24.3961 85.2328 28.0843V28.6823H88.2965L88.2621 28.0178Z" fill="#213263"/>
<path d="M39.656 18.915L36.7989 18.3169C34.5958 17.885 33.8729 17.3534 33.8729 16.2237C33.8729 14.9943 35.3531 14.2965 37.7971 14.2965C39.1741 14.2965 40.792 14.6288 42.2378 15.2269L44.2687 13.3662L43.8901 13.1668C42.1001 12.17 40.0691 11.6384 37.9004 11.6384C33.6663 11.6384 30.9125 13.4659 30.9125 16.2901C30.9125 18.7821 32.5992 20.3105 36.076 20.975L39.0364 21.5731C41.7903 22.1047 41.7903 23.2012 41.7903 23.6331C41.7903 25.0951 40.2412 25.959 37.625 25.959C35.8694 25.959 33.7696 25.3941 32.1861 24.5302L30.1896 26.3577L30.4994 26.557C32.3927 27.8529 35.1121 28.6171 37.7627 28.6171C42.1345 28.6171 44.7507 26.6899 44.7507 23.5002C44.7507 21.0415 43.1672 19.6127 39.656 18.915Z" fill="#213263"/>
<path d="M116.868 24.5292V18.2494H115.835L115.697 18.9804C114.148 18.1497 113.115 18.0833 112.186 18.0833C109.191 18.0833 106.919 20.3426 106.919 23.333C106.919 26.4231 109.019 28.5828 112.048 28.5828C113.597 28.5828 114.733 28.1508 115.766 27.1208L116.076 28.4166H117.384L117.349 28.2837C117.281 28.2837 116.868 26.2901 116.868 24.5292ZM112.014 27.2869C109.811 27.2869 108.296 25.6921 108.296 23.333C108.296 21.0072 109.88 19.3791 112.152 19.3791C113.012 19.3791 114.32 19.5452 115.456 20.2762V25.2269C115.112 26.556 113.838 27.2869 112.014 27.2869Z" fill="#2DAFE6"/>
<path d="M124.441 18.0833C123.305 18.0833 121.893 18.6149 120.998 19.4123L120.861 18.2494H119.759V28.4499H121.136V20.841C121.618 20.2762 122.651 19.4123 124.268 19.4123C126.368 19.4123 127.367 20.3759 127.367 22.4359V28.4831H128.744V22.1036C128.744 19.5784 127.126 18.0833 124.441 18.0833Z" fill="#2DAFE6"/>
<path d="M134.389 22.3694L140.379 18.2826H138.245L138.21 18.3158C137.728 18.6148 133.735 21.2065 132.978 21.8378V13.9299H131.601V28.4498H132.978V22.7681C133.77 23.7317 138.348 27.885 138.899 28.4166L138.933 28.4498H140.895L134.389 22.3694Z" fill="#2DAFE6"/>
<path d="M105.026 22.4046C104.716 21.9062 104.303 21.5075 103.821 21.2084C103.339 20.9094 102.857 20.71 102.375 20.6103V20.5107C102.96 20.2781 103.442 19.8794 103.821 19.3477C104.2 18.7829 104.406 18.1848 104.406 17.4871C104.406 16.9222 104.269 16.3906 103.959 15.859C103.649 15.3274 103.098 14.8622 102.341 14.5299C101.584 14.1644 100.482 13.9983 99.0706 13.9651C98.1068 13.9651 97.3495 13.9983 96.7643 14.0315C96.1791 14.0648 95.7316 14.098 95.3873 14.1644V28.1859C95.6971 28.2192 96.1791 28.2524 96.7643 28.2856C97.3839 28.3188 98.1756 28.3521 99.2083 28.3521C100.895 28.3521 102.169 28.1527 103.098 27.754C103.993 27.3553 104.647 26.8569 104.991 26.2588C105.336 25.6275 105.508 24.963 105.508 24.2652C105.542 23.501 105.37 22.903 105.026 22.4046ZM97.4872 15.6264C97.797 15.5599 98.3822 15.5267 99.3116 15.5267C100.516 15.5599 101.343 15.7925 101.79 16.2577C102.238 16.7229 102.444 17.2213 102.41 17.8193C102.41 18.4839 102.134 19.0155 101.618 19.4142C101.102 19.8129 100.448 20.0123 99.6214 20.0455H97.4872V15.6264ZM102.616 25.8933C102.065 26.4249 101.102 26.6908 99.6903 26.724C98.6576 26.724 97.9002 26.6908 97.4872 26.6243V21.6404H99.9312C101.033 21.6404 101.859 21.8729 102.479 22.3381C103.064 22.8033 103.374 23.3681 103.374 24.0659C103.374 24.7636 103.133 25.3617 102.616 25.8933Z" fill="#2DAFE6"/>
</g>
<defs>
<clipPath id="clip0">
<rect width="136.627" height="34.1566" fill="white" transform="translate(4.30298 3.06494)"/>
</clipPath>
</defs>
</svg>
