<svg width="52" height="21" viewBox="0 0 52 21" fill="none" xmlns="http://www.w3.org/2000/svg">
<path d="M34.9096 11.4005L35.4209 11.5539C35.3868 11.6987 35.3357 11.818 35.259 11.9117C35.1823 12.0055 35.0971 12.0821 34.9863 12.1247C34.8755 12.1759 34.7392 12.2014 34.5688 12.2014C34.3643 12.2014 34.2024 12.1759 34.066 12.1162C33.9382 12.0566 33.8275 11.9543 33.7337 11.801C33.64 11.6561 33.5889 11.4601 33.5889 11.2301C33.5889 10.9233 33.6741 10.6847 33.836 10.5143C33.9979 10.3439 34.2365 10.2672 34.5347 10.2672C34.7733 10.2672 34.9522 10.3183 35.0885 10.4121C35.2249 10.5058 35.3271 10.6506 35.3868 10.8551L34.8755 10.9659C34.8585 10.9063 34.8414 10.8637 34.8159 10.8381C34.7818 10.7955 34.7477 10.7614 34.6966 10.7359C34.6455 10.7103 34.5943 10.7018 34.5432 10.7018C34.4154 10.7018 34.3131 10.7529 34.245 10.8637C34.1939 10.9404 34.1683 11.0682 34.1683 11.2301C34.1683 11.4346 34.2024 11.5794 34.262 11.6561C34.3217 11.7328 34.4154 11.7754 34.5262 11.7754C34.6369 11.7754 34.7221 11.7413 34.7733 11.6817C34.8414 11.605 34.884 11.5198 34.9096 11.4005Z" fill="#225E63"/>
<path d="M35.6252 11.2283C35.6252 10.9216 35.7105 10.683 35.8809 10.5126C36.0513 10.3422 36.2899 10.257 36.5966 10.257C36.9119 10.257 37.1505 10.3422 37.3209 10.5041C37.4913 10.6745 37.5765 10.9045 37.5765 11.2113C37.5765 11.4328 37.5424 11.6118 37.4657 11.7481C37.3891 11.8845 37.2868 11.9952 37.1419 12.0719C37.0056 12.1486 36.8267 12.1912 36.6222 12.1912C36.4092 12.1912 36.2387 12.1571 36.0939 12.089C35.9576 12.0208 35.8468 11.9185 35.7531 11.7652C35.6593 11.6118 35.6252 11.4499 35.6252 11.2283ZM36.2047 11.2283C36.2047 11.4158 36.2387 11.5521 36.3069 11.6374C36.3751 11.7226 36.4688 11.7652 36.5966 11.7652C36.7244 11.7652 36.8182 11.7226 36.8863 11.6459C36.9545 11.5607 36.9886 11.4158 36.9886 11.2113C36.9886 11.0324 36.9545 10.9045 36.8778 10.8279C36.8096 10.7427 36.7074 10.7086 36.5881 10.7086C36.4688 10.7086 36.3751 10.7512 36.3069 10.8364C36.2387 10.9046 36.2047 11.0409 36.2047 11.2283Z" fill="#225E63"/>
<path d="M37.875 10.2911H38.6333L38.923 11.4329L39.2127 10.2911H39.9711V12.1657H39.4939V10.7342L39.1275 12.1657H38.7015L38.3351 10.7342V12.1657H37.8579V10.2911H37.875Z" fill="#225E63"/>
<path d="M40.3459 10.2911H41.3088C41.5218 10.2911 41.6752 10.3423 41.7774 10.4445C41.8797 10.5468 41.9308 10.6831 41.9308 10.8706C41.9308 11.058 41.8712 11.2114 41.7604 11.3136C41.6496 11.4244 41.4707 11.4755 41.2406 11.4755H40.9254V12.1742H40.3459V10.2911ZM40.9254 11.0921H41.0702C41.181 11.0921 41.2577 11.075 41.3088 11.0324C41.3514 10.9898 41.377 10.9472 41.377 10.8876C41.377 10.8279 41.3599 10.7768 41.3173 10.7342C41.2747 10.6916 41.2065 10.6746 41.0958 10.6746H40.9339V11.0921H40.9254Z" fill="#225E63"/>
<path d="M42.2375 10.2911H42.817V11.7056H43.7202V12.1657H42.2375V10.2911Z" fill="#225E63"/>
<path d="M44.01 10.2911H44.5894V12.1657H44.01V10.2911Z" fill="#225E63"/>
<path d="M46.1571 11.8503H45.501L45.4073 12.157H44.8193L45.5266 10.2825H46.1571L46.8643 12.157H46.2594L46.1571 11.8503ZM46.0378 11.4498L45.8333 10.7767L45.6288 11.4498H46.0378Z" fill="#225E63"/>
<path d="M47.0432 10.2911H47.58L48.2872 11.3307V10.2911H48.8326V12.1657H48.2872L47.5885 11.1347V12.1657H47.0432V10.2911Z" fill="#225E63"/>
<path d="M49.0884 10.2911H50.8522V10.7513H50.2643V12.1657H49.6848V10.7513H49.0969V10.2911H49.0884Z" fill="#225E63"/>
<path d="M27.9397 13.3023L29.6182 12.7741L29.0729 11.5641C28.6724 12.0668 28.272 12.7144 27.9397 13.3023ZM27.3688 7.77234L24.0797 0.444458L0 1.80779L6.67177 20.0082L19.5126 15.9608C18.6946 14.785 18.3964 13.3876 19.3422 12.7059C20.3988 11.939 21.9921 12.8252 23.0061 14.0777C23.986 12.4417 26.7382 8.63294 27.3688 7.77234Z" fill="#225E63"/>
<path d="M23.3295 5.58339C24.335 5.58339 25.153 4.81652 25.153 3.86219C25.153 2.90786 24.335 2.14099 23.3295 2.14099C22.3241 2.14099 21.5061 2.90786 21.5061 3.86219C21.5061 4.80799 22.3241 5.58339 23.3295 5.58339ZM21.8384 6.32469H24.8207V14.1212H21.8384V6.32469Z" fill="#FEFEFE"/>
<path d="M20.3643 8.59982C20.3899 8.60834 20.4069 8.59982 20.4069 8.57426V6.59744C20.4069 6.57188 20.3899 6.54631 20.3643 6.52927C20.3643 6.52927 19.9724 6.27365 18.7794 6.20548C18.7198 6.1714 17.6717 6.16288 17.3906 6.20548C13.045 6.55483 12.8831 9.699 12.8831 9.83533V10.6022C12.8831 10.6959 12.8831 13.9083 17.3906 14.1894C17.8336 14.2235 18.6942 14.1894 18.7794 14.1894C19.819 14.1894 20.5347 13.8742 20.5347 13.8742C20.5603 13.8657 20.5773 13.8401 20.5773 13.8145V11.9655C20.5773 11.94 20.5603 11.9314 20.5432 11.9485C20.5432 11.9485 20.2195 12.2041 18.805 12.349C18.4045 12.3916 18.2086 12.3745 18.0637 12.349C16.0528 12.0081 15.9591 10.5426 15.9591 10.5426C15.9591 10.517 15.9505 10.4744 15.9505 10.4573V9.89498C15.9505 9.86942 15.9505 9.82681 15.9591 9.80977C15.9591 9.80977 16.0954 8.23343 18.0637 8.06301H18.805C19.6656 8.17378 20.3643 8.59982 20.3643 8.59982Z" fill="#FEFEFE"/>
<path d="M4.60083 14.0956C4.60083 14.1212 4.61787 14.1382 4.64343 14.1382H7.54902C7.57459 14.1382 7.59163 14.1212 7.59163 14.0956V11.8291C7.59163 11.8035 7.60867 11.7865 7.63423 11.7865C7.63423 11.7865 12.2781 12.1188 12.2781 9.00868C12.2781 6.54617 9.36395 6.28202 8.40962 6.32463C8.39258 6.32463 4.64343 6.32463 4.64343 6.32463C4.61787 6.32463 4.60083 6.34167 4.60083 6.36723V14.0956ZM7.5405 10.0567V8.02027H8.25625C8.25625 8.02027 9.28727 8.06287 9.37247 8.7701C9.38951 8.82122 9.38951 9.17057 9.37247 9.18762C9.23614 10.0141 8.34146 10.0567 8.34146 10.0567H7.5405Z" fill="#FEFEFE"/>
<path d="M23.4151 17.8831C23.6537 17.8831 23.8411 17.8832 24.1479 17.7468C25.2045 17.193 28.7747 8.4762 32.5408 5.79215C32.5664 5.77511 32.592 5.74955 32.609 5.72398C32.6346 5.6899 32.6346 5.65581 32.6346 5.65581C32.6346 5.65581 32.6346 5.47688 32.0807 5.47688C28.7321 5.38315 25.2471 12.4128 23.4151 15.1906C23.3895 15.2247 23.2702 15.1906 23.2702 15.1906C23.2702 15.1906 22.0432 13.742 20.9781 13.1882C20.9526 13.1797 20.8333 13.1371 20.7055 13.1456C20.6203 13.1456 20.1261 13.2478 19.896 13.4864C19.6233 13.7761 19.6319 13.938 19.6319 14.2874C19.6319 14.3129 19.6489 14.4322 19.683 14.4919C19.9471 14.952 21.1315 16.588 22.1114 17.4912C22.2563 17.602 22.4863 17.8831 23.4151 17.8831Z" fill="#2BBC5D"/>
<path d="M33.5291 3.15906H36.3154C36.8692 3.15906 37.3123 3.23575 37.6446 3.3806C37.9854 3.53397 38.2666 3.74699 38.4796 4.01966C38.7012 4.30085 38.8631 4.62464 38.9568 4.99103C39.059 5.35743 39.1102 5.74938 39.1102 6.1669C39.1102 6.81449 39.0335 7.31721 38.8886 7.67509C38.7438 8.03296 38.5393 8.33119 38.2751 8.5783C38.011 8.81688 37.7298 8.97877 37.4316 9.06398C37.0226 9.17475 36.6477 9.22588 36.3154 9.22588H33.5291V3.15906ZM35.4036 4.53091V7.8455H35.8638C36.2557 7.8455 36.5369 7.8029 36.6988 7.71769C36.8607 7.63248 36.997 7.47911 37.0907 7.26609C37.1845 7.05307 37.2356 6.69519 37.2356 6.20951C37.2356 5.56193 37.1333 5.12736 36.9203 4.88878C36.7073 4.6502 36.3665 4.53091 35.8723 4.53091H35.4036Z" fill="#225E63"/>
<path d="M39.6299 7.22354L41.4192 7.11277C41.4619 7.40248 41.5385 7.62402 41.6578 7.77739C41.8538 8.0245 42.1265 8.14379 42.4844 8.14379C42.7485 8.14379 42.9615 8.08414 43.1064 7.95633C43.2512 7.82852 43.3279 7.68366 43.3279 7.52177C43.3279 7.36839 43.2597 7.22354 43.1234 7.09573C42.9871 6.96792 42.6633 6.85714 42.1606 6.74637C41.334 6.55892 40.7546 6.31181 40.3968 6.00506C40.0389 5.69831 39.8685 5.30636 39.8685 4.82919C39.8685 4.51392 39.9622 4.22421 40.1411 3.94303C40.3201 3.66184 40.5927 3.44882 40.9591 3.28692C41.3255 3.12503 41.8197 3.04834 42.4503 3.04834C43.2257 3.04834 43.8221 3.19319 44.2226 3.4829C44.6316 3.77261 44.8702 4.23273 44.9469 4.86327L43.1745 4.96552C43.1234 4.69286 43.0297 4.49688 42.8763 4.36907C42.7229 4.24126 42.5184 4.18161 42.2543 4.18161C42.0327 4.18161 41.8709 4.22421 41.7601 4.31794C41.6493 4.41167 41.5982 4.52244 41.5982 4.65877C41.5982 4.7525 41.6408 4.84623 41.7345 4.92292C41.8197 4.99961 42.0327 5.07629 42.3651 5.14446C43.1831 5.3234 43.771 5.50234 44.1289 5.68127C44.4867 5.86021 44.7424 6.09027 44.9043 6.35442C45.0661 6.61856 45.1428 6.92531 45.1428 7.25762C45.1428 7.64958 45.0321 8.00745 44.819 8.33125C44.606 8.66356 44.2993 8.91066 43.9158 9.08108C43.5324 9.25149 43.0382 9.3367 42.4503 9.3367C41.4192 9.3367 40.7035 9.14072 40.303 8.74024C39.9111 8.33977 39.6895 7.83704 39.6299 7.22354Z" fill="#225E63"/>
<path d="M45.6204 7.22354L47.4097 7.11277C47.4523 7.40248 47.529 7.62402 47.6483 7.77739C47.8443 8.0245 48.117 8.14379 48.4748 8.14379C48.739 8.14379 48.952 8.08414 49.0968 7.95633C49.2417 7.82852 49.3184 7.68366 49.3184 7.52177C49.3184 7.36839 49.2502 7.22354 49.1139 7.09573C48.9776 6.96792 48.6538 6.85714 48.151 6.74637C47.3245 6.55892 46.7451 6.31181 46.3872 6.00506C46.0379 5.69831 45.8589 5.30636 45.8589 4.82919C45.8589 4.51392 45.9527 4.22421 46.1316 3.94303C46.3105 3.66184 46.5832 3.44882 46.9496 3.28692C47.316 3.12503 47.8102 3.04834 48.4407 3.04834C49.2161 3.04834 49.8126 3.19319 50.2131 3.4829C50.6221 3.77261 50.8606 4.23273 50.9373 4.86327L49.165 4.96552C49.1139 4.69286 49.0202 4.49688 48.8668 4.36907C48.7134 4.24126 48.5089 4.18161 48.2448 4.18161C48.0232 4.18161 47.8613 4.22421 47.7506 4.31794C47.6398 4.41167 47.5887 4.52244 47.5887 4.65877C47.5887 4.7525 47.6313 4.84623 47.725 4.92292C47.8102 4.99961 48.0232 5.07629 48.3555 5.14446C49.1735 5.3234 49.7615 5.50234 50.1193 5.68127C50.4772 5.86021 50.7328 6.09027 50.8947 6.35442C51.0566 6.61856 51.1333 6.92531 51.1333 7.25762C51.1333 7.64958 51.0225 8.00745 50.8095 8.33125C50.5965 8.66356 50.2898 8.91066 49.9063 9.08108C49.5229 9.25149 49.0287 9.3367 48.4407 9.3367C47.4097 9.3367 46.694 9.14072 46.2935 8.74024C45.893 8.33977 45.6715 7.83704 45.6204 7.22354Z" fill="#225E63"/>
</svg>
