<svg width="800" height="444" viewBox="0 0 800 444" fill="none" xmlns="http://www.w3.org/2000/svg">
<rect opacity="0.4" width="800" height="444" rx="20" fill="url(#paint0_linear)"/>
<path opacity="0.3" d="M315.997 250.622C355.232 261.549 399.849 264.217 442.129 258.162C484.41 252.108 521.696 237.713 547.537 217.467C573.378 197.221 586.149 172.398 583.641 147.291C581.133 122.185 563.503 98.3736 533.802 79.977C504.1 61.5804 464.195 49.7553 420.989 46.5472C377.783 43.3391 333.993 48.9497 297.195 62.4086C260.396 75.8675 232.903 96.3281 219.472 120.251C206.04 144.174 207.514 170.055 223.64 193.417L291.745 177.75C281.949 163.557 281.053 147.835 289.213 133.301C297.373 118.768 314.075 106.338 336.43 98.1611C358.786 89.9847 385.389 86.5762 411.637 88.5252C437.885 90.4741 462.128 97.658 480.171 108.834C498.215 120.01 508.925 134.476 510.449 149.728C511.973 164.981 504.214 180.061 488.516 192.361C472.817 204.66 450.166 213.405 424.48 217.083C398.794 220.761 371.689 219.141 347.853 212.502L315.997 250.622Z" fill="url(#paint1_linear)"/>
<g opacity="0.1" filter="url(#filter0_f)">
<rect width="168.398" height="280.215" rx="33.1199" transform="matrix(0.866044 -0.499967 0.866044 0.499967 211.228 121.422)" fill="#FF5A5A"/>
</g>
<g filter="url(#filter1_d)">
<path d="M239.741 129.8C227.86 122.941 227.86 111.82 239.741 104.961L328.556 53.6886C340.437 46.8297 359.7 46.8297 371.581 53.6886L571.234 168.949C583.115 175.807 583.115 186.928 571.234 193.787L526.827 219.423L482.42 245.06C470.539 251.918 451.276 251.918 439.395 245.06L239.741 129.8Z" fill="url(#paint2_linear)"/>
</g>
<rect width="119.9" height="29.6381" rx="8.5766" transform="matrix(0.866044 -0.499967 0.866044 0.499967 247.396 118.053)" fill="white" fill-opacity="0.3"/>
<circle opacity="0.3" r="4.71515" transform="matrix(0.866044 -0.499967 0.866044 0.499967 271.314 119.064)" fill="white"/>
<circle opacity="0.3" r="4.71515" transform="matrix(0.866044 -0.499967 0.866044 0.499967 298.732 103.235)" fill="white"/>
<circle opacity="0.3" r="4.71515" transform="matrix(0.866044 -0.499967 0.866044 0.499967 326.15 87.4067)" fill="white"/>
<circle opacity="0.3" r="4.71515" transform="matrix(0.866044 -0.499967 0.866044 0.499967 353.569 71.5773)" fill="white"/>
<rect width="120.318" height="18.606" rx="5.71773" transform="matrix(0.866044 -0.499967 0.866044 0.499967 415.021 215.75)" fill="#FF5555" fill-opacity="0.2"/>
<path fill-rule="evenodd" clip-rule="evenodd" d="M334.719 109.273C319.075 118.304 319.075 132.946 334.719 141.977L347.014 149.075C339.514 155.555 340.719 164.399 350.629 170.12L391.876 193.932C403.158 200.445 421.45 200.445 432.731 193.932L481.368 165.854C492.65 159.341 492.65 148.781 481.368 142.268L440.121 118.456C430.21 112.735 414.89 112.039 403.664 116.37L391.369 109.273C375.726 100.241 350.362 100.241 334.719 109.273ZM391.777 122.779L379.875 115.908C370.58 110.542 355.509 110.542 346.213 115.908C336.917 121.275 336.917 129.975 346.213 135.341L358.115 142.212L391.777 122.779Z" fill="url(#paint3_linear)" fill-opacity="0.3"/>
<g style="mix-blend-mode:soft-light">
<path d="M386.047 156.95C387.51 156.106 389.051 155.498 390.67 155.126C392.289 154.732 393.85 154.597 395.352 154.721C396.835 154.833 398.132 155.21 399.244 155.852C400.551 156.607 401.224 157.423 401.263 158.302C401.283 159.169 400.844 159.952 399.946 160.65C401.195 160.154 402.541 159.895 403.984 159.873C405.428 159.85 406.813 160.222 408.14 160.988C409.33 161.675 410.022 162.48 410.217 163.404C410.393 164.316 410.149 165.256 409.486 166.225C408.803 167.182 407.769 168.06 406.384 168.86C405.428 169.412 404.365 169.879 403.194 170.262C402.043 170.634 400.99 170.859 400.034 170.938L395.264 168.184C396.357 168.049 397.342 167.863 398.22 167.627C399.098 167.368 399.898 167.03 400.619 166.613C401.458 166.129 402.014 165.628 402.287 165.11C402.541 164.58 402.307 164.107 401.585 163.691C401.136 163.432 400.658 163.325 400.151 163.37C399.624 163.404 399.088 163.544 398.542 163.792C397.996 164.017 397.459 164.282 396.932 164.586L395.469 165.431L391.49 163.133L392.953 162.289C393.479 161.985 393.977 161.697 394.445 161.427C394.933 161.146 395.245 160.875 395.382 160.616C395.499 160.346 395.323 160.076 394.855 159.805C394.133 159.389 393.304 159.27 392.368 159.451C391.412 159.62 390.553 159.924 389.792 160.363C388.466 161.129 387.773 162.114 387.715 163.319L383.004 160.599C383.043 160.036 383.287 159.445 383.735 158.826C384.203 158.195 384.974 157.57 386.047 156.95ZM406.53 145.092C408.481 143.965 410.637 143.172 412.997 142.71C415.358 142.248 417.747 142.175 420.166 142.49C422.585 142.805 424.848 143.571 426.955 144.788C428.399 145.621 429.52 146.55 430.32 147.575C431.12 148.577 431.569 149.613 431.666 150.683C431.764 151.753 431.471 152.8 430.788 153.825C430.106 154.85 429.003 155.802 427.482 156.68C426.584 157.198 425.589 157.728 424.497 158.268C423.444 158.809 422.371 159.315 421.278 159.788C420.205 160.273 419.191 160.701 418.235 161.072L399.361 150.176C400.395 149.332 401.526 148.465 402.755 147.575C403.984 146.663 405.243 145.835 406.53 145.092ZM411.827 147.947C411.378 148.206 410.949 148.498 410.539 148.825C410.129 149.129 409.778 149.422 409.486 149.703L419.054 155.227C419.64 155.047 420.196 154.839 420.722 154.602C421.229 154.355 421.688 154.112 422.098 153.876C423.092 153.302 423.707 152.688 423.941 152.035C424.175 151.359 424.087 150.689 423.678 150.024C423.268 149.36 422.585 148.752 421.629 148.2C420.108 147.322 418.469 146.849 416.713 146.781C414.958 146.691 413.329 147.079 411.827 147.947ZM426.779 133.436C427.93 132.771 429.208 132.202 430.613 131.729C432.017 131.234 433.295 130.924 434.446 130.8L439.742 133.858C438.416 134.061 437.167 134.297 435.997 134.567C434.807 134.826 433.656 135.277 432.544 135.919C431.9 136.29 431.442 136.668 431.169 137.051C430.896 137.434 430.983 137.755 431.432 138.014C431.92 138.295 432.573 138.346 433.393 138.166C434.192 137.974 435.158 137.732 436.29 137.439L439.187 136.679C441.157 136.172 442.903 136.02 444.424 136.223C445.966 136.414 447.204 136.78 448.141 137.321C449.389 138.042 450.14 138.892 450.394 139.872C450.628 140.84 450.413 141.843 449.75 142.879C449.067 143.904 447.965 144.855 446.443 145.734C445.273 146.409 443.907 146.961 442.347 147.389C440.786 147.817 439.274 148.104 437.811 148.251L432.515 145.193C434.153 145.058 435.734 144.81 437.255 144.45C438.796 144.078 440.113 143.577 441.206 142.946C441.888 142.552 442.357 142.192 442.61 141.865C442.864 141.516 442.786 141.223 442.376 140.987C442.083 140.818 441.674 140.761 441.147 140.818C440.62 140.874 440.016 141.009 439.333 141.223L435.675 142.321C434.231 142.749 432.905 142.963 431.695 142.963C430.486 142.963 429.394 142.817 428.418 142.524C427.423 142.22 426.536 141.843 425.755 141.392C424.37 140.593 423.561 139.72 423.327 138.774C423.073 137.816 423.268 136.87 423.912 135.936C424.556 135.001 425.511 134.168 426.779 133.436Z" fill="url(#paint4_linear)"/>
</g>
<g filter="url(#filter2_d)">
<rect width="67.3593" height="67.3593" rx="12.42" transform="matrix(0.866044 -0.499967 0.866044 0.499967 229.097 170.468)" fill="url(#paint5_linear)"/>
</g>
<path d="M272.887 173.686C273.559 173.298 274.311 173.004 275.142 172.804C275.964 172.6 276.818 172.494 277.705 172.489C278.592 172.473 279.46 172.565 280.31 172.764C281.169 172.958 281.963 173.265 282.691 173.686C283.419 174.106 283.951 174.564 284.288 175.06C284.633 175.551 284.796 176.055 284.778 176.572C284.759 177.079 284.577 177.572 284.231 178.052C283.877 178.526 283.363 178.957 282.691 179.345C282.019 179.734 281.267 180.033 280.436 180.243C279.605 180.442 278.746 180.55 277.859 180.566C276.972 180.572 276.099 180.477 275.24 180.283C274.39 180.084 273.601 179.774 272.873 179.354C272.145 178.933 271.608 178.478 271.262 177.987C270.926 177.491 270.767 176.99 270.786 176.483C270.805 175.966 270.992 175.47 271.346 174.996C271.701 174.51 272.215 174.074 272.887 173.686ZM274.722 174.745C274.162 175.068 273.793 175.438 273.615 175.853C273.447 176.262 273.466 176.672 273.671 177.082C273.877 177.491 274.274 177.866 274.862 178.205C275.441 178.54 276.09 178.769 276.809 178.893C277.518 179.011 278.228 179.022 278.937 178.925C279.647 178.817 280.282 178.602 280.842 178.278C281.402 177.955 281.771 177.591 281.949 177.187C282.117 176.777 282.098 176.367 281.893 175.958C281.678 175.543 281.281 175.168 280.702 174.834C280.114 174.494 279.465 174.265 278.755 174.147C278.046 174.028 277.336 174.017 276.626 174.114C275.917 174.211 275.282 174.421 274.722 174.745ZM286.668 165.972L288.419 166.983L285.422 168.713L293.013 173.095L291.08 174.211L283.489 169.829L280.492 171.559L278.741 170.549L286.668 165.972ZM292.257 162.746C292.696 162.493 293.2 162.288 293.769 162.132C294.339 161.975 294.936 161.884 295.562 161.857C296.197 161.824 296.818 161.87 297.425 161.994C298.032 162.107 298.597 162.315 299.119 162.617C299.754 162.983 300.156 163.404 300.324 163.878C300.492 164.342 300.45 164.808 300.198 165.277C299.946 165.746 299.507 166.161 298.881 166.522C298.461 166.765 298.041 166.959 297.621 167.104C297.201 167.25 296.822 167.355 296.486 167.42L299.708 169.279L297.761 170.403L288.377 164.986L292.257 162.746ZM292.145 164.913L294.918 166.514C295.207 166.444 295.529 166.344 295.884 166.215C296.239 166.075 296.57 165.916 296.878 165.738C297.439 165.414 297.728 165.069 297.747 164.703C297.766 164.325 297.56 164.013 297.131 163.765C296.636 163.479 296.076 163.371 295.45 163.441C294.824 163.512 294.259 163.692 293.755 163.983L292.145 164.913Z" fill="url(#paint6_linear)"/>
<g filter="url(#filter3_d)">
<rect width="67.3593" height="67.3593" rx="12.42" transform="matrix(0.866044 -0.499967 0.866044 0.499967 469.337 216.429)" fill="white"/>
</g>
<g filter="url(#filter4_d)">
<path d="M512.901 218.842L526.724 221.777L524.441 223.095L521.976 222.497L518.265 224.64L519.301 226.063L517.018 227.381L511.934 219.4L512.901 218.842ZM515.604 220.953L517.298 223.289L519.651 221.931L515.604 220.953ZM524.749 212.083L526.5 213.094L523.503 214.824L531.094 219.206L529.161 220.322L521.57 215.94L518.573 217.67L516.822 216.659L524.749 212.083ZM535.758 205.647L545.211 211.105L543.265 212.229L537.55 208.93L537.774 211.841L537.214 212.164L532.144 212.051L537.858 215.35L535.912 216.473L526.458 211.016L527.116 210.636L535.295 210.733L535.099 206.027L535.758 205.647Z" fill="url(#paint7_linear)"/>
</g>
<g filter="url(#filter5_d)">
<rect width="67.3593" height="67.3593" rx="12.42" transform="matrix(0.866044 -0.499967 0.866044 0.499967 448.445 109.885)" fill="url(#paint8_linear)"/>
</g>
<path d="M481.208 117.439C481.749 117.127 482.319 116.884 482.916 116.711C483.514 116.539 484.065 116.42 484.569 116.356L486.488 117.463C485.946 117.539 485.395 117.636 484.835 117.754C484.275 117.873 483.752 118.073 483.266 118.353C483.024 118.493 482.818 118.655 482.65 118.838C482.491 119.016 482.407 119.194 482.398 119.372C482.398 119.544 482.515 119.698 482.748 119.832C483.056 120.01 483.425 120.067 483.855 120.002C484.284 119.938 484.774 119.838 485.325 119.703L486.95 119.315C487.884 119.099 488.705 119.018 489.415 119.072C490.124 119.126 490.736 119.301 491.25 119.598C491.81 119.921 492.141 120.301 492.244 120.738C492.347 121.164 492.249 121.603 491.95 122.056C491.66 122.503 491.189 122.916 490.535 123.293C489.984 123.611 489.363 123.862 488.673 124.045C487.982 124.228 487.314 124.349 486.67 124.409L484.751 123.301C485.461 123.236 486.166 123.12 486.866 122.953C487.566 122.786 488.196 122.541 488.757 122.218C489.149 121.991 489.41 121.754 489.541 121.506C489.662 121.253 489.569 121.037 489.261 120.859C489.018 120.719 488.705 120.673 488.322 120.722C487.94 120.76 487.561 120.827 487.188 120.924L485.185 121.433C484.177 121.692 483.318 121.768 482.608 121.66C481.899 121.541 481.268 121.323 480.717 121.005C480.148 120.676 479.807 120.301 479.695 119.881C479.583 119.45 479.662 119.021 479.933 118.595C480.195 118.164 480.619 117.779 481.208 117.439ZM493.42 110.599L495.171 111.61L492.174 113.34L499.765 117.722L497.832 118.838L490.241 114.456L487.244 116.186L485.493 115.175L493.42 110.599ZM498.224 107.745L512.048 110.68L509.765 111.998L507.3 111.399L503.588 113.542L504.625 114.965L502.342 116.283L497.258 108.303L498.224 107.745ZM500.927 109.855L502.622 112.192L504.975 110.833L500.927 109.855ZM510.073 100.985L511.824 101.996L508.827 103.726L516.418 108.109L514.485 109.224L506.894 104.842L503.897 106.572L502.146 105.562L510.073 100.985ZM524.527 101.454L526.277 102.465L521.165 105.416L519.415 104.405L520.997 103.492L515.115 100.096L513.532 101.01L511.782 99.9989L516.894 97.0478L518.644 98.0585L517.062 98.9721L522.944 102.368L524.527 101.454ZM523.322 93.094C523.91 92.7544 524.503 92.5092 525.101 92.3582C525.689 92.2019 526.282 92.113 526.88 92.0914L528.84 93.2234C528.448 93.2557 528.051 93.2962 527.65 93.3447C527.248 93.3932 526.842 93.4767 526.431 93.5953C526.03 93.7085 525.624 93.8837 525.213 94.1209C524.653 94.4443 524.279 94.8162 524.093 95.2366C523.906 95.6571 523.906 96.0775 524.093 96.498C524.279 96.9184 524.667 97.2984 525.255 97.638C525.834 97.9722 526.492 98.1959 527.23 98.3091C527.958 98.4169 528.686 98.4169 529.415 98.3091C530.134 98.1959 530.773 97.9776 531.333 97.6542C531.959 97.293 532.388 96.9373 532.622 96.5869C532.855 96.2258 533.005 95.8646 533.07 95.5035L534.961 96.595C534.933 96.9454 534.769 97.3092 534.471 97.6865C534.163 98.0585 533.714 98.4142 533.126 98.7538C532.454 99.1419 531.702 99.4411 530.871 99.6513C530.031 99.8561 529.167 99.9666 528.28 99.9828C527.384 99.9936 526.506 99.9019 525.647 99.7079C524.788 99.5138 523.995 99.2066 523.266 98.7861C522.538 98.3657 522.006 97.9075 521.67 97.4116C521.333 96.9157 521.179 96.4117 521.207 95.8997C521.226 95.3822 521.417 94.8836 521.782 94.4039C522.136 93.9187 522.65 93.4821 523.322 93.094Z" fill="url(#paint9_linear)"/>
<defs>
<filter id="filter0_f" x="182.49" y="1.38825" width="445.994" height="295.972" filterUnits="userSpaceOnUse" color-interpolation-filters="sRGB">
<feFlood flood-opacity="0" result="BackgroundImageFix"/>
<feBlend mode="normal" in="SourceGraphic" in2="BackgroundImageFix" result="shape"/>
<feGaussianBlur stdDeviation="22.77" result="effect1_foregroundBlur"/>
</filter>
<filter id="filter1_d" x="209.579" y="23.7505" width="391.818" height="244.163" filterUnits="userSpaceOnUse" color-interpolation-filters="sRGB">
<feFlood flood-opacity="0" result="BackgroundImageFix"/>
<feColorMatrix in="SourceAlpha" type="matrix" values="0 0 0 0 0 0 0 0 0 0 0 0 0 0 0 0 0 0 127 0"/>
<feOffset dy="-3.54199"/>
<feGaussianBlur stdDeviation="10.626"/>
<feColorMatrix type="matrix" values="0 0 0 0 0.0823529 0 0 0 0 0.0823529 0 0 0 0 0.0823529 0 0 0 0.05 0"/>
<feBlend mode="normal" in2="BackgroundImageFix" result="effect1_dropShadow"/>
<feBlend mode="normal" in="SourceGraphic" in2="effect1_dropShadow" result="shape"/>
</filter>
<filter id="filter2_d" x="219.673" y="128.843" width="135.52" height="91.5295" filterUnits="userSpaceOnUse" color-interpolation-filters="sRGB">
<feFlood flood-opacity="0" result="BackgroundImageFix"/>
<feColorMatrix in="SourceAlpha" type="matrix" values="0 0 0 0 0 0 0 0 0 0 0 0 0 0 0 0 0 0 127 0"/>
<feMorphology radius="2.6208" operator="dilate" in="SourceAlpha" result="effect1_dropShadow"/>
<feOffset dy="4.13999"/>
<feGaussianBlur stdDeviation="6.552"/>
<feColorMatrix type="matrix" values="0 0 0 0 0.0823529 0 0 0 0 0.0823529 0 0 0 0 0.0823529 0 0 0 0.1 0"/>
<feBlend mode="normal" in2="BackgroundImageFix" result="effect1_dropShadow"/>
<feBlend mode="normal" in="SourceGraphic" in2="effect1_dropShadow" result="shape"/>
</filter>
<filter id="filter3_d" x="459.913" y="174.804" width="135.52" height="91.5295" filterUnits="userSpaceOnUse" color-interpolation-filters="sRGB">
<feFlood flood-opacity="0" result="BackgroundImageFix"/>
<feColorMatrix in="SourceAlpha" type="matrix" values="0 0 0 0 0 0 0 0 0 0 0 0 0 0 0 0 0 0 127 0"/>
<feMorphology radius="2.6208" operator="dilate" in="SourceAlpha" result="effect1_dropShadow"/>
<feOffset dy="4.13999"/>
<feGaussianBlur stdDeviation="6.552"/>
<feColorMatrix type="matrix" values="0 0 0 0 0.0823529 0 0 0 0 0.0823529 0 0 0 0 0.0823529 0 0 0 0.1 0"/>
<feBlend mode="normal" in2="BackgroundImageFix" result="effect1_dropShadow"/>
<feBlend mode="normal" in="SourceGraphic" in2="effect1_dropShadow" result="shape"/>
</filter>
<filter id="filter4_d" x="496.209" y="194.062" width="64.7268" height="53.1832" filterUnits="userSpaceOnUse" color-interpolation-filters="sRGB">
<feFlood flood-opacity="0" result="BackgroundImageFix"/>
<feColorMatrix in="SourceAlpha" type="matrix" values="0 0 0 0 0 0 0 0 0 0 0 0 0 0 0 0 0 0 127 0"/>
<feMorphology radius="2.6208" operator="dilate" in="SourceAlpha" result="effect1_dropShadow"/>
<feOffset dy="4.13999"/>
<feGaussianBlur stdDeviation="6.552"/>
<feColorMatrix type="matrix" values="0 0 0 0 0.0823529 0 0 0 0 0.0823529 0 0 0 0 0.0823529 0 0 0 0.1 0"/>
<feBlend mode="normal" in2="BackgroundImageFix" result="effect1_dropShadow"/>
<feBlend mode="normal" in="SourceGraphic" in2="effect1_dropShadow" result="shape"/>
</filter>
<filter id="filter5_d" x="439.021" y="68.2607" width="135.52" height="91.5295" filterUnits="userSpaceOnUse" color-interpolation-filters="sRGB">
<feFlood flood-opacity="0" result="BackgroundImageFix"/>
<feColorMatrix in="SourceAlpha" type="matrix" values="0 0 0 0 0 0 0 0 0 0 0 0 0 0 0 0 0 0 127 0"/>
<feMorphology radius="2.6208" operator="dilate" in="SourceAlpha" result="effect1_dropShadow"/>
<feOffset dy="4.13999"/>
<feGaussianBlur stdDeviation="6.552"/>
<feColorMatrix type="matrix" values="0 0 0 0 0.0823529 0 0 0 0 0.0823529 0 0 0 0 0.0823529 0 0 0 0.1 0"/>
<feBlend mode="normal" in2="BackgroundImageFix" result="effect1_dropShadow"/>
<feBlend mode="normal" in="SourceGraphic" in2="effect1_dropShadow" result="shape"/>
</filter>
<linearGradient id="paint0_linear" x1="123.374" y1="545.829" x2="276.811" y2="-328.538" gradientUnits="userSpaceOnUse">
<stop offset="0.207433" stop-color="#FBFBFB" stop-opacity="0"/>
<stop offset="1" stop-color="#59A2FF"/>
</linearGradient>
<linearGradient id="paint1_linear" x1="113.154" y1="211.993" x2="563.356" y2="-193.165" gradientUnits="userSpaceOnUse">
<stop offset="0.207433" stop-color="#FBFBFB" stop-opacity="0"/>
<stop offset="1" stop-color="#599CFF"/>
</linearGradient>
<linearGradient id="paint2_linear" x1="284.149" y1="79.325" x2="405.472" y2="289.481" gradientUnits="userSpaceOnUse">
<stop stop-color="#FF5353"/>
<stop offset="0.552383" stop-color="#FFBABA"/>
<stop offset="1" stop-color="white"/>
</linearGradient>
<linearGradient id="paint3_linear" x1="334.72" y1="109.272" x2="416.224" y2="266.367" gradientUnits="userSpaceOnUse">
<stop stop-color="white"/>
<stop offset="1" stop-color="white"/>
</linearGradient>
<linearGradient id="paint4_linear" x1="398.141" y1="140.114" x2="416.242" y2="171.468" gradientUnits="userSpaceOnUse">
<stop stop-color="#FAFAFA"/>
<stop offset="1" stop-color="white" stop-opacity="0"/>
</linearGradient>
<linearGradient id="paint5_linear" x1="33.6796" y1="0" x2="33.6796" y2="67.3593" gradientUnits="userSpaceOnUse">
<stop stop-color="#FF7777"/>
<stop offset="1" stop-color="#FFDDDD"/>
</linearGradient>
<linearGradient id="paint6_linear" x1="277.483" y1="166.111" x2="285.903" y2="180.697" gradientUnits="userSpaceOnUse">
<stop stop-color="#FAFAFA"/>
<stop offset="1" stop-color="white" stop-opacity="0"/>
</linearGradient>
<linearGradient id="paint7_linear" x1="517.888" y1="210.879" x2="526.309" y2="225.466" gradientUnits="userSpaceOnUse">
<stop stop-color="#FF7777"/>
<stop offset="1" stop-color="#FFDDDD"/>
</linearGradient>
<linearGradient id="paint8_linear" x1="33.6796" y1="0" x2="33.6796" y2="67.3593" gradientUnits="userSpaceOnUse">
<stop stop-color="#FF7777"/>
<stop offset="1" stop-color="#FFDDDD"/>
</linearGradient>
<linearGradient id="paint9_linear" x1="497.715" y1="102.955" x2="506.136" y2="117.541" gradientUnits="userSpaceOnUse">
<stop stop-color="white"/>
<stop offset="1" stop-color="white" stop-opacity="0"/>
</linearGradient>
</defs>
</svg>
