<svg width="535" height="305" viewBox="0 0 535 305" fill="none" xmlns="http://www.w3.org/2000/svg">
<path opacity="0.3" d="M182.997 249.622C222.232 260.549 266.849 263.217 309.129 257.162C351.41 251.108 388.696 236.713 414.537 216.467C440.378 196.221 453.149 171.398 450.641 146.291C448.133 121.185 430.503 97.3736 400.802 78.977C371.1 60.5804 331.195 48.7553 287.989 45.5472C244.783 42.3391 200.993 47.9497 164.195 61.4086C127.396 74.8675 99.9033 95.3281 86.4716 119.251C73.04 143.174 74.5144 169.055 90.6399 192.417L158.745 176.75C148.949 162.557 148.053 146.835 156.213 132.301C164.373 117.768 181.075 105.338 203.43 97.1611C225.786 88.9847 252.389 85.5762 278.637 87.5252C304.885 89.4741 329.128 96.658 347.171 107.834C365.215 119.01 375.925 133.476 377.449 148.728C378.973 163.981 371.214 179.061 355.516 191.361C339.817 203.66 317.166 212.405 291.48 216.083C265.794 219.761 238.689 218.141 214.853 211.502L182.997 249.622Z" fill="url(#paint0_linear)"/>
<g opacity="0.1" filter="url(#filter0_f)">
<rect width="168.398" height="280.215" rx="33.1199" transform="matrix(0.866044 -0.499967 0.866044 0.499967 78.2276 120.422)" fill="#FF5A5A"/>
</g>
<g filter="url(#filter1_d)">
<path d="M106.741 128.8C94.8603 121.941 94.8603 110.82 106.741 103.961L195.556 52.6886C207.437 45.8297 226.7 45.8297 238.581 52.6886L438.234 167.949C450.115 174.807 450.115 185.928 438.234 192.787L393.827 218.423L349.42 244.06C337.539 250.918 318.276 250.918 306.395 244.06L106.741 128.8Z" fill="url(#paint1_linear)"/>
</g>
<rect width="119.9" height="29.6381" rx="8.5766" transform="matrix(0.866044 -0.499967 0.866044 0.499967 114.396 117.053)" fill="white" fill-opacity="0.3"/>
<circle opacity="0.3" r="4.71515" transform="matrix(0.866044 -0.499967 0.866044 0.499967 138.314 118.064)" fill="white"/>
<circle opacity="0.3" r="4.71515" transform="matrix(0.866044 -0.499967 0.866044 0.499967 165.732 102.235)" fill="white"/>
<circle opacity="0.3" r="4.71515" transform="matrix(0.866044 -0.499967 0.866044 0.499967 193.15 86.4067)" fill="white"/>
<circle opacity="0.3" r="4.71515" transform="matrix(0.866044 -0.499967 0.866044 0.499967 220.569 70.5773)" fill="white"/>
<rect width="120.318" height="18.606" rx="5.71773" transform="matrix(0.866044 -0.499967 0.866044 0.499967 282.021 214.75)" fill="#FF5555" fill-opacity="0.2"/>
<path fill-rule="evenodd" clip-rule="evenodd" d="M201.719 108.273C186.075 117.304 186.075 131.946 201.719 140.977L214.014 148.075C206.514 154.555 207.719 163.399 217.629 169.12L258.876 192.932C270.158 199.445 288.45 199.445 299.731 192.932L348.368 164.854C359.65 158.341 359.65 147.781 348.368 141.268L307.121 117.456C297.21 111.735 281.89 111.039 270.664 115.37L258.369 108.273C242.726 99.2414 217.362 99.2414 201.719 108.273ZM258.777 121.779L246.875 114.908C237.58 109.542 222.509 109.542 213.213 114.908C203.917 120.275 203.917 128.975 213.213 134.341L225.115 141.212L258.777 121.779Z" fill="url(#paint2_linear)" fill-opacity="0.3"/>
<g style="mix-blend-mode:soft-light">
<path d="M253.047 155.95C254.51 155.106 256.051 154.498 257.67 154.126C259.289 153.732 260.85 153.597 262.352 153.721C263.835 153.833 265.132 154.21 266.244 154.852C267.551 155.607 268.224 156.423 268.263 157.302C268.283 158.169 267.844 158.952 266.946 159.65C268.195 159.154 269.541 158.895 270.984 158.873C272.428 158.85 273.813 159.222 275.14 159.988C276.33 160.675 277.022 161.48 277.217 162.404C277.393 163.316 277.149 164.256 276.486 165.225C275.803 166.182 274.769 167.06 273.384 167.86C272.428 168.412 271.365 168.879 270.194 169.262C269.043 169.634 267.99 169.859 267.034 169.938L262.264 167.184C263.357 167.049 264.342 166.863 265.22 166.627C266.098 166.368 266.898 166.03 267.619 165.613C268.458 165.129 269.014 164.628 269.287 164.11C269.541 163.58 269.307 163.107 268.585 162.691C268.136 162.432 267.658 162.325 267.151 162.37C266.624 162.404 266.088 162.544 265.542 162.792C264.996 163.017 264.459 163.282 263.932 163.586L262.469 164.431L258.49 162.133L259.953 161.289C260.479 160.985 260.977 160.697 261.445 160.427C261.933 160.146 262.245 159.875 262.382 159.616C262.499 159.346 262.323 159.076 261.855 158.805C261.133 158.389 260.304 158.27 259.368 158.451C258.412 158.62 257.553 158.924 256.792 159.363C255.466 160.129 254.773 161.114 254.715 162.319L250.004 159.599C250.043 159.036 250.287 158.445 250.735 157.826C251.203 157.195 251.974 156.57 253.047 155.95ZM273.53 144.092C275.481 142.965 277.637 142.172 279.997 141.71C282.358 141.248 284.747 141.175 287.166 141.49C289.585 141.805 291.848 142.571 293.955 143.788C295.399 144.621 296.52 145.55 297.32 146.575C298.12 147.577 298.569 148.613 298.666 149.683C298.764 150.753 298.471 151.8 297.788 152.825C297.106 153.85 296.003 154.802 294.482 155.68C293.584 156.198 292.589 156.728 291.497 157.268C290.444 157.809 289.371 158.315 288.278 158.788C287.205 159.273 286.191 159.701 285.235 160.072L266.361 149.176C267.395 148.332 268.526 147.465 269.755 146.575C270.984 145.663 272.243 144.835 273.53 144.092ZM278.827 146.947C278.378 147.206 277.949 147.498 277.539 147.825C277.129 148.129 276.778 148.422 276.486 148.703L286.054 154.227C286.64 154.047 287.196 153.839 287.722 153.602C288.229 153.355 288.688 153.112 289.098 152.876C290.092 152.302 290.707 151.688 290.941 151.035C291.175 150.359 291.087 149.689 290.678 149.024C290.268 148.36 289.585 147.752 288.629 147.2C287.108 146.322 285.469 145.849 283.713 145.781C281.958 145.691 280.329 146.079 278.827 146.947ZM293.779 132.436C294.93 131.771 296.208 131.202 297.613 130.729C299.017 130.234 300.295 129.924 301.446 129.8L306.742 132.858C305.416 133.061 304.167 133.297 302.997 133.567C301.807 133.826 300.656 134.277 299.544 134.919C298.9 135.29 298.442 135.668 298.169 136.051C297.896 136.434 297.983 136.755 298.432 137.014C298.92 137.295 299.573 137.346 300.393 137.166C301.192 136.974 302.158 136.732 303.29 136.439L306.187 135.679C308.157 135.172 309.903 135.02 311.424 135.223C312.966 135.414 314.204 135.78 315.141 136.321C316.389 137.042 317.14 137.892 317.394 138.872C317.628 139.84 317.413 140.843 316.75 141.879C316.067 142.904 314.965 143.855 313.443 144.734C312.273 145.409 310.907 145.961 309.347 146.389C307.786 146.817 306.274 147.104 304.811 147.251L299.515 144.193C301.153 144.058 302.734 143.81 304.255 143.45C305.796 143.078 307.113 142.577 308.206 141.946C308.888 141.552 309.357 141.192 309.61 140.865C309.864 140.516 309.786 140.223 309.376 139.987C309.083 139.818 308.674 139.761 308.147 139.818C307.62 139.874 307.016 140.009 306.333 140.223L302.675 141.321C301.231 141.749 299.905 141.963 298.695 141.963C297.486 141.963 296.394 141.817 295.418 141.524C294.423 141.22 293.536 140.843 292.755 140.392C291.37 139.593 290.561 138.72 290.327 137.774C290.073 136.816 290.268 135.87 290.912 134.936C291.556 134.001 292.511 133.168 293.779 132.436Z" fill="url(#paint3_linear)"/>
</g>
<g filter="url(#filter2_d)">
<rect width="67.3593" height="67.3593" rx="12.42" transform="matrix(0.866044 -0.499967 0.866044 0.499967 96.0967 169.468)" fill="url(#paint4_linear)"/>
</g>
<path d="M139.887 172.686C140.559 172.298 141.311 172.004 142.142 171.804C142.964 171.6 143.818 171.494 144.705 171.489C145.592 171.473 146.46 171.565 147.31 171.764C148.169 171.958 148.963 172.265 149.691 172.686C150.419 173.106 150.951 173.564 151.288 174.06C151.633 174.551 151.796 175.055 151.778 175.572C151.759 176.079 151.577 176.572 151.231 177.052C150.877 177.526 150.363 177.957 149.691 178.345C149.019 178.734 148.267 179.033 147.436 179.243C146.605 179.442 145.746 179.55 144.859 179.566C143.972 179.572 143.099 179.477 142.24 179.283C141.39 179.084 140.601 178.774 139.873 178.354C139.145 177.933 138.608 177.478 138.262 176.987C137.926 176.491 137.767 175.99 137.786 175.483C137.805 174.966 137.992 174.47 138.346 173.996C138.701 173.51 139.215 173.074 139.887 172.686ZM141.722 173.745C141.162 174.068 140.793 174.438 140.615 174.853C140.447 175.262 140.466 175.672 140.671 176.082C140.877 176.491 141.274 176.866 141.862 177.205C142.441 177.54 143.09 177.769 143.809 177.893C144.518 178.011 145.228 178.022 145.937 177.925C146.647 177.817 147.282 177.602 147.842 177.278C148.402 176.955 148.771 176.591 148.949 176.187C149.117 175.777 149.098 175.367 148.893 174.958C148.678 174.543 148.281 174.168 147.702 173.834C147.114 173.494 146.465 173.265 145.755 173.147C145.046 173.028 144.336 173.017 143.626 173.114C142.917 173.211 142.282 173.421 141.722 173.745ZM153.668 164.972L155.419 165.983L152.422 167.713L160.013 172.095L158.08 173.211L150.489 168.829L147.492 170.559L145.741 169.549L153.668 164.972ZM159.257 161.746C159.696 161.493 160.2 161.288 160.769 161.132C161.339 160.975 161.936 160.884 162.562 160.857C163.197 160.824 163.818 160.87 164.425 160.994C165.032 161.107 165.597 161.315 166.119 161.617C166.754 161.983 167.156 162.404 167.324 162.878C167.492 163.342 167.45 163.808 167.198 164.277C166.946 164.746 166.507 165.161 165.881 165.522C165.461 165.765 165.041 165.959 164.621 166.104C164.201 166.25 163.822 166.355 163.486 166.42L166.708 168.279L164.761 169.403L155.377 163.986L159.257 161.746ZM159.145 163.913L161.918 165.514C162.207 165.444 162.529 165.344 162.884 165.215C163.239 165.075 163.57 164.916 163.878 164.738C164.439 164.414 164.728 164.069 164.747 163.703C164.766 163.325 164.56 163.013 164.131 162.765C163.636 162.479 163.076 162.371 162.45 162.441C161.824 162.512 161.259 162.692 160.755 162.983L159.145 163.913Z" fill="url(#paint5_linear)"/>
<g filter="url(#filter3_d)">
<rect width="67.3593" height="67.3593" rx="12.42" transform="matrix(0.866044 -0.499967 0.866044 0.499967 336.337 215.429)" fill="white"/>
</g>
<g filter="url(#filter4_d)">
<path d="M379.901 217.842L393.724 220.777L391.441 222.095L388.976 221.497L385.265 223.64L386.301 225.063L384.018 226.381L378.934 218.4L379.901 217.842ZM382.604 219.953L384.298 222.289L386.651 220.931L382.604 219.953ZM391.749 211.083L393.5 212.094L390.503 213.824L398.094 218.206L396.161 219.322L388.57 214.94L385.573 216.67L383.822 215.659L391.749 211.083ZM402.758 204.647L412.211 210.105L410.265 211.229L404.55 207.93L404.774 210.841L404.214 211.164L399.144 211.051L404.858 214.35L402.912 215.473L393.458 210.016L394.116 209.636L402.295 209.733L402.099 205.027L402.758 204.647Z" fill="url(#paint6_linear)"/>
</g>
<g filter="url(#filter5_d)">
<rect width="67.3593" height="67.3593" rx="12.42" transform="matrix(0.866044 -0.499967 0.866044 0.499967 315.445 108.885)" fill="url(#paint7_linear)"/>
</g>
<path d="M348.208 116.439C348.749 116.127 349.319 115.884 349.916 115.711C350.514 115.539 351.065 115.42 351.569 115.356L353.488 116.463C352.946 116.539 352.395 116.636 351.835 116.754C351.275 116.873 350.752 117.073 350.267 117.353C350.024 117.493 349.818 117.655 349.65 117.838C349.492 118.016 349.408 118.194 349.398 118.372C349.398 118.544 349.515 118.698 349.748 118.832C350.056 119.01 350.425 119.067 350.855 119.002C351.284 118.938 351.774 118.838 352.325 118.703L353.95 118.315C354.884 118.099 355.705 118.018 356.415 118.072C357.125 118.126 357.736 118.301 358.25 118.598C358.81 118.921 359.141 119.301 359.244 119.738C359.347 120.164 359.249 120.603 358.95 121.056C358.661 121.503 358.189 121.916 357.535 122.293C356.985 122.611 356.364 122.862 355.673 123.045C354.982 123.228 354.314 123.349 353.67 123.409L351.751 122.301C352.461 122.236 353.166 122.12 353.866 121.953C354.566 121.786 355.196 121.541 355.757 121.218C356.149 120.991 356.41 120.754 356.541 120.506C356.662 120.253 356.569 120.037 356.261 119.859C356.018 119.719 355.705 119.673 355.323 119.722C354.94 119.76 354.562 119.827 354.188 119.924L352.185 120.433C351.177 120.692 350.318 120.768 349.608 120.66C348.899 120.541 348.268 120.323 347.718 120.005C347.148 119.676 346.807 119.301 346.695 118.881C346.583 118.45 346.662 118.021 346.933 117.595C347.195 117.164 347.619 116.779 348.208 116.439ZM360.421 109.599L362.171 110.61L359.174 112.34L366.765 116.722L364.832 117.838L357.241 113.456L354.244 115.186L352.493 114.175L360.421 109.599ZM365.224 106.745L379.048 109.68L376.765 110.998L374.3 110.399L370.589 112.542L371.625 113.965L369.342 115.283L364.258 107.303L365.224 106.745ZM367.928 108.855L369.622 111.192L371.975 109.833L367.928 108.855ZM377.073 99.9854L378.824 100.996L375.827 102.726L383.418 107.109L381.485 108.224L373.894 103.842L370.897 105.572L369.146 104.562L377.073 99.9854ZM391.527 100.454L393.278 101.465L388.166 104.416L386.415 103.405L387.997 102.492L382.115 99.096L380.532 100.01L378.782 98.9989L383.894 96.0478L385.645 97.0585L384.062 97.9721L389.944 101.368L391.527 100.454ZM390.322 92.094C390.911 91.7544 391.503 91.5092 392.101 91.3582C392.689 91.2019 393.282 91.113 393.88 91.0914L395.841 92.2234C395.448 92.2557 395.052 92.2962 394.65 92.3447C394.249 92.3932 393.842 92.4767 393.432 92.5953C393.03 92.7085 392.624 92.8837 392.213 93.1209C391.653 93.4443 391.279 93.8162 391.093 94.2366C390.906 94.6571 390.906 95.0775 391.093 95.498C391.279 95.9184 391.667 96.2984 392.255 96.638C392.834 96.9722 393.492 97.1959 394.23 97.3091C394.958 97.4169 395.686 97.4169 396.415 97.3091C397.134 97.1959 397.773 96.9776 398.334 96.6542C398.959 96.293 399.389 95.9373 399.622 95.5869C399.855 95.2258 400.005 94.8646 400.07 94.5035L401.961 95.595C401.933 95.9454 401.77 96.3092 401.471 96.6865C401.163 97.0585 400.714 97.4142 400.126 97.7538C399.454 98.1419 398.702 98.4411 397.871 98.6513C397.031 98.8561 396.167 98.9666 395.28 98.9828C394.384 98.9936 393.506 98.9019 392.647 98.7079C391.788 98.5138 390.995 98.2066 390.266 97.7861C389.538 97.3657 389.006 96.9075 388.67 96.4116C388.334 95.9157 388.18 95.4117 388.208 94.8997C388.226 94.3822 388.418 93.8836 388.782 93.4039C389.137 92.9187 389.65 92.4821 390.322 92.094Z" fill="url(#paint8_linear)"/>
<defs>
<filter id="filter0_f" x="49.49" y="0.388248" width="445.994" height="295.972" filterUnits="userSpaceOnUse" color-interpolation-filters="sRGB">
<feFlood flood-opacity="0" result="BackgroundImageFix"/>
<feBlend mode="normal" in="SourceGraphic" in2="BackgroundImageFix" result="shape"/>
<feGaussianBlur stdDeviation="22.77" result="effect1_foregroundBlur"/>
</filter>
<filter id="filter1_d" x="76.5786" y="22.7505" width="391.818" height="244.163" filterUnits="userSpaceOnUse" color-interpolation-filters="sRGB">
<feFlood flood-opacity="0" result="BackgroundImageFix"/>
<feColorMatrix in="SourceAlpha" type="matrix" values="0 0 0 0 0 0 0 0 0 0 0 0 0 0 0 0 0 0 127 0"/>
<feOffset dy="-3.54199"/>
<feGaussianBlur stdDeviation="10.626"/>
<feColorMatrix type="matrix" values="0 0 0 0 0.0823529 0 0 0 0 0.0823529 0 0 0 0 0.0823529 0 0 0 0.05 0"/>
<feBlend mode="normal" in2="BackgroundImageFix" result="effect1_dropShadow"/>
<feBlend mode="normal" in="SourceGraphic" in2="effect1_dropShadow" result="shape"/>
</filter>
<filter id="filter2_d" x="86.6727" y="127.843" width="135.52" height="91.5295" filterUnits="userSpaceOnUse" color-interpolation-filters="sRGB">
<feFlood flood-opacity="0" result="BackgroundImageFix"/>
<feColorMatrix in="SourceAlpha" type="matrix" values="0 0 0 0 0 0 0 0 0 0 0 0 0 0 0 0 0 0 127 0"/>
<feMorphology radius="2.6208" operator="dilate" in="SourceAlpha" result="effect1_dropShadow"/>
<feOffset dy="4.13999"/>
<feGaussianBlur stdDeviation="6.552"/>
<feColorMatrix type="matrix" values="0 0 0 0 0.0823529 0 0 0 0 0.0823529 0 0 0 0 0.0823529 0 0 0 0.1 0"/>
<feBlend mode="normal" in2="BackgroundImageFix" result="effect1_dropShadow"/>
<feBlend mode="normal" in="SourceGraphic" in2="effect1_dropShadow" result="shape"/>
</filter>
<filter id="filter3_d" x="326.913" y="173.804" width="135.52" height="91.5295" filterUnits="userSpaceOnUse" color-interpolation-filters="sRGB">
<feFlood flood-opacity="0" result="BackgroundImageFix"/>
<feColorMatrix in="SourceAlpha" type="matrix" values="0 0 0 0 0 0 0 0 0 0 0 0 0 0 0 0 0 0 127 0"/>
<feMorphology radius="2.6208" operator="dilate" in="SourceAlpha" result="effect1_dropShadow"/>
<feOffset dy="4.13999"/>
<feGaussianBlur stdDeviation="6.552"/>
<feColorMatrix type="matrix" values="0 0 0 0 0.0823529 0 0 0 0 0.0823529 0 0 0 0 0.0823529 0 0 0 0.1 0"/>
<feBlend mode="normal" in2="BackgroundImageFix" result="effect1_dropShadow"/>
<feBlend mode="normal" in="SourceGraphic" in2="effect1_dropShadow" result="shape"/>
</filter>
<filter id="filter4_d" x="363.209" y="193.062" width="64.7268" height="53.1832" filterUnits="userSpaceOnUse" color-interpolation-filters="sRGB">
<feFlood flood-opacity="0" result="BackgroundImageFix"/>
<feColorMatrix in="SourceAlpha" type="matrix" values="0 0 0 0 0 0 0 0 0 0 0 0 0 0 0 0 0 0 127 0"/>
<feMorphology radius="2.6208" operator="dilate" in="SourceAlpha" result="effect1_dropShadow"/>
<feOffset dy="4.13999"/>
<feGaussianBlur stdDeviation="6.552"/>
<feColorMatrix type="matrix" values="0 0 0 0 0.0823529 0 0 0 0 0.0823529 0 0 0 0 0.0823529 0 0 0 0.1 0"/>
<feBlend mode="normal" in2="BackgroundImageFix" result="effect1_dropShadow"/>
<feBlend mode="normal" in="SourceGraphic" in2="effect1_dropShadow" result="shape"/>
</filter>
<filter id="filter5_d" x="306.021" y="67.2607" width="135.52" height="91.5295" filterUnits="userSpaceOnUse" color-interpolation-filters="sRGB">
<feFlood flood-opacity="0" result="BackgroundImageFix"/>
<feColorMatrix in="SourceAlpha" type="matrix" values="0 0 0 0 0 0 0 0 0 0 0 0 0 0 0 0 0 0 127 0"/>
<feMorphology radius="2.6208" operator="dilate" in="SourceAlpha" result="effect1_dropShadow"/>
<feOffset dy="4.13999"/>
<feGaussianBlur stdDeviation="6.552"/>
<feColorMatrix type="matrix" values="0 0 0 0 0.0823529 0 0 0 0 0.0823529 0 0 0 0 0.0823529 0 0 0 0.1 0"/>
<feBlend mode="normal" in2="BackgroundImageFix" result="effect1_dropShadow"/>
<feBlend mode="normal" in="SourceGraphic" in2="effect1_dropShadow" result="shape"/>
</filter>
<linearGradient id="paint0_linear" x1="-19.8458" y1="210.993" x2="430.356" y2="-194.165" gradientUnits="userSpaceOnUse">
<stop offset="0.207433" stop-color="#FBFBFB" stop-opacity="0"/>
<stop offset="1" stop-color="#599CFF"/>
</linearGradient>
<linearGradient id="paint1_linear" x1="151.149" y1="78.325" x2="272.472" y2="288.481" gradientUnits="userSpaceOnUse">
<stop stop-color="#FF5353"/>
<stop offset="0.552383" stop-color="#FFBABA"/>
<stop offset="1" stop-color="white"/>
</linearGradient>
<linearGradient id="paint2_linear" x1="201.72" y1="108.272" x2="283.224" y2="265.367" gradientUnits="userSpaceOnUse">
<stop stop-color="white"/>
<stop offset="1" stop-color="white"/>
</linearGradient>
<linearGradient id="paint3_linear" x1="265.141" y1="139.114" x2="283.242" y2="170.468" gradientUnits="userSpaceOnUse">
<stop stop-color="#FAFAFA"/>
<stop offset="1" stop-color="white" stop-opacity="0"/>
</linearGradient>
<linearGradient id="paint4_linear" x1="33.6796" y1="0" x2="33.6796" y2="67.3593" gradientUnits="userSpaceOnUse">
<stop stop-color="#FF7777"/>
<stop offset="1" stop-color="#FFDDDD"/>
</linearGradient>
<linearGradient id="paint5_linear" x1="144.483" y1="165.111" x2="152.903" y2="179.697" gradientUnits="userSpaceOnUse">
<stop stop-color="#FAFAFA"/>
<stop offset="1" stop-color="white" stop-opacity="0"/>
</linearGradient>
<linearGradient id="paint6_linear" x1="384.888" y1="209.879" x2="393.309" y2="224.466" gradientUnits="userSpaceOnUse">
<stop stop-color="#FF7777"/>
<stop offset="1" stop-color="#FFDDDD"/>
</linearGradient>
<linearGradient id="paint7_linear" x1="33.6796" y1="0" x2="33.6796" y2="67.3593" gradientUnits="userSpaceOnUse">
<stop stop-color="#FF7777"/>
<stop offset="1" stop-color="#FFDDDD"/>
</linearGradient>
<linearGradient id="paint8_linear" x1="364.715" y1="101.955" x2="373.136" y2="116.541" gradientUnits="userSpaceOnUse">
<stop stop-color="white"/>
<stop offset="1" stop-color="white" stop-opacity="0"/>
</linearGradient>
</defs>
</svg>
