<svg width="336" height="223" viewBox="0 0 336 223" fill="none" xmlns="http://www.w3.org/2000/svg">
<rect opacity="0.4" x="0.870361" width="334.259" height="222.84" rx="20" fill="url(#paint0_linear)"/>
<path opacity="0.3" d="M117.804 150.318C140.959 156.767 167.29 158.341 192.242 154.768C217.195 151.195 239.2 142.699 254.45 130.751C269.701 118.803 277.238 104.153 275.757 89.3359C274.277 74.5188 263.873 60.4664 246.344 49.6094C228.816 38.7524 205.265 31.7737 179.766 29.8803C154.268 27.987 128.424 31.2982 106.707 39.2412C84.9901 47.1841 68.7648 59.2592 60.8379 73.3778C52.911 87.4963 53.7812 102.77 63.2979 116.558L103.491 107.311C97.7097 98.9355 97.181 89.6565 101.997 81.0793C106.812 72.5021 116.669 65.1664 129.863 60.341C143.056 55.5156 158.756 53.504 174.247 54.6542C189.738 55.8044 204.045 60.0441 214.694 66.6398C225.342 73.2355 231.663 81.7725 232.562 90.774C233.462 99.7755 228.883 108.675 219.618 115.934C210.353 123.193 196.985 128.354 181.826 130.525C166.667 132.695 150.671 131.739 136.604 127.821L117.804 150.318Z" fill="url(#paint1_linear)"/>
<g opacity="0.1" filter="url(#filter0_f)">
<rect width="99.3826" height="165.373" rx="19.5462" transform="matrix(0.866044 -0.499967 0.866044 0.499967 55.9725 74.0686)" fill="#FF5A5A"/>
</g>
<g filter="url(#filter1_d)">
<path d="M72.8003 79.0129C65.7885 74.965 65.7885 68.4021 72.8003 64.3542L125.215 34.0949C132.227 30.047 143.596 30.047 150.607 34.0949L268.435 102.117C275.447 106.165 275.447 112.728 268.435 116.776L242.228 131.905L216.02 147.035C209.009 151.083 197.64 151.083 190.628 147.035L72.8003 79.0129Z" fill="url(#paint2_linear)"/>
</g>
<rect width="70.7604" height="17.4913" rx="5.0616" transform="matrix(0.866044 -0.499967 0.866044 0.499967 77.3179 72.0806)" fill="white" fill-opacity="0.3"/>
<circle opacity="0.3" r="2.78271" transform="matrix(0.866044 -0.499967 0.866044 0.499967 91.4333 72.6769)" fill="white"/>
<circle opacity="0.3" r="2.78271" transform="matrix(0.866044 -0.499967 0.866044 0.499967 107.615 63.3355)" fill="white"/>
<circle opacity="0.3" r="2.78271" transform="matrix(0.866044 -0.499967 0.866044 0.499967 123.796 53.9941)" fill="white"/>
<circle opacity="0.3" r="2.78271" transform="matrix(0.866044 -0.499967 0.866044 0.499967 139.977 44.6522)" fill="white"/>
<rect width="71.0076" height="10.9806" rx="3.3744" transform="matrix(0.866044 -0.499967 0.866044 0.499967 176.244 129.737)" fill="#FF5555" fill-opacity="0.2"/>
<path fill-rule="evenodd" clip-rule="evenodd" d="M128.852 66.8986C119.62 72.2284 119.62 80.8697 128.852 86.1996L136.109 90.3886C131.682 94.213 132.394 99.4321 138.242 102.808L162.585 116.862C169.243 120.705 180.038 120.705 186.696 116.862L215.4 100.291C222.058 96.4472 222.058 90.2153 215.4 86.3715L191.057 72.3185C185.208 68.9419 176.167 68.5315 169.542 71.0874L162.286 66.8985C153.053 61.5687 138.085 61.5687 128.852 66.8986ZM162.526 74.8698L155.502 70.8147C150.016 67.6477 141.122 67.6477 135.636 70.8147C130.15 73.9817 130.15 79.1164 135.636 82.2834L142.66 86.3385L162.526 74.8698Z" fill="url(#paint3_linear)" fill-opacity="0.3"/>
<g style="mix-blend-mode:soft-light">
<path d="M158.733 94.7987C159.596 94.3002 160.506 93.9413 161.461 93.722C162.417 93.4893 163.338 93.4096 164.225 93.4827C165.1 93.5491 165.865 93.7718 166.521 94.1506C167.293 94.596 167.69 95.0778 167.713 95.5962C167.724 96.108 167.465 96.5699 166.936 96.982C167.673 96.6896 168.467 96.5367 169.319 96.5234C170.171 96.5101 170.988 96.7294 171.771 97.1814C172.474 97.5868 172.882 98.062 172.997 98.607C173.101 99.1454 172.957 99.7004 172.566 100.272C172.163 100.837 171.552 101.355 170.735 101.827C170.171 102.153 169.543 102.429 168.853 102.655C168.173 102.874 167.552 103.007 166.988 103.053L164.173 101.428C164.817 101.349 165.399 101.239 165.917 101.099C166.435 100.947 166.907 100.747 167.333 100.501C167.828 100.215 168.156 99.9197 168.317 99.614C168.467 99.3016 168.329 99.0224 167.903 98.7765C167.638 98.6237 167.356 98.5605 167.057 98.5871C166.746 98.607 166.429 98.6901 166.107 98.8363C165.785 98.9693 165.468 99.1255 165.157 99.3049L164.294 99.8034L161.945 98.4475L162.808 97.949C163.119 97.7696 163.413 97.6001 163.689 97.4406C163.977 97.2744 164.161 97.1149 164.242 96.9621C164.311 96.8025 164.207 96.643 163.931 96.4835C163.505 96.2376 163.016 96.1678 162.463 96.2742C161.899 96.3739 161.392 96.5533 160.943 96.8125C160.161 97.2645 159.752 97.846 159.717 98.5572L156.937 96.9521C156.96 96.6198 157.104 96.2708 157.369 95.9053C157.645 95.5331 158.1 95.1642 158.733 94.7987ZM170.821 87.8C171.973 87.1354 173.245 86.6668 174.638 86.3943C176.031 86.1218 177.441 86.0786 178.869 86.2647C180.297 86.4508 181.632 86.9028 182.875 87.6206C183.727 88.1124 184.389 88.6607 184.861 89.2656C185.333 89.8571 185.598 90.4686 185.656 91.1C185.713 91.7314 185.541 92.3495 185.138 92.9543C184.735 93.5591 184.084 94.1207 183.186 94.6392C182.657 94.9449 182.069 95.2573 181.425 95.5763C180.803 95.8953 180.17 96.1944 179.525 96.4736C178.892 96.7593 178.293 97.0119 177.729 97.2312L166.59 90.8009C167.201 90.3024 167.868 89.7906 168.594 89.2656C169.319 88.7272 170.062 88.2387 170.821 87.8ZM173.947 89.4849C173.682 89.6378 173.429 89.8106 173.187 90.0033C172.946 90.1828 172.738 90.3556 172.566 90.5217L178.213 93.7818C178.558 93.6754 178.886 93.5525 179.197 93.4129C179.496 93.2667 179.767 93.1238 180.009 92.9842C180.596 92.6452 180.958 92.283 181.097 91.8975C181.235 91.4987 181.183 91.1033 180.941 90.7111C180.699 90.319 180.297 89.9601 179.732 89.6344C178.834 89.116 177.867 88.8369 176.831 88.797C175.795 88.7438 174.834 88.9731 173.947 89.4849ZM182.772 80.921C183.451 80.5289 184.205 80.1933 185.034 79.9141C185.863 79.6217 186.617 79.4389 187.296 79.3658L190.422 81.1703C189.639 81.2899 188.902 81.4295 188.212 81.589C187.509 81.7419 186.83 82.0077 186.174 82.3866C185.794 82.6059 185.523 82.8285 185.362 83.0545C185.201 83.2805 185.253 83.4699 185.518 83.6228C185.805 83.7889 186.191 83.8189 186.675 83.7125C187.147 83.5995 187.717 83.4566 188.384 83.2838L190.094 82.8352C191.257 82.5361 192.287 82.4464 193.185 82.566C194.095 82.679 194.826 82.895 195.378 83.214C196.115 83.6394 196.558 84.1412 196.708 84.7194C196.846 85.291 196.72 85.8826 196.328 86.494C195.925 87.0988 195.275 87.6605 194.377 88.1789C193.686 88.5777 192.88 88.9033 191.959 89.1559C191.038 89.4085 190.146 89.5779 189.282 89.6643L186.157 87.8598C187.124 87.7801 188.056 87.6339 188.954 87.4212C189.864 87.2019 190.641 86.9061 191.286 86.5339C191.688 86.3013 191.965 86.0886 192.114 85.8958C192.264 85.6898 192.218 85.517 191.976 85.3774C191.804 85.2777 191.562 85.2445 191.251 85.2777C190.94 85.311 190.583 85.3907 190.18 85.517L188.022 86.165C187.17 86.4176 186.387 86.5439 185.673 86.5439C184.959 86.5439 184.314 86.4575 183.739 86.2847C183.152 86.1052 182.628 85.8826 182.167 85.6167C181.35 85.1448 180.872 84.6297 180.734 84.0714C180.584 83.5065 180.699 82.9482 181.079 82.3965C181.459 81.8449 182.023 81.353 182.772 80.921Z" fill="url(#paint4_linear)"/>
</g>
<g filter="url(#filter2_d)">
<rect width="39.753" height="39.753" rx="7.32982" transform="matrix(0.866044 -0.499967 0.866044 0.499967 66.5182 103.014)" fill="url(#paint5_linear)"/>
</g>
<path d="M91.9783 104.692C92.3751 104.463 92.8187 104.289 93.3091 104.171C93.794 104.051 94.2982 103.989 94.8217 103.985C95.3452 103.976 95.8577 104.03 96.3591 104.148C96.866 104.262 97.3344 104.443 97.7642 104.692C98.194 104.94 98.5081 105.21 98.7065 105.503C98.9104 105.792 99.0068 106.09 98.9958 106.395C98.9848 106.694 98.8773 106.985 98.6735 107.268C98.4641 107.548 98.161 107.803 97.7642 108.032C97.3675 108.261 96.9239 108.437 96.4335 108.561C95.9431 108.679 95.4361 108.743 94.9126 108.752C94.3891 108.755 93.8739 108.7 93.367 108.585C92.8655 108.468 92.3999 108.285 91.9701 108.037C91.5403 107.788 91.2234 107.52 91.0195 107.23C90.8212 106.937 90.7275 106.642 90.7385 106.343C90.7495 106.037 90.8597 105.745 91.0691 105.465C91.2785 105.178 91.5816 104.921 91.9783 104.692ZM93.0611 105.317C92.7305 105.508 92.5129 105.725 92.4082 105.97C92.309 106.212 92.32 106.454 92.4412 106.696C92.5624 106.937 92.7966 107.159 93.1438 107.359C93.4854 107.556 93.8684 107.691 94.2927 107.765C94.7115 107.835 95.1303 107.841 95.5491 107.784C95.9679 107.72 96.3426 107.593 96.6732 107.402C97.0038 107.211 97.2215 106.996 97.3262 106.758C97.4254 106.516 97.4143 106.274 97.2931 106.032C97.1664 105.787 96.9322 105.566 96.5905 105.369C96.2434 105.169 95.8604 105.034 95.4416 104.964C95.0228 104.894 94.604 104.887 94.1853 104.944C93.7665 105.002 93.3918 105.126 93.0611 105.317ZM100.112 100.139L101.145 100.736L99.376 101.757L103.856 104.343L102.715 105.002L98.2354 102.415L96.4665 103.437L95.4334 102.84L100.112 100.139ZM103.41 98.2354C103.669 98.0859 103.966 97.965 104.302 97.8728C104.638 97.7805 104.991 97.7264 105.36 97.7105C105.735 97.6914 106.101 97.7185 106.46 97.7917C106.818 97.8585 107.151 97.9809 107.46 98.1591C107.834 98.3754 108.071 98.6235 108.171 98.9035C108.27 99.177 108.245 99.4522 108.096 99.729C107.947 100.006 107.688 100.251 107.319 100.464C107.071 100.607 106.823 100.721 106.575 100.807C106.327 100.893 106.104 100.955 105.906 100.993L107.807 102.091L106.658 102.754L101.12 99.5572L103.41 98.2354ZM103.343 99.5142L104.98 100.459C105.151 100.418 105.341 100.359 105.55 100.282C105.76 100.2 105.955 100.106 106.137 100.001C106.468 99.8101 106.639 99.6065 106.65 99.3902C106.661 99.1675 106.54 98.983 106.286 98.8367C105.994 98.6681 105.663 98.6044 105.294 98.6458C104.925 98.6871 104.592 98.7937 104.294 98.9655L103.343 99.5142Z" fill="url(#paint6_linear)"/>
<g filter="url(#filter3_d)">
<rect width="39.753" height="39.753" rx="7.32982" transform="matrix(0.866044 -0.499967 0.866044 0.499967 208.299 130.139)" fill="white"/>
</g>
<g filter="url(#filter4_d)">
<path d="M233.626 131.341L241.784 133.074L240.436 133.851L238.982 133.498L236.791 134.763L237.403 135.603L236.056 136.38L233.055 131.671L233.626 131.341ZM235.221 132.587L236.221 133.966L237.61 133.164L235.221 132.587ZM240.618 127.352L241.651 127.949L239.883 128.97L244.363 131.556L243.222 132.215L238.742 129.628L236.973 130.65L235.94 130.053L240.618 127.352ZM247.115 123.554L252.694 126.775L251.545 127.438L248.173 125.491L248.305 127.209L247.975 127.4L244.983 127.333L248.355 129.28L247.206 129.943L241.627 126.722L242.015 126.498L246.842 126.555L246.727 123.778L247.115 123.554Z" fill="url(#paint7_linear)"/>
</g>
<g filter="url(#filter5_d)">
<rect width="39.753" height="39.753" rx="7.32982" transform="matrix(0.866044 -0.499967 0.866044 0.499967 195.97 67.2603)" fill="url(#paint8_linear)"/>
</g>
<path d="M214.922 71.4969C215.241 71.3124 215.577 71.1692 215.93 71.0674C216.283 70.9656 216.608 70.8956 216.905 70.8575L218.038 71.5112C217.718 71.5557 217.393 71.613 217.062 71.683C216.732 71.7529 216.423 71.8707 216.137 72.0361C215.993 72.1188 215.872 72.2142 215.773 72.3224C215.679 72.4273 215.63 72.5323 215.624 72.6373C215.624 72.7391 215.693 72.8298 215.831 72.9093C216.013 73.0143 216.23 73.0477 216.484 73.0095C216.737 72.9713 217.027 72.9125 217.352 72.8329L218.311 72.6039C218.862 72.4767 219.347 72.4289 219.765 72.4608C220.184 72.4926 220.545 72.596 220.848 72.7709C221.179 72.9618 221.374 73.1861 221.435 73.4437C221.496 73.695 221.438 73.9543 221.261 74.2215C221.091 74.4855 220.812 74.7289 220.427 74.9516C220.101 75.1393 219.735 75.2872 219.327 75.3954C218.919 75.5035 218.525 75.5751 218.145 75.6101L217.013 74.9564C217.432 74.9182 217.848 74.8498 218.261 74.7512C218.674 74.6526 219.046 74.5078 219.377 74.3169C219.608 74.1833 219.763 74.0434 219.84 73.897C219.911 73.7475 219.856 73.6203 219.674 73.5153C219.531 73.4326 219.347 73.4056 219.121 73.4342C218.895 73.4564 218.671 73.4962 218.451 73.5535L217.269 73.8541C216.674 74.0068 216.167 74.0513 215.748 73.9877C215.329 73.9177 214.957 73.7889 214.632 73.6012C214.296 73.4071 214.095 73.1861 214.029 72.9379C213.963 72.6834 214.01 72.4305 214.17 72.1792C214.324 71.9247 214.575 71.6973 214.922 71.4969ZM222.129 67.46L223.162 68.0565L221.394 69.0776L225.874 71.6639L224.733 72.3224L220.253 69.7361L218.484 70.7573L217.451 70.1608L222.129 67.46ZM224.964 65.7756L233.122 67.5077L231.775 68.2855L230.32 67.9324L228.13 69.1969L228.742 70.0367L227.394 70.8145L224.394 66.1048L224.964 65.7756ZM226.56 67.021L227.56 68.4L228.948 67.5984L226.56 67.021ZM231.957 61.7864L232.99 62.3829L231.221 63.404L235.701 65.9903L234.561 66.6488L230.081 64.0625L228.312 65.0837L227.279 64.4872L231.957 61.7864ZM240.487 62.0632L241.52 62.6597L238.503 64.4013L237.47 63.8049L238.404 63.2657L234.933 61.2615L233.999 61.8008L232.965 61.2043L235.982 59.4626L237.016 60.0591L236.082 60.5983L239.553 62.6024L240.487 62.0632ZM239.776 57.1292C240.123 56.9288 240.473 56.7841 240.826 56.695C241.173 56.6028 241.523 56.5503 241.876 56.5376L243.033 57.2056C242.801 57.2247 242.567 57.2485 242.33 57.2772C242.093 57.3058 241.854 57.3551 241.611 57.4251C241.374 57.4919 241.135 57.5953 240.892 57.7353C240.561 57.9261 240.341 58.1456 240.231 58.3938C240.121 58.6419 240.121 58.89 240.231 59.1381C240.341 59.3863 240.57 59.6105 240.917 59.811C241.259 60.0082 241.647 60.1402 242.082 60.207C242.512 60.2706 242.942 60.2706 243.372 60.207C243.796 60.1402 244.173 60.0114 244.504 59.8205C244.873 59.6074 245.127 59.3974 245.265 59.1906C245.402 58.9775 245.49 58.7644 245.529 58.5512L246.645 59.1954C246.628 59.4022 246.532 59.6169 246.356 59.8396C246.174 60.0591 245.909 60.269 245.562 60.4694C245.165 60.6985 244.722 60.875 244.231 60.9991C243.735 61.12 243.226 61.1852 242.702 61.1947C242.173 61.2011 241.655 61.147 241.148 61.0325C240.641 60.918 240.173 60.7367 239.743 60.4885C239.313 60.2404 238.999 59.97 238.801 59.6773C238.603 59.3847 238.512 59.0872 238.528 58.785C238.539 58.4796 238.652 58.1854 238.867 57.9023C239.076 57.616 239.379 57.3583 239.776 57.1292Z" fill="url(#paint9_linear)"/>
<defs>
<filter id="filter0_f" x="39.0127" y="3.22915" width="263.21" height="174.672" filterUnits="userSpaceOnUse" color-interpolation-filters="sRGB">
<feFlood flood-opacity="0" result="BackgroundImageFix"/>
<feBlend mode="normal" in="SourceGraphic" in2="BackgroundImageFix" result="shape"/>
<feGaussianBlur stdDeviation="13.438" result="effect1_foregroundBlur"/>
</filter>
<filter id="filter1_d" x="54.9993" y="16.4265" width="231.237" height="144.096" filterUnits="userSpaceOnUse" color-interpolation-filters="sRGB">
<feFlood flood-opacity="0" result="BackgroundImageFix"/>
<feColorMatrix in="SourceAlpha" type="matrix" values="0 0 0 0 0 0 0 0 0 0 0 0 0 0 0 0 0 0 127 0"/>
<feOffset dy="-2.09036"/>
<feGaussianBlur stdDeviation="6.27107"/>
<feColorMatrix type="matrix" values="0 0 0 0 0.0823529 0 0 0 0 0.0823529 0 0 0 0 0.0823529 0 0 0 0.05 0"/>
<feBlend mode="normal" in2="BackgroundImageFix" result="effect1_dropShadow"/>
<feBlend mode="normal" in="SourceGraphic" in2="effect1_dropShadow" result="shape"/>
</filter>
<filter id="filter2_d" x="60.9566" y="78.4482" width="79.9791" height="54.0174" filterUnits="userSpaceOnUse" color-interpolation-filters="sRGB">
<feFlood flood-opacity="0" result="BackgroundImageFix"/>
<feColorMatrix in="SourceAlpha" type="matrix" values="0 0 0 0 0 0 0 0 0 0 0 0 0 0 0 0 0 0 127 0"/>
<feMorphology radius="1.5467" operator="dilate" in="SourceAlpha" result="effect1_dropShadow"/>
<feOffset dy="2.44327"/>
<feGaussianBlur stdDeviation="3.86676"/>
<feColorMatrix type="matrix" values="0 0 0 0 0.0823529 0 0 0 0 0.0823529 0 0 0 0 0.0823529 0 0 0 0.1 0"/>
<feBlend mode="normal" in2="BackgroundImageFix" result="effect1_dropShadow"/>
<feBlend mode="normal" in="SourceGraphic" in2="effect1_dropShadow" result="shape"/>
</filter>
<filter id="filter3_d" x="202.737" y="105.573" width="79.9791" height="54.0174" filterUnits="userSpaceOnUse" color-interpolation-filters="sRGB">
<feFlood flood-opacity="0" result="BackgroundImageFix"/>
<feColorMatrix in="SourceAlpha" type="matrix" values="0 0 0 0 0 0 0 0 0 0 0 0 0 0 0 0 0 0 127 0"/>
<feMorphology radius="1.5467" operator="dilate" in="SourceAlpha" result="effect1_dropShadow"/>
<feOffset dy="2.44327"/>
<feGaussianBlur stdDeviation="3.86676"/>
<feColorMatrix type="matrix" values="0 0 0 0 0.0823529 0 0 0 0 0.0823529 0 0 0 0 0.0823529 0 0 0 0.1 0"/>
<feBlend mode="normal" in2="BackgroundImageFix" result="effect1_dropShadow"/>
<feBlend mode="normal" in="SourceGraphic" in2="effect1_dropShadow" result="shape"/>
</filter>
<filter id="filter4_d" x="223.775" y="116.717" width="38.1994" height="31.3868" filterUnits="userSpaceOnUse" color-interpolation-filters="sRGB">
<feFlood flood-opacity="0" result="BackgroundImageFix"/>
<feColorMatrix in="SourceAlpha" type="matrix" values="0 0 0 0 0 0 0 0 0 0 0 0 0 0 0 0 0 0 127 0"/>
<feMorphology radius="1.5467" operator="dilate" in="SourceAlpha" result="effect1_dropShadow"/>
<feOffset dy="2.44327"/>
<feGaussianBlur stdDeviation="3.86676"/>
<feColorMatrix type="matrix" values="0 0 0 0 0.0823529 0 0 0 0 0.0823529 0 0 0 0 0.0823529 0 0 0 0.1 0"/>
<feBlend mode="normal" in2="BackgroundImageFix" result="effect1_dropShadow"/>
<feBlend mode="normal" in="SourceGraphic" in2="effect1_dropShadow" result="shape"/>
</filter>
<filter id="filter5_d" x="190.408" y="42.6948" width="79.9791" height="54.0174" filterUnits="userSpaceOnUse" color-interpolation-filters="sRGB">
<feFlood flood-opacity="0" result="BackgroundImageFix"/>
<feColorMatrix in="SourceAlpha" type="matrix" values="0 0 0 0 0 0 0 0 0 0 0 0 0 0 0 0 0 0 127 0"/>
<feMorphology radius="1.5467" operator="dilate" in="SourceAlpha" result="effect1_dropShadow"/>
<feOffset dy="2.44327"/>
<feGaussianBlur stdDeviation="3.86676"/>
<feColorMatrix type="matrix" values="0 0 0 0 0.0823529 0 0 0 0 0.0823529 0 0 0 0 0.0823529 0 0 0 0.1 0"/>
<feBlend mode="normal" in2="BackgroundImageFix" result="effect1_dropShadow"/>
<feBlend mode="normal" in="SourceGraphic" in2="effect1_dropShadow" result="shape"/>
</filter>
<linearGradient id="paint0_linear" x1="52.4188" y1="273.947" x2="143.714" y2="-159.16" gradientUnits="userSpaceOnUse">
<stop offset="0.207433" stop-color="#FBFBFB" stop-opacity="0"/>
<stop offset="1" stop-color="#59A2FF"/>
</linearGradient>
<linearGradient id="paint1_linear" x1="-1.90682" y1="127.521" x2="263.786" y2="-111.589" gradientUnits="userSpaceOnUse">
<stop offset="0.207433" stop-color="#FBFBFB" stop-opacity="0"/>
<stop offset="1" stop-color="#599CFF"/>
</linearGradient>
<linearGradient id="paint2_linear" x1="99.0079" y1="49.2245" x2="170.609" y2="173.251" gradientUnits="userSpaceOnUse">
<stop stop-color="#FF5353"/>
<stop offset="0.552383" stop-color="#FFBABA"/>
<stop offset="1" stop-color="white"/>
</linearGradient>
<linearGradient id="paint3_linear" x1="128.853" y1="66.8982" x2="176.954" y2="159.61" gradientUnits="userSpaceOnUse">
<stop stop-color="white"/>
<stop offset="1" stop-color="white"/>
</linearGradient>
<linearGradient id="paint4_linear" x1="166.282" y1="85.0999" x2="176.965" y2="103.604" gradientUnits="userSpaceOnUse">
<stop stop-color="#FAFAFA"/>
<stop offset="1" stop-color="white" stop-opacity="0"/>
</linearGradient>
<linearGradient id="paint5_linear" x1="19.8765" y1="0" x2="19.8765" y2="39.753" gradientUnits="userSpaceOnUse">
<stop stop-color="#FF7777"/>
<stop offset="1" stop-color="#FFDDDD"/>
</linearGradient>
<linearGradient id="paint6_linear" x1="95.0738" y1="100.442" x2="100.043" y2="109.051" gradientUnits="userSpaceOnUse">
<stop stop-color="#FAFAFA"/>
<stop offset="1" stop-color="white" stop-opacity="0"/>
</linearGradient>
<linearGradient id="paint7_linear" x1="236.953" y1="126.863" x2="241.922" y2="135.471" gradientUnits="userSpaceOnUse">
<stop stop-color="#FF7777"/>
<stop offset="1" stop-color="#FFDDDD"/>
</linearGradient>
<linearGradient id="paint8_linear" x1="19.8765" y1="0" x2="19.8765" y2="39.753" gradientUnits="userSpaceOnUse">
<stop stop-color="#FF7777"/>
<stop offset="1" stop-color="#FFDDDD"/>
</linearGradient>
<linearGradient id="paint9_linear" x1="225.047" y1="63.1702" x2="230.017" y2="71.7785" gradientUnits="userSpaceOnUse">
<stop stop-color="white"/>
<stop offset="1" stop-color="white" stop-opacity="0"/>
</linearGradient>
</defs>
</svg>
