<svg width="122" height="24" viewBox="0 0 122 24" fill="none" xmlns="http://www.w3.org/2000/svg">
<path d="M101.515 13.4685L101.899 13.5824C101.873 13.6899 101.835 13.7785 101.777 13.8481C101.72 13.9177 101.656 13.9747 101.573 14.0063C101.49 14.0443 101.388 14.0633 101.26 14.0633C101.106 14.0633 100.985 14.0443 100.883 14C100.787 13.9557 100.704 13.8798 100.634 13.7659C100.563 13.6583 100.525 13.5128 100.525 13.3419C100.525 13.1142 100.589 12.937 100.71 12.8104C100.832 12.6839 101.011 12.627 101.234 12.627C101.413 12.627 101.547 12.6649 101.65 12.7345C101.752 12.8041 101.829 12.9117 101.873 13.0635L101.49 13.1458C101.477 13.1015 101.464 13.0699 101.445 13.0509C101.42 13.0192 101.394 12.9939 101.356 12.975C101.317 12.956 101.279 12.9496 101.241 12.9496C101.145 12.9496 101.068 12.9876 101.017 13.0699C100.979 13.1268 100.959 13.2217 100.959 13.3419C100.959 13.4938 100.985 13.6014 101.03 13.6583C101.075 13.7153 101.145 13.7469 101.228 13.7469C101.311 13.7469 101.375 13.7216 101.413 13.6773C101.464 13.6203 101.496 13.5571 101.515 13.4685Z" fill="#225E63"/>
<path d="M102.052 13.3414C102.052 13.1137 102.116 12.9365 102.244 12.8099C102.372 12.6834 102.551 12.6201 102.781 12.6201C103.017 12.6201 103.196 12.6834 103.324 12.8036C103.452 12.9302 103.516 13.101 103.516 13.3288C103.516 13.4933 103.49 13.6262 103.433 13.7274C103.375 13.8286 103.298 13.9109 103.19 13.9678C103.088 14.0248 102.953 14.0564 102.8 14.0564C102.64 14.0564 102.512 14.0311 102.404 13.9805C102.301 13.9299 102.218 13.854 102.148 13.7401C102.078 13.6262 102.052 13.5059 102.052 13.3414ZM102.487 13.3414C102.487 13.4806 102.512 13.5819 102.563 13.6451C102.615 13.7084 102.685 13.7401 102.781 13.7401C102.877 13.7401 102.947 13.7084 102.998 13.6515C103.049 13.5882 103.075 13.4806 103.075 13.3288C103.075 13.1959 103.049 13.101 102.992 13.0441C102.941 12.9808 102.864 12.9555 102.774 12.9555C102.685 12.9555 102.615 12.9871 102.563 13.0504C102.512 13.101 102.487 13.2022 102.487 13.3414Z" fill="#225E63"/>
<path d="M103.739 12.6455H104.308L104.525 13.4934L104.743 12.6455H105.311V14.0375H104.954V12.9745L104.679 14.0375H104.359L104.084 12.9745V14.0375H103.727V12.6455H103.739Z" fill="#225E63"/>
<path d="M105.593 12.6455H106.315C106.474 12.6455 106.589 12.6835 106.666 12.7594C106.743 12.8353 106.781 12.9366 106.781 13.0758C106.781 13.215 106.736 13.3289 106.653 13.4048C106.57 13.4871 106.436 13.5251 106.264 13.5251H106.027V14.0439H105.593V12.6455ZM106.027 13.2403H106.136C106.219 13.2403 106.276 13.2277 106.315 13.196C106.347 13.1644 106.366 13.1327 106.366 13.0884C106.366 13.0442 106.353 13.0062 106.321 12.9745C106.289 12.9429 106.238 12.9303 106.155 12.9303H106.033V13.2403H106.027Z" fill="#225E63"/>
<path d="M107.011 12.6455H107.446V13.6958H108.123V14.0375H107.011V12.6455Z" fill="#225E63"/>
<path d="M108.341 12.6455H108.775V14.0375H108.341V12.6455Z" fill="#225E63"/>
<path d="M109.951 13.8034H109.459L109.389 14.0312H108.948L109.478 12.6392H109.951L110.481 14.0312H110.028L109.951 13.8034ZM109.862 13.506L109.708 13.0061L109.555 13.506H109.862Z" fill="#225E63"/>
<path d="M110.616 12.6455H111.018L111.549 13.4174V12.6455H111.958V14.0375H111.549L111.025 13.2719V14.0375H110.616V12.6455Z" fill="#225E63"/>
<path d="M112.149 12.6455H113.472V12.9872H113.031V14.0375H112.597V12.9872H112.156V12.6455H112.149Z" fill="#225E63"/>
<path d="M96.288 14.8814L97.5469 14.4891L97.1379 13.5907C96.8376 13.964 96.5372 14.4448 96.288 14.8814ZM95.8598 10.775L93.3931 5.3335L75.3333 6.34587L80.3371 19.861L89.9677 16.8556C89.3542 15.9824 89.1305 14.9447 89.8399 14.4385C90.6323 13.8691 91.8274 14.5271 92.5878 15.4572C93.3228 14.2424 95.3869 11.4141 95.8598 10.775Z" fill="#225E63"/>
<path d="M92.8305 9.14951C93.5846 9.14951 94.1981 8.58004 94.1981 7.87138C94.1981 7.16272 93.5846 6.59326 92.8305 6.59326C92.0764 6.59326 91.4629 7.16272 91.4629 7.87138C91.4629 8.57372 92.0764 9.14951 92.8305 9.14951ZM91.7121 9.69998H93.9488V15.4895H91.7121V9.69998Z" fill="#FEFEFE"/>
<path d="M90.6065 11.3895C90.6257 11.3958 90.6385 11.3895 90.6385 11.3705V9.90256C90.6385 9.88358 90.6257 9.8646 90.6065 9.85195C90.6065 9.85195 90.3126 9.66213 89.4179 9.61151C89.3732 9.5862 88.5871 9.57987 88.3762 9.61151C85.117 9.87093 84.9956 12.2057 84.9956 12.3069V12.8764C84.9956 12.946 84.9956 15.3314 88.3762 15.5402C88.7085 15.5655 89.354 15.5402 89.4179 15.5402C90.1976 15.5402 90.7344 15.3061 90.7344 15.3061C90.7535 15.2998 90.7663 15.2808 90.7663 15.2618V13.8888C90.7663 13.8698 90.7535 13.8635 90.7408 13.8761C90.7408 13.8761 90.4979 14.0659 89.4371 14.1735C89.1367 14.2051 88.9897 14.1925 88.8811 14.1735C87.3729 13.9204 87.3026 12.8321 87.3026 12.8321C87.3026 12.8131 87.2962 12.7815 87.2962 12.7688V12.3512C87.2962 12.3323 87.2962 12.3006 87.3026 12.288C87.3026 12.288 87.4049 11.1174 88.8811 10.9909H89.4371C90.0825 11.0731 90.6065 11.3895 90.6065 11.3895Z" fill="#FEFEFE"/>
<path d="M78.7839 15.4705C78.7839 15.4895 78.7967 15.5021 78.8159 15.5021H80.9951C81.0143 15.5021 81.027 15.4895 81.027 15.4705V13.7874C81.027 13.7684 81.0398 13.7558 81.059 13.7558C81.059 13.7558 84.5419 14.0025 84.5419 11.6931C84.5419 9.86446 82.3563 9.66832 81.6405 9.69995C81.6278 9.69995 78.8159 9.69995 78.8159 9.69995C78.7967 9.69995 78.7839 9.71261 78.7839 9.73159V15.4705ZM80.9887 12.4713V10.9591H81.5255C81.5255 10.9591 82.2988 10.9907 82.3627 11.5159C82.3755 11.5539 82.3755 11.8133 82.3627 11.8259C82.2604 12.4397 81.5894 12.4713 81.5894 12.4713H80.9887Z" fill="#FEFEFE"/>
<path d="M92.8946 18.2829C93.0735 18.2829 93.2141 18.2829 93.4442 18.1817C94.2366 17.7704 96.9143 11.2975 99.7389 9.30438C99.7581 9.29173 99.7772 9.27274 99.79 9.25376C99.8092 9.22845 99.8092 9.20314 99.8092 9.20314C99.8092 9.20314 99.8092 9.07027 99.3938 9.07027C96.8823 9.00067 94.2685 14.2207 92.8946 16.2834C92.8754 16.3088 92.7859 16.2834 92.7859 16.2834C92.7859 16.2834 91.8657 15.2078 91.0669 14.7965C91.0477 14.7902 90.9582 14.7586 90.8624 14.7649C90.7985 14.7649 90.4278 14.8408 90.2553 15.018C90.0508 15.2331 90.0572 15.3533 90.0572 15.6127C90.0572 15.6317 90.0699 15.7203 90.0955 15.7646C90.2936 16.1063 91.1819 17.3211 91.9168 17.9918C92.0255 18.0741 92.198 18.2829 92.8946 18.2829Z" fill="#2BBC5D"/>
<path d="M100.48 7.3501H102.57C102.985 7.3501 103.318 7.40704 103.567 7.51461C103.822 7.6285 104.033 7.78668 104.193 7.98916C104.359 8.19796 104.481 8.4384 104.551 8.71047C104.628 8.98255 104.666 9.2736 104.666 9.58364C104.666 10.0645 104.609 10.4378 104.5 10.7036C104.391 10.9693 104.238 11.1908 104.04 11.3743C103.842 11.5514 103.631 11.6717 103.407 11.7349C103.1 11.8172 102.819 11.8552 102.57 11.8552H100.48V7.3501ZM101.886 8.3688V10.8301H102.231C102.525 10.8301 102.736 10.7985 102.858 10.7352C102.979 10.6719 103.081 10.5581 103.151 10.3999C103.222 10.2417 103.26 9.97594 103.26 9.61528C103.26 9.1344 103.183 8.81171 103.024 8.63454C102.864 8.45738 102.608 8.3688 102.238 8.3688H101.886Z" fill="#225E63"/>
<path d="M105.056 10.3675L106.398 10.2852C106.43 10.5004 106.487 10.6649 106.577 10.7788C106.724 10.9623 106.928 11.0509 107.197 11.0509C107.395 11.0509 107.555 11.0066 107.663 10.9117C107.772 10.8167 107.829 10.7092 107.829 10.589C107.829 10.4751 107.778 10.3675 107.676 10.2726C107.574 10.1777 107.331 10.0954 106.954 10.0132C106.334 9.87397 105.899 9.69047 105.631 9.46269C105.363 9.2349 105.235 8.94384 105.235 8.58951C105.235 8.3554 105.305 8.14027 105.439 7.93146C105.574 7.72266 105.778 7.56448 106.053 7.44426C106.328 7.32404 106.698 7.26709 107.171 7.26709C107.753 7.26709 108.2 7.37466 108.5 7.58979C108.807 7.80492 108.986 8.14659 109.044 8.61482L107.714 8.69075C107.676 8.48827 107.606 8.34274 107.491 8.24783C107.376 8.15292 107.222 8.10863 107.024 8.10863C106.858 8.10863 106.737 8.14027 106.654 8.20987C106.57 8.27947 106.532 8.36172 106.532 8.46296C106.532 8.53256 106.564 8.60217 106.634 8.65911C106.698 8.71606 106.858 8.773 107.107 8.82362C107.721 8.9565 108.162 9.08937 108.43 9.22225C108.699 9.35512 108.89 9.52596 109.012 9.72211C109.133 9.91826 109.191 10.146 109.191 10.3928C109.191 10.6839 109.108 10.9496 108.948 11.1901C108.788 11.4368 108.558 11.6203 108.27 11.7469C107.983 11.8734 107.612 11.9367 107.171 11.9367C106.398 11.9367 105.861 11.7912 105.561 11.4938C105.267 11.1964 105.101 10.8231 105.056 10.3675Z" fill="#225E63"/>
<path d="M109.549 10.3675L110.891 10.2852C110.923 10.5004 110.98 10.6649 111.07 10.7788C111.217 10.9623 111.421 11.0509 111.689 11.0509C111.888 11.0509 112.047 11.0066 112.156 10.9117C112.265 10.8167 112.322 10.7092 112.322 10.589C112.322 10.4751 112.271 10.3675 112.169 10.2726C112.066 10.1777 111.824 10.0954 111.447 10.0132C110.827 9.87397 110.392 9.69047 110.124 9.46269C109.862 9.2349 109.728 8.94384 109.728 8.58951C109.728 8.3554 109.798 8.14027 109.932 7.93146C110.066 7.72266 110.271 7.56448 110.546 7.44426C110.82 7.32404 111.191 7.26709 111.664 7.26709C112.245 7.26709 112.693 7.37466 112.993 7.58979C113.3 7.80492 113.479 8.14659 113.536 8.61482L112.207 8.69075C112.169 8.48827 112.098 8.34274 111.983 8.24783C111.868 8.15292 111.715 8.10863 111.517 8.10863C111.351 8.10863 111.229 8.14027 111.146 8.20987C111.063 8.27947 111.025 8.36172 111.025 8.46296C111.025 8.53256 111.057 8.60217 111.127 8.65911C111.191 8.71606 111.351 8.773 111.6 8.82362C112.213 8.9565 112.654 9.08937 112.923 9.22225C113.191 9.35512 113.383 9.52596 113.504 9.72211C113.626 9.91826 113.683 10.146 113.683 10.3928C113.683 10.6839 113.6 10.9496 113.44 11.1901C113.281 11.4368 113.051 11.6203 112.763 11.7469C112.475 11.8734 112.105 11.9367 111.664 11.9367C110.891 11.9367 110.354 11.7912 110.053 11.4938C109.753 11.1964 109.587 10.8231 109.549 10.3675Z" fill="#225E63"/>
<g clip-path="url(#clip0)">
<path d="M31.1524 20.3335C30.9064 20.2111 30.6371 20.2111 30.3818 20.1426C29.7737 19.9762 29.7737 19.986 29.8851 19.3301C29.9362 19.0266 29.9873 18.7231 30.0244 18.4148C30.043 18.2385 30.0894 18.2043 30.2472 18.2875C30.8507 18.6057 31.4913 18.7574 32.169 18.7231C32.4521 18.7084 32.7214 18.6497 32.9488 18.4637C33.2598 18.2092 33.2784 17.8519 32.9999 17.5631C32.7817 17.3379 32.5078 17.2009 32.2386 17.0589C31.9415 16.9023 31.6537 16.731 31.3845 16.5205C30.1497 15.566 30.4979 14.1025 31.1895 13.3781C31.6909 12.8494 32.3175 12.59 32.9999 12.4774C33.7519 12.355 34.4899 12.4187 35.2187 12.6536C35.3951 12.7124 35.4508 12.7858 35.4137 12.9767C35.3301 13.4466 35.2605 13.9214 35.1816 14.4157C34.6571 14.1465 34.1186 14.0144 33.543 14.034C33.3109 14.0437 33.0788 14.0829 32.8746 14.1955C32.4614 14.4206 32.4243 14.822 32.7864 15.1304C33.0417 15.3457 33.3341 15.4877 33.6219 15.6443C34.0025 15.845 34.3646 16.08 34.6663 16.3981C35.4926 17.2743 35.2141 18.7574 34.4389 19.4769C33.9283 19.9517 33.3202 20.1818 32.661 20.2846C32.6192 20.2895 32.5635 20.2699 32.545 20.3335C32.0808 20.3335 31.6166 20.3335 31.1524 20.3335Z" fill="#025FAC"/>
<path d="M10.3333 4.26918C10.324 4.18597 10.3797 4.10766 10.4633 4.10276C10.7882 4.08318 11.0992 3.99997 11.4149 3.93634C11.6145 3.89718 11.6655 3.95102 11.698 4.13702C11.9765 5.68377 12.2643 7.23051 12.5475 8.78215C12.5568 8.836 12.5568 8.89473 12.6032 8.94368C12.6775 8.88984 12.696 8.80173 12.7285 8.72342C13.4527 7.20604 14.1768 5.69356 14.8917 4.17129C14.9613 4.01955 15.0402 3.95592 15.2073 3.96081C15.4905 3.9755 15.7783 3.9706 16.0661 3.96081C16.2332 3.95592 16.2842 3.9706 16.1868 4.1615C15.6947 5.14045 15.212 6.1194 14.7246 7.09346C14.1536 8.23394 13.578 9.37442 13.0117 10.5198C12.9421 10.6568 12.8724 10.7254 12.7146 10.7156C12.4361 10.7009 12.1576 10.7058 11.879 10.7156C11.7537 10.7205 11.6934 10.6862 11.6655 10.5394C11.2524 8.56189 10.83 6.5893 10.4122 4.61182C10.3936 4.51882 10.389 4.50413 10.3472 4.3475C10.3426 4.32303 10.3379 4.29855 10.3333 4.26918Z" fill="#0360AC"/>
<path d="M38.8998 3.66699C38.5702 5.92348 38.2406 8.17996 37.9157 10.4364C37.8925 10.6127 37.8414 10.7106 37.6465 10.6861C37.4654 10.6616 37.2751 10.6714 37.0894 10.6861C36.9502 10.6959 36.8945 10.642 36.9084 10.4903C36.9177 10.363 36.9084 10.2358 36.9084 10.0791C36.7366 10.2162 36.5927 10.3434 36.4349 10.456C36.0311 10.7399 35.5854 10.8427 35.112 10.7448C34.6338 10.6469 34.3182 10.3337 34.1604 9.84908C33.8261 8.81139 34.2439 7.19612 35.0191 6.48148C35.6643 5.88921 36.4071 5.82069 37.1915 6.03116C37.4097 6.0899 37.4329 6.02137 37.4561 5.83537C37.535 5.23821 37.6325 4.64594 37.7114 4.05368C37.7347 3.88726 37.7857 3.82852 37.9482 3.80405C38.171 3.76978 38.4031 3.77957 38.612 3.66699C38.7141 3.66699 38.8069 3.66699 38.8998 3.66699ZM35.1909 8.78202C35.2002 8.85055 35.2002 8.93376 35.2141 9.01207C35.3162 9.64839 35.7293 9.88824 36.2956 9.63371C36.5138 9.53581 36.6902 9.38897 36.862 9.21765C36.9502 9.12955 36.9966 9.03655 37.0152 8.90439C37.0894 8.34149 37.1823 7.78349 37.2658 7.22059C37.2751 7.14717 37.2937 7.07864 37.2055 7.03459C36.7877 6.82901 36.0496 6.73601 35.6411 7.3038C35.3255 7.74433 35.2326 8.2436 35.1909 8.78202Z" fill="#0360AC"/>
<path d="M47 7.21589C46.6425 7.85221 46.3687 8.49343 46.0437 9.14443C45.7095 9.80522 45.3985 10.4758 45.0596 11.1317C44.744 11.7387 44.2705 12.0715 43.5881 12.0225C43.4489 12.0128 43.3746 11.9736 43.3885 11.8072C43.4024 11.6359 43.3235 11.4303 43.3978 11.3079C43.4674 11.1855 43.6717 11.3079 43.8202 11.2981C44.2101 11.2639 44.5072 10.8674 44.4237 10.4709C44.2148 9.43811 44.0105 8.40532 43.7924 7.37252C43.7599 7.211 43.8017 7.17184 43.9363 7.16205C44.1127 7.14737 44.2891 7.12289 44.4655 7.09352C44.614 7.06905 44.679 7.10821 44.7068 7.28442C44.8043 7.96969 44.9204 8.64516 45.0318 9.32554C45.0411 9.38917 45.0596 9.4479 45.0875 9.55069C45.4124 8.83116 45.742 8.15569 46.0251 7.45574C46.1366 7.18652 46.2665 7.07884 46.5358 7.1131C46.6936 7.13268 46.7214 7.14247 46.9489 7.17184C46.986 7.17184 47.0092 7.18163 47 7.21589Z" fill="#0561AC"/>
<path d="M40.8865 20.226C40.6637 20.226 40.4362 20.2113 40.2134 20.2309C40.0509 20.2456 39.9999 20.1673 39.9767 20.0204C39.9302 19.7659 39.8699 19.5114 39.8328 19.2568C39.8095 19.1198 39.7678 19.061 39.6285 19.0659C38.9415 19.0757 38.2545 19.0708 37.5675 19.0659C37.4468 19.0659 37.3911 19.1051 37.3493 19.2275C37.2658 19.4967 37.159 19.761 37.0801 20.0302C37.0337 20.1917 36.9547 20.2358 36.7969 20.2309C36.2817 20.2211 35.7618 20.2162 35.2419 20.2309C35.0376 20.2358 35.0283 20.1722 35.098 20.0008C35.8175 18.1996 36.5323 16.3934 37.2518 14.5921C37.4329 14.1369 37.6139 13.6768 37.7949 13.2216C37.9806 12.7566 38.2591 12.5608 38.7465 12.5608C39.1968 12.5608 39.6424 12.5657 40.0927 12.5559C40.2227 12.5559 40.2737 12.5902 40.3016 12.737C40.7797 15.1795 41.2671 17.6171 41.7545 20.0547C41.7824 20.1868 41.7638 20.2309 41.6338 20.226C41.3832 20.2211 41.1371 20.226 40.8865 20.226ZM37.9481 17.4996C38.3566 17.4996 38.7326 17.4996 39.1086 17.4996C39.48 17.4996 39.4846 17.4996 39.4103 17.108C39.2572 16.3151 39.0993 15.5221 38.9322 14.6753C38.5934 15.6396 38.2731 16.5549 37.9481 17.4996Z" fill="#015FAC"/>
<path d="M23.0245 16.4228C23.1776 16.8242 23.2194 17.2549 23.3262 17.7346C23.4422 17.4067 23.5397 17.1375 23.6372 16.8634C24.12 15.4928 24.6027 14.1272 25.0808 12.7518C25.1319 12.6 25.2015 12.5413 25.364 12.5462C25.9489 12.556 26.5384 12.5511 27.1186 12.5511C27.1651 12.6196 27.1187 12.6685 27.1001 12.7175C26.1624 15.1502 25.2201 17.5878 24.2824 20.0205C24.2267 20.1624 24.1664 20.2359 23.9993 20.231C23.4654 20.2163 22.9316 20.2212 22.3978 20.231C22.2493 20.2359 22.1843 20.1918 22.1471 20.0303C21.6412 17.9892 21.1305 15.948 20.6153 13.9069C20.5874 13.7992 20.5596 13.6916 20.5317 13.5839C20.5921 13.5692 20.6339 13.6034 20.6803 13.6328C21.112 13.9216 21.5065 14.2545 21.8686 14.6411C22.356 15.1649 22.7134 15.7816 23.0245 16.4228Z" fill="#025FAB"/>
<path d="M27.6711 20.226C27.4158 20.226 27.1605 20.2211 26.9052 20.226C26.7798 20.2309 26.7241 20.2015 26.7473 20.0498C27.0166 18.3121 27.2858 16.5696 27.555 14.8319C27.6572 14.1565 27.7639 13.4859 27.8614 12.8104C27.8893 12.6293 27.931 12.5314 28.1446 12.5412C28.6134 12.5657 29.0869 12.5559 29.5604 12.5461C29.7414 12.5412 29.8064 12.5608 29.7739 12.7908C29.4443 14.876 29.1287 16.9612 28.8084 19.0463C28.7573 19.3841 28.697 19.7169 28.6598 20.0596C28.6459 20.2015 28.5902 20.2358 28.4695 20.2309C28.2003 20.2211 27.9357 20.226 27.6711 20.226Z" fill="#025FAC"/>
<path d="M33.4177 9.2814C33.4177 9.4674 33.3945 9.61913 33.4224 9.75619C33.492 10.1331 33.3109 10.3044 33.0092 10.4415C32.3918 10.7254 31.7559 10.8428 31.0921 10.7449C30.3123 10.6324 29.8295 10.1331 29.7042 9.30587C29.5556 8.33671 29.8991 6.83401 30.9993 6.18301C31.4959 5.88932 32.0298 5.80122 32.5868 5.92848C33.2877 6.09001 33.6916 6.65291 33.7426 7.51928C33.7612 7.80318 33.7241 8.08707 33.6869 8.37097C33.6684 8.51781 33.608 8.56187 33.4641 8.56187C32.6518 8.55208 31.8441 8.56676 31.0318 8.55208C30.8229 8.54718 30.7718 8.61081 30.7764 8.82618C30.7997 9.48208 31.1432 9.85408 31.7652 9.85898C32.2665 9.86387 32.7168 9.68766 33.1485 9.43313C33.2274 9.39398 33.3063 9.34503 33.4177 9.2814ZM30.9203 7.82276C31.482 7.82276 32.0066 7.82276 32.5265 7.82276C32.5822 7.82276 32.6657 7.85212 32.6704 7.75423C32.6843 7.45565 32.6611 7.16686 32.4661 6.92701C32.2897 6.71164 32.0483 6.6578 31.793 6.72633C31.2731 6.86828 31.0735 7.30881 30.9203 7.82276Z" fill="#0360AC"/>
<path d="M18.9069 9.29602C18.9069 9.49181 18.8837 9.66802 18.9116 9.82955C18.9626 10.1477 18.8141 10.2897 18.5634 10.412C17.9275 10.7204 17.273 10.8477 16.5813 10.7449C15.7644 10.6225 15.2677 10.089 15.1888 9.20791C15.1006 8.1898 15.3419 7.26958 16.0568 6.53537C16.6185 5.96268 17.3055 5.77668 18.0668 5.93331C18.7538 6.07526 19.1762 6.63816 19.2272 7.4409C19.2458 7.74927 19.2319 8.05764 19.1855 8.36601C19.1623 8.52754 19.0926 8.57159 18.9394 8.5667C18.1271 8.55691 17.3148 8.57159 16.5024 8.55691C16.2982 8.55201 16.2564 8.63522 16.2657 8.82612C16.3075 9.57502 16.7484 9.95191 17.4865 9.85402C17.7418 9.81976 17.9878 9.76591 18.2246 9.65333C18.4474 9.55054 18.6609 9.42328 18.9069 9.29602ZM16.4235 7.80311C16.4606 7.8129 16.4792 7.8178 16.4931 7.8178C16.9481 7.8178 17.403 7.8178 17.8579 7.8178C18.1874 7.8178 18.1874 7.8178 18.1596 7.47516C18.1085 6.83395 17.6304 6.51579 17.1059 6.785C16.7113 6.99548 16.5349 7.37237 16.4235 7.80311Z" fill="#0260AC"/>
<path d="M27.1372 6.94144C26.6544 6.94144 26.6498 6.94144 26.5755 7.4456C26.427 8.44903 26.2831 9.45246 26.1438 10.4608C26.1206 10.6321 26.0649 10.6957 25.8978 10.6859C25.6611 10.6713 25.4197 10.6761 25.1783 10.6859C25.0298 10.6908 24.9973 10.6517 25.0205 10.495C25.1876 9.37904 25.3454 8.26303 25.5125 7.14702C25.5357 6.99039 25.5311 6.93655 25.3593 6.94144C24.8905 6.94634 24.8905 6.93655 24.9694 6.43239C25.039 5.97718 25.039 5.96249 25.4707 5.97718C25.6471 5.98207 25.6982 5.91354 25.7168 5.75202C25.74 5.53175 25.7725 5.31638 25.8096 5.10101C25.9442 4.32275 26.4455 3.83327 27.1975 3.76964C27.4111 3.75006 27.6292 3.76964 27.8474 3.76474C27.9681 3.75985 28.0099 3.81859 28.0052 3.94095C28.0006 4.16122 27.9959 4.38148 28.0052 4.60175C28.0099 4.72901 27.9588 4.7437 27.852 4.7388C27.0583 4.69964 26.9329 4.81712 26.8355 5.64433C26.7983 5.97228 26.7983 5.97228 27.1325 5.97228C27.6339 5.97228 27.6339 5.97228 27.6339 6.43239C27.6339 6.94144 27.6339 6.94144 27.1372 6.94144Z" fill="#0360AC"/>
<path d="M41.2392 7.44073C41.3971 7.32325 41.5595 7.21067 41.7359 7.13725C42.4554 6.83378 43.0914 7.1911 43.2306 7.98894C43.3513 8.67421 43.1332 9.91748 42.3301 10.4265C41.8009 10.7643 41.23 10.7594 40.6497 10.6811C40.4687 10.6566 40.2877 10.593 40.1066 10.5587C39.9488 10.5293 39.8931 10.4608 39.9209 10.2797C40.153 8.74763 40.3805 7.21557 40.5987 5.67861C40.6219 5.52688 40.6683 5.47303 40.8122 5.46324C40.9793 5.45345 41.1464 5.4094 41.3135 5.38003C41.4481 5.35556 41.5038 5.37024 41.476 5.54646C41.3832 6.09956 41.3042 6.65267 41.2253 7.20578C41.2207 7.2792 41.1928 7.35262 41.2392 7.44073ZM42.3812 8.56652C42.3765 8.28263 42.344 8.00363 42.0516 7.87636C41.6942 7.72462 41.0954 8.10642 41.035 8.51268C40.9793 8.91405 40.9236 9.31542 40.854 9.71679C40.8261 9.87343 40.8772 9.93216 41.0118 9.96643C41.6292 10.1182 42.0934 9.83916 42.279 9.19305C42.344 8.98747 42.3812 8.777 42.3812 8.56652Z" fill="#0461AC"/>
<path d="M21.1304 6.77037C21.2603 6.66269 21.4042 6.54522 21.5435 6.41306C21.8406 6.13406 22.1702 5.94805 22.5694 5.89421C22.69 5.87463 22.7133 5.91379 22.7133 6.03127C22.7086 6.30048 22.7086 6.56969 22.7225 6.8389C22.7318 7.00532 22.6808 7.06406 22.5229 7.08364C22.0587 7.14727 21.6595 7.36754 21.2975 7.67101C21.0793 7.85701 20.9772 8.07728 20.94 8.37096C20.8518 9.09049 20.7311 9.80023 20.6337 10.5149C20.6151 10.6519 20.564 10.6862 20.4433 10.6813C20.188 10.6715 19.9327 10.6715 19.6774 10.6813C19.5335 10.6862 19.4871 10.6421 19.5103 10.4855C19.7285 9.02686 19.942 7.56333 20.1555 6.09979C20.1695 5.997 20.2066 5.95784 20.3041 5.96274C20.5362 5.96763 20.7683 5.97253 21.0004 5.96274C21.1257 5.95784 21.1396 6.02148 21.135 6.12427C21.1304 6.35921 21.1304 6.58437 21.1304 6.77037Z" fill="#0461AC"/>
<path d="M28.1258 10.6811C28.0098 10.6811 27.8937 10.6713 27.7777 10.686C27.592 10.7105 27.5549 10.6322 27.5827 10.4511C27.7963 9.02669 28.0098 7.59741 28.214 6.16814C28.2372 5.99683 28.3022 5.95767 28.4508 5.96746C28.6875 5.97725 28.9289 5.98214 29.1703 5.96746C29.3281 5.95767 29.3699 6.01641 29.3467 6.17304C29.2306 6.94152 29.1192 7.71489 29.0032 8.48337C28.9057 9.13927 28.7989 9.79516 28.72 10.456C28.6968 10.6566 28.6179 10.6958 28.4554 10.6811C28.3394 10.6762 28.2326 10.6811 28.1258 10.6811Z" fill="#0561AD"/>
<path d="M23.2471 10.681C22.6854 10.681 22.6808 10.681 22.7597 10.1524C22.9547 8.82099 23.1589 7.48961 23.3446 6.15824C23.3678 5.99182 23.4235 5.96245 23.5628 5.96734C23.7995 5.97713 24.0409 5.98203 24.2823 5.96734C24.4494 5.95755 24.4958 6.01629 24.468 6.18761C24.3473 6.96587 24.2359 7.74414 24.1198 8.52241C24.0223 9.1783 23.9156 9.8342 23.832 10.495C23.8088 10.6614 23.7531 10.6957 23.6138 10.6859C23.4978 10.6761 23.3725 10.681 23.2471 10.681Z" fill="#0561AD"/>
<path d="M23.0244 16.4228C22.7088 15.7816 22.356 15.1649 21.8686 14.646C21.5112 14.2593 21.1166 13.9265 20.6803 13.6377C20.6338 13.6083 20.5874 13.5741 20.5317 13.5888C20.4807 13.4615 20.3553 13.437 20.2579 13.3832C19.7751 13.1091 19.2645 12.8986 18.7353 12.742C18.6796 12.7273 18.5728 12.742 18.5821 12.6343C18.5914 12.5021 18.7028 12.5609 18.7631 12.5609C19.7055 12.556 20.6478 12.556 21.5947 12.5609C22.1425 12.5658 22.3885 12.7762 22.4953 13.3342C22.6763 14.2691 22.8481 15.1991 23.0198 16.134C23.0384 16.227 23.0244 16.3249 23.0244 16.4228Z" fill="#FDA202"/>
<path d="M24.2546 3.85796C24.6028 3.85796 24.8302 4.09291 24.8256 4.44533C24.8209 4.87607 24.4774 5.21381 24.055 5.20891C23.7162 5.20402 23.4794 4.97396 23.4794 4.64602C23.4701 4.22017 23.8322 3.85306 24.2546 3.85796Z" fill="#0561AC"/>
<path d="M29.6902 4.4404C29.6855 4.86135 29.3374 5.21377 28.9196 5.20888C28.5668 5.20398 28.3347 4.96903 28.344 4.6264C28.3533 4.20056 28.7014 3.85303 29.1146 3.85303C29.4581 3.85303 29.6948 4.09287 29.6902 4.4404Z" fill="#0561AC"/>
</g>
<rect opacity="0.2" x="60.3333" y="0.333496" width="1.66667" height="23.3333" fill="#4B4D50"/>
<g style="mix-blend-mode:color">
<rect width="122" height="24" fill="#F6F8FB"/>
</g>
<defs>
<clipPath id="clip0">
<rect width="36.6667" height="16.6667" fill="white" transform="translate(10.3333 3.66675)"/>
</clipPath>
</defs>
</svg>
