<svg width="85" height="40" viewBox="0 0 85 40" fill="none" xmlns="http://www.w3.org/2000/svg">
<path d="M47.9145 39.3286C47.3483 39.047 46.7287 39.047 46.1412 38.8893C44.7417 38.5063 44.7417 38.5288 44.9981 37.0193C45.1156 36.3209 45.2331 35.6225 45.3186 34.9129C45.3613 34.5073 45.4681 34.4285 45.8314 34.62C47.2201 35.3522 48.6944 35.7014 50.254 35.6225C50.9057 35.5887 51.5253 35.4536 52.0488 35.0255C52.7645 34.4397 52.8072 33.6174 52.1663 32.9528C51.6642 32.4346 51.0339 32.1192 50.4143 31.7925C49.7306 31.4321 49.0682 31.0378 48.4486 30.5534C45.607 28.3568 46.4082 24.9887 48 23.3215C49.1537 22.1049 50.5959 21.5079 52.1663 21.2488C53.8969 20.9672 55.5955 21.1136 57.2727 21.6544C57.6786 21.7895 57.8068 21.9585 57.7213 22.3978C57.529 23.4792 57.3688 24.5719 57.1872 25.7096C55.98 25.0901 54.7408 24.7859 53.4162 24.831C52.882 24.8535 52.3479 24.9436 51.8778 25.2027C50.9271 25.7209 50.8416 26.6446 51.6749 27.3543C52.2624 27.8499 52.9354 28.1766 53.5978 28.5371C54.4738 28.9989 55.307 29.5396 56.0014 30.2718C57.9029 32.2882 57.262 35.7014 55.4779 37.3573C54.3028 38.45 52.9034 38.9794 51.3864 39.216C51.2903 39.2272 51.1621 39.1822 51.1194 39.3286C50.0511 39.3286 48.9828 39.3286 47.9145 39.3286Z" fill="#025FAC"/>
<path d="M0.00232131 2.35824C-0.0190443 2.16674 0.109149 1.98651 0.30144 1.97524C1.04924 1.93018 1.76499 1.73868 2.49142 1.59224C2.95078 1.50213 3.06829 1.62604 3.14307 2.05409C3.78404 5.61373 4.44637 9.17336 5.09802 12.7443C5.11939 12.8682 5.11939 13.0033 5.22622 13.116C5.39714 12.9921 5.43987 12.7893 5.51465 12.6091C7.18117 9.11704 8.84769 5.63626 10.4928 2.13295C10.6531 1.78374 10.8347 1.6373 11.2193 1.64857C11.8709 1.68236 12.5333 1.6711 13.1956 1.64857C13.5802 1.6373 13.6977 1.6711 13.4734 2.11042C12.341 4.36335 11.23 6.61628 10.1083 8.85795C8.79428 11.4826 7.46961 14.1073 6.16631 16.7432C6.00606 17.0586 5.84582 17.2163 5.48261 17.1938C4.84164 17.16 4.20067 17.1713 3.5597 17.1938C3.27126 17.2051 3.13239 17.1262 3.06829 16.7883C2.11752 12.2373 1.14538 7.69769 0.183929 3.14677C0.141198 2.93274 0.130515 2.89894 0.0343698 2.53848C0.023687 2.48215 0.0130041 2.42583 0.00232131 2.35824Z" fill="#0360AC"/>
<path d="M65.7443 0.972656C64.9859 6.16566 64.2274 11.3587 63.4796 16.5517C63.4262 16.9572 63.3087 17.1825 62.86 17.1262C62.4433 17.0699 62.0053 17.0924 61.578 17.1262C61.2576 17.1487 61.1294 17.0248 61.1614 16.6756C61.1828 16.3827 61.1614 16.0898 61.1614 15.7294C60.7661 16.0448 60.435 16.3377 60.0718 16.5967C59.1423 17.2501 58.1168 17.4867 57.0271 17.2614C55.9268 17.0361 55.2004 16.3151 54.8372 15.1999C54.068 12.8118 55.0295 9.09448 56.8135 7.44984C58.2984 6.08681 60.0077 5.92911 61.8131 6.41349C62.3151 6.54866 62.3686 6.39096 62.422 5.9629C62.6036 4.58861 62.8279 3.22559 63.0095 1.86256C63.0629 1.47957 63.1805 1.34439 63.5544 1.28807C64.0671 1.20921 64.6013 1.23174 65.082 0.972656C65.317 0.972656 65.5307 0.972656 65.7443 0.972656ZM57.2088 12.7442C57.2301 12.9019 57.2301 13.0934 57.2622 13.2737C57.4972 14.7381 58.448 15.29 59.7513 14.7043C60.2534 14.479 60.6593 14.141 61.0546 13.7468C61.2575 13.544 61.3644 13.33 61.4071 13.0258C61.578 11.7304 61.7917 10.4462 61.984 9.1508C62.0053 8.98183 62.0481 8.82413 61.8451 8.72274C60.8837 8.24963 59.1851 8.0356 58.245 9.3423C57.5186 10.3561 57.3049 11.5051 57.2088 12.7442Z" fill="#0360AC"/>
<path d="M84.386 9.13984C83.5634 10.6042 82.9331 12.0799 82.1853 13.5781C81.4162 15.0988 80.7004 16.6421 79.9206 18.1516C79.1941 19.5484 78.1045 20.3144 76.5341 20.2017C76.2136 20.1792 76.0427 20.0891 76.0748 19.7061C76.1068 19.3118 75.9252 18.8387 76.0961 18.5571C76.2564 18.2755 76.7264 18.5571 77.0683 18.5346C77.9656 18.4557 78.6493 17.5433 78.457 16.6308C77.9763 14.254 77.5063 11.8772 77.0042 9.50031C76.9294 9.12858 77.0255 9.03846 77.3353 9.01593C77.7413 8.98214 78.1472 8.92582 78.5532 8.85823C78.895 8.8019 79.0446 8.89202 79.1087 9.29755C79.333 10.8746 79.6001 12.4291 79.8565 13.9949C79.8778 14.1414 79.9206 14.2765 79.9847 14.5131C80.7325 12.8572 81.491 11.3027 82.1426 9.69181C82.399 9.07226 82.6981 8.82443 83.3177 8.90329C83.6809 8.94834 83.745 8.97087 84.2685 9.03846C84.354 9.03846 84.4074 9.06099 84.386 9.13984Z" fill="#0561AC"/>
<path d="M70.3163 39.0812C69.8035 39.0812 69.2801 39.0474 68.7673 39.0924C68.3934 39.1262 68.2759 38.946 68.2225 38.608C68.1157 38.0223 67.9768 37.4365 67.8913 36.8508C67.8379 36.5353 67.7418 36.4002 67.4213 36.4114C65.8402 36.434 64.2592 36.4227 62.6781 36.4114C62.4004 36.4114 62.2722 36.5016 62.176 36.7832C61.9837 37.4027 61.738 38.011 61.5564 38.6306C61.4496 39.0023 61.268 39.1037 60.9048 39.0924C59.719 39.0699 58.5225 39.0586 57.326 39.0924C56.856 39.1037 56.8346 38.9573 56.9948 38.563C58.6507 34.4176 60.2958 30.2609 61.9517 26.1155C62.3683 25.0679 62.7849 24.009 63.2016 22.9614C63.6289 21.8913 64.2698 21.4407 65.3915 21.4407C66.4278 21.4407 67.4533 21.452 68.4896 21.4294C68.7887 21.4294 68.9062 21.5083 68.9703 21.8462C70.0706 27.4673 71.1923 33.0771 72.314 38.6869C72.3781 38.991 72.3354 39.0924 72.0363 39.0812C71.4594 39.0699 70.8932 39.0812 70.3163 39.0812ZM63.5541 32.8067C64.4942 32.8067 65.3595 32.8067 66.2248 32.8067C67.0794 32.8067 67.0901 32.8067 66.9192 31.9056C66.5667 30.0807 66.2034 28.2558 65.8189 26.307C65.039 28.5262 64.3019 30.6327 63.5541 32.8067Z" fill="#015FAC"/>
<path d="M29.2091 30.3283C29.5616 31.252 29.6578 32.2433 29.9035 33.3472C30.1705 32.5925 30.3949 31.9729 30.6192 31.3421C31.7302 28.188 32.8412 25.0451 33.9416 21.8798C34.0591 21.5306 34.2193 21.3954 34.5932 21.4067C35.9393 21.4292 37.296 21.4179 38.6313 21.4179C38.7382 21.5756 38.6313 21.6883 38.5886 21.8009C36.4307 27.3995 34.2621 33.0093 32.1041 38.6078C31.9759 38.9345 31.8371 39.1035 31.4525 39.0922C30.224 39.0584 28.9954 39.0697 27.7669 39.0922C27.4251 39.1035 27.2755 39.0021 27.19 38.6303C26.0256 33.933 24.8505 29.2356 23.6647 24.5382C23.6006 24.2904 23.5365 24.0426 23.4724 23.7948C23.6113 23.761 23.7074 23.8398 23.8143 23.9074C24.8078 24.572 25.7158 25.338 26.5491 26.2279C27.6708 27.4333 28.4933 28.8526 29.2091 30.3283Z" fill="#025FAB"/>
<path d="M39.9024 39.0809C39.3148 39.0809 38.7273 39.0696 38.1397 39.0809C37.8513 39.0921 37.7231 39.0246 37.7765 38.6754C38.3961 34.6764 39.0157 30.6662 39.6353 26.6672C39.8703 25.1127 40.116 23.5694 40.3404 22.0149C40.4045 21.5981 40.5006 21.3728 40.992 21.3953C42.071 21.4517 43.1606 21.4291 44.2503 21.4066C44.6669 21.3953 44.8165 21.4404 44.7417 21.9698C43.9832 26.7686 43.2568 31.5673 42.5197 36.3661C42.4022 37.1434 42.2633 37.9094 42.1778 38.6979C42.1458 39.0246 42.0176 39.1034 41.7398 39.0921C41.1202 39.0696 40.5113 39.0809 39.9024 39.0809Z" fill="#025FAC"/>
<path d="M53.1278 13.8933C53.1278 14.3214 53.0744 14.6706 53.1385 14.986C53.2987 15.8534 52.8821 16.2476 52.1877 16.563C50.7669 17.2164 49.3033 17.4867 47.7757 17.2614C45.981 17.0024 44.87 15.8534 44.5815 13.9496C44.2397 11.7192 45.0302 8.26098 47.562 6.76278C48.7051 6.0869 49.9336 5.88414 51.2156 6.17702C52.8287 6.54875 53.7581 7.84419 53.8756 9.83803C53.9183 10.4914 53.8328 11.1447 53.7474 11.7981C53.7047 12.136 53.5658 12.2374 53.2346 12.2374C51.3651 12.2149 49.5063 12.2487 47.6368 12.2149C47.1561 12.2036 47.0386 12.3501 47.0493 12.8457C47.1027 14.3552 47.8932 15.2113 49.3247 15.2225C50.4784 15.2338 51.5147 14.8283 52.5082 14.2425C52.6898 14.1524 52.8714 14.0398 53.1278 13.8933ZM47.3804 10.5364C48.673 10.5364 49.8802 10.5364 51.0767 10.5364C51.2049 10.5364 51.3972 10.604 51.4078 10.3787C51.4399 9.69159 51.3865 9.02698 50.9378 8.47501C50.5319 7.97936 49.9763 7.85545 49.3888 8.01316C48.1923 8.33983 47.733 9.35365 47.3804 10.5364Z" fill="#0360AC"/>
<path d="M19.7334 13.927C19.7334 14.3776 19.68 14.7831 19.7441 15.1549C19.8616 15.8871 19.5197 16.2137 18.9429 16.4954C17.4793 17.205 15.973 17.4979 14.3813 17.2614C12.5011 16.9797 11.3581 15.7519 11.1765 13.7243C10.9735 11.3812 11.529 9.26345 13.1741 7.57375C14.4668 6.25579 16.0478 5.82773 17.7998 6.1882C19.3808 6.51488 20.353 7.81031 20.4705 9.65771C20.5132 10.3674 20.4812 11.0771 20.3743 11.7867C20.3209 12.1585 20.1607 12.2598 19.8082 12.2486C17.9387 12.2261 16.0692 12.2598 14.1997 12.2261C13.7296 12.2148 13.6335 12.4063 13.6549 12.8456C13.751 14.5691 14.7659 15.4365 16.4644 15.2112C17.052 15.1323 17.6182 15.0084 18.163 14.7493C18.6758 14.5128 19.1672 14.2199 19.7334 13.927ZM14.0181 10.4913C14.1035 10.5138 14.1463 10.5251 14.1783 10.5251C15.2252 10.5251 16.2722 10.5251 17.3191 10.5251C18.0775 10.5251 18.0775 10.5251 18.0134 9.73657C17.8959 8.2609 16.7956 7.52869 15.5884 8.14825C14.6804 8.63263 14.2745 9.50001 14.0181 10.4913Z" fill="#0260AC"/>
<path d="M38.6741 8.50845C37.5631 8.50845 37.5524 8.50845 37.3815 9.66871C37.0397 11.978 36.7085 14.2872 36.388 16.6077C36.3346 17.002 36.2064 17.1484 35.8218 17.1259C35.277 17.0921 34.7215 17.1034 34.166 17.1259C33.8241 17.1372 33.7494 17.0471 33.8028 16.6866C34.1874 14.1183 34.5506 11.5499 34.9352 8.98156C34.9886 8.6211 34.9779 8.49718 34.5826 8.50845C33.5037 8.51971 33.5037 8.49718 33.6853 7.33692C33.8455 6.28931 33.8455 6.25552 34.839 6.28931C35.245 6.30058 35.3625 6.14287 35.4052 5.77114C35.4586 5.26423 35.5334 4.76858 35.6189 4.27294C35.9287 2.48186 37.0824 1.35539 38.813 1.20895C39.3044 1.16389 39.8065 1.20895 40.3086 1.19768C40.5863 1.18642 40.6825 1.3216 40.6718 1.60321C40.6611 2.11012 40.6504 2.61703 40.6718 3.12394C40.6825 3.41682 40.565 3.45062 40.3193 3.43935C38.4925 3.34923 38.2041 3.61959 37.9797 5.52331C37.8943 6.27805 37.8943 6.27805 38.6634 6.27805C39.8172 6.27805 39.8172 6.27805 39.8172 7.33692C39.8172 8.50845 39.8172 8.50845 38.6741 8.50845Z" fill="#0360AC"/>
<path d="M71.1284 9.65748C71.4916 9.38713 71.8655 9.12804 72.2714 8.95907C73.9272 8.26066 75.3908 9.08298 75.7113 10.9191C75.989 12.4962 75.4869 15.3574 73.6388 16.5289C72.421 17.3062 71.107 17.2949 69.7716 17.1147C69.355 17.0584 68.9384 16.9119 68.5218 16.8331C68.1585 16.7655 68.0303 16.6078 68.0944 16.191C68.6286 12.6651 69.152 9.1393 69.6541 5.6022C69.7075 5.253 69.8144 5.12908 70.1455 5.10656C70.5301 5.08403 70.9147 4.98264 71.2993 4.91506C71.6091 4.85873 71.7373 4.89253 71.6732 5.29805C71.4595 6.57096 71.2779 7.84387 71.0963 9.11677C71.0856 9.28574 71.0215 9.45471 71.1284 9.65748ZM73.7563 12.2483C73.7456 11.595 73.6709 10.9529 72.9978 10.66C72.1753 10.3108 70.7972 11.1895 70.6583 12.1244C70.5301 13.0481 70.4019 13.9718 70.2417 14.8955C70.1776 15.256 70.2951 15.3912 70.6049 15.47C72.0257 15.8192 73.094 15.1772 73.5213 13.6902C73.6709 13.2171 73.7563 12.7327 73.7563 12.2483Z" fill="#0461AC"/>
<path d="M24.8508 8.11447C25.1499 7.86665 25.481 7.5963 25.8015 7.29215C26.4852 6.65007 27.2437 6.22201 28.1624 6.0981C28.4402 6.05304 28.4936 6.14316 28.4936 6.41351C28.4829 7.03307 28.4829 7.65262 28.515 8.27218C28.5363 8.65518 28.4188 8.79035 28.0556 8.83541C26.9873 8.98185 26.0686 9.48876 25.2353 10.1872C24.7332 10.6152 24.4982 11.1221 24.4128 11.798C24.2098 13.4539 23.932 15.0873 23.7077 16.7319C23.665 17.0473 23.5474 17.1262 23.2697 17.1149C22.6821 17.0924 22.0946 17.0924 21.507 17.1149C21.1759 17.1262 21.069 17.0248 21.1224 16.6643C21.6245 13.3075 22.1159 9.93935 22.6074 6.57122C22.6394 6.33466 22.7249 6.24454 22.9492 6.25581C23.4833 6.26707 24.0175 6.27834 24.5516 6.25581C24.8401 6.24454 24.8721 6.39098 24.8614 6.62754C24.8507 7.16824 24.8508 7.68642 24.8508 8.11447Z" fill="#0461AC"/>
<path d="M40.9493 17.115C40.6823 17.115 40.4152 17.0925 40.1481 17.1263C39.7208 17.1826 39.6353 17.0023 39.6994 16.5856C40.1909 13.3075 40.6823 10.0183 41.1523 6.72898C41.2057 6.33471 41.3553 6.2446 41.6971 6.26712C42.242 6.28965 42.7975 6.30092 43.353 6.26712C43.7162 6.2446 43.8123 6.37977 43.7589 6.74024C43.4918 8.50879 43.2355 10.2886 42.9684 12.0572C42.744 13.5666 42.4983 15.0761 42.3167 16.5968C42.2633 17.0587 42.0817 17.1488 41.7078 17.115C41.4407 17.1037 41.195 17.115 40.9493 17.115Z" fill="#0561AD"/>
<path d="M29.7219 17.1146C28.4293 17.1146 28.4186 17.1146 28.6002 15.8981C29.0489 12.8341 29.5189 9.77009 29.9462 6.7061C29.9997 6.32311 30.1279 6.25552 30.4483 6.26678C30.9932 6.28931 31.5487 6.30058 32.1042 6.26678C32.4888 6.24425 32.5956 6.37943 32.5315 6.77369C32.2537 8.56477 31.9973 10.3558 31.7303 12.1469C31.5059 13.6564 31.2602 15.1659 31.0679 16.6866C31.0145 17.0696 30.8863 17.1484 30.5658 17.1259C30.2988 17.1034 30.0103 17.1146 29.7219 17.1146Z" fill="#0561AD"/>
<path d="M29.2094 30.3284C28.483 28.8527 27.6711 27.4334 26.5494 26.2393C25.7268 25.3494 24.8187 24.5834 23.8146 23.9188C23.7077 23.8512 23.6009 23.7724 23.4727 23.8062C23.3552 23.5133 23.0668 23.457 22.8424 23.333C21.7314 22.7022 20.5563 22.2178 19.3385 21.8574C19.2103 21.8236 18.9646 21.8574 18.9859 21.6095C19.0073 21.3054 19.2637 21.4406 19.4026 21.4406C21.5712 21.4293 23.7398 21.4293 25.9191 21.4406C27.1797 21.4518 27.7458 21.9362 27.9915 23.2204C28.4082 25.3719 28.8034 27.5122 29.1987 29.6638C29.2414 29.8778 29.2094 30.1031 29.2094 30.3284Z" fill="#FDA202"/>
<path d="M32.0398 1.41185C32.841 1.41185 33.3645 1.95256 33.3538 2.76361C33.3431 3.7549 32.5526 4.53217 31.5804 4.5209C30.8006 4.50964 30.2558 3.9802 30.2558 3.22546C30.2344 2.24544 31.0677 1.40059 32.0398 1.41185Z" fill="#0561AC"/>
<path d="M44.5495 2.75239C44.5389 3.72115 43.7377 4.53221 42.7762 4.52094C41.9643 4.50968 41.4302 3.96898 41.4515 3.18045C41.4729 2.20043 42.2741 1.40063 43.2249 1.40063C44.0154 1.40063 44.5602 1.9526 44.5495 2.75239Z" fill="#0561AC"/>
</svg>
