<svg width="45" height="50" viewBox="0 0 45 50" fill="none" xmlns="http://www.w3.org/2000/svg">
<path d="M1.89771 18.6573C1.89771 13.6554 5.95252 9.60059 10.9544 9.60059H32.6904C37.6923 9.60059 41.7471 13.6554 41.7471 18.6573V40.3933C41.7471 45.3952 37.6923 49.45 32.6904 49.45H10.9544C5.95252 49.45 1.89771 45.3952 1.89771 40.3933V18.6573Z" fill="#D71A20"/>
<path d="M20.2137 24.9968H22.1993L24.8773 31.2926C25.0253 31.6278 25.1559 31.8352 25.2691 31.915C25.3824 31.9868 25.587 32.0227 25.8831 32.0227V33.1478H21.6768V32.0227L21.938 32.0108C22.1645 32.0108 22.3256 31.9828 22.4214 31.927C22.5172 31.8711 22.5651 31.8033 22.5651 31.7235C22.5651 31.6517 22.5259 31.5081 22.4475 31.2926L22.1862 30.5505H19.4691L19.1425 31.3764C19.0728 31.5519 19.038 31.6637 19.038 31.7115C19.038 31.7754 19.0598 31.8352 19.1033 31.8911C19.1556 31.939 19.2383 31.9749 19.3515 31.9988C19.4212 32.0148 19.6215 32.0227 19.9524 32.0227V33.1478H16.5037V32.0227C16.7214 32.0227 16.8825 32.0068 16.9871 31.9749C17.0916 31.935 17.1743 31.8791 17.2353 31.8073C17.3049 31.7355 17.379 31.6038 17.4573 31.4123L20.2137 24.9968ZM19.9393 29.3895H21.7159L20.8407 27.1393L19.9393 29.3895Z" fill="white"/>
<path d="M26.4151 24.9968H31.1179C31.7101 24.9968 32.2022 25.0527 32.5941 25.1644C32.9947 25.2761 33.3343 25.4437 33.613 25.6671C33.9004 25.8905 34.1181 26.1578 34.2661 26.469C34.4229 26.7802 34.5013 27.1074 34.5013 27.4505C34.5013 28.1527 34.2052 28.7392 33.613 29.21C33.0295 29.6808 32.2239 29.9162 31.1963 29.9162H29.681V31.4362C29.681 31.6278 29.694 31.7514 29.7201 31.8073C29.7637 31.8791 29.8246 31.935 29.903 31.9749C29.9814 32.0068 30.112 32.0227 30.2949 32.0227H30.7521V33.1478H26.4151V32.0227H26.7156C26.9769 32.0227 27.151 32.0068 27.2381 31.9749C27.3252 31.935 27.3862 31.8791 27.421 31.8073C27.4646 31.7275 27.4863 31.5679 27.4863 31.3285V26.852C27.4863 26.5967 27.4689 26.4291 27.4341 26.3493C27.3992 26.2695 27.3426 26.2137 27.2643 26.1818C27.1946 26.1419 27.0552 26.1219 26.8462 26.1219H26.4151V24.9968ZM29.681 26.3254V28.6474H30.4386C30.9002 28.6474 31.2398 28.6035 31.4576 28.5158C31.6753 28.428 31.8495 28.2923 31.9801 28.1088C32.1107 27.9253 32.176 27.7098 32.176 27.4625C32.176 27.0874 32.0193 26.7922 31.7058 26.5768C31.4706 26.4092 31.1266 26.3254 30.6738 26.3254H29.681Z" fill="white"/>
<path d="M9.14258 24.9968H13.571V26.1219H13.2314C13.0049 26.1219 12.8612 26.1379 12.8003 26.1698C12.7393 26.2017 12.7088 26.2576 12.7088 26.3374C12.7088 26.4331 12.7785 26.5847 12.9179 26.7922L14.0805 28.5636L15.3868 26.7084C15.5 26.5488 15.561 26.4611 15.5697 26.4451C15.5871 26.4052 15.5958 26.3613 15.5958 26.3134C15.5958 26.2496 15.5697 26.2017 15.5174 26.1698C15.4739 26.1379 15.3607 26.1219 15.1778 26.1219H14.7336V24.9968H18.2738V26.1219C17.969 26.1299 17.7513 26.1658 17.6206 26.2297C17.4987 26.2855 17.3506 26.4331 17.1765 26.6725L14.799 29.8443V31.2926C14.799 31.548 14.8164 31.7155 14.8512 31.7953C14.886 31.8671 14.947 31.923 15.0341 31.9629C15.1212 32.0028 15.2954 32.0227 15.5566 32.0227H15.8701V33.1478H11.5332V32.0227H11.7683C12.0731 32.0227 12.2647 32.0028 12.3431 31.9629C12.4302 31.923 12.4955 31.8631 12.539 31.7834C12.5913 31.6956 12.6174 31.516 12.6174 31.2447V29.976L10.2399 26.6725C10.057 26.4172 9.89589 26.2536 9.75655 26.1818C9.65204 26.1419 9.44739 26.1219 9.14258 26.1219V24.9968Z" fill="white"/>
<path d="M1.65683 6L2.50506 2.01506H3.75177C4.03262 2.01506 4.27361 2.0663 4.47476 2.16876C4.6759 2.26744 4.8296 2.40407 4.93587 2.57864C5.04593 2.75322 5.10096 2.95437 5.10096 3.18208C5.10096 3.4781 5.02316 3.74187 4.86756 3.97337C4.71195 4.20488 4.49563 4.38895 4.21858 4.52557C3.94533 4.6584 3.62843 4.72482 3.26789 4.72482H2.61322L2.33997 6H1.65683ZM3.63792 2.64126H3.05726L2.74415 4.09861H3.3362C3.54114 4.09861 3.72141 4.06066 3.87701 3.98476C4.03262 3.90886 4.15406 3.80639 4.24135 3.67735C4.32864 3.54831 4.37229 3.4041 4.37229 3.2447C4.37229 3.05494 4.31156 2.90693 4.19012 2.80066C4.06867 2.6944 3.8846 2.64126 3.63792 2.64126ZM6.03733 4.48003C6.03733 4.13087 6.09426 3.80449 6.20812 3.50087C6.32577 3.19346 6.48706 2.92401 6.692 2.6925C6.89694 2.4572 7.13793 2.27503 7.41498 2.14599C7.69203 2.01316 7.98995 1.94675 8.30875 1.94675C8.61995 1.94675 8.89131 2.01316 9.12281 2.14599C9.35432 2.27883 9.53459 2.46479 9.66363 2.70389C9.79646 2.93919 9.86287 3.21244 9.86287 3.52364C9.86287 3.8766 9.80405 4.20867 9.6864 4.51988C9.57254 4.82729 9.41125 5.09675 9.20251 5.32825C8.99757 5.55976 8.75658 5.74193 8.47953 5.87476C8.20248 6.0038 7.90456 6.06831 7.58577 6.06831C7.27836 6.06831 7.007 6.0019 6.7717 5.86907C6.54019 5.73244 6.35992 5.54458 6.23089 5.30548C6.10185 5.06639 6.03733 4.79123 6.03733 4.48003ZM6.76031 4.40602C6.76031 4.72482 6.84191 4.9753 7.0051 5.15747C7.17209 5.33584 7.39411 5.42503 7.67116 5.42503C7.86092 5.42503 8.04309 5.37759 8.21766 5.28271C8.39224 5.18783 8.54784 5.0569 8.68447 4.88991C8.82489 4.72292 8.93495 4.53127 9.01465 4.31494C9.09435 4.09482 9.1342 3.85952 9.1342 3.60904C9.1342 3.29024 9.0526 3.04166 8.88941 2.86328C8.72622 2.68111 8.5061 2.59003 8.22905 2.59003C8.03929 2.59003 7.85712 2.63747 7.68254 2.73235C7.50796 2.82343 7.35046 2.95057 7.21004 3.11376C7.07342 3.27696 6.96336 3.46861 6.87986 3.68873C6.80016 3.90886 6.76031 4.14795 6.76031 4.40602ZM11.5568 6.02846L11.2152 2.01506H11.9097L12.0805 4.99807L13.5834 2.01506H14.1868L14.4032 4.99807L15.8434 2.01506H16.5664L14.5113 6.02846H13.8851L13.6403 3.23331L12.1773 6.02846H11.5568ZM16.9406 6L17.7888 2.01506H20.3506L20.2139 2.64126H18.341L18.119 3.68304H19.7756L19.6447 4.28078H17.9881L17.7547 5.3738H19.6674L19.5365 6H16.9406ZM21.0456 6L21.8938 2.01506H23.1406C23.4062 2.01506 23.6339 2.0625 23.8237 2.15738C24.0134 2.24846 24.1596 2.3775 24.262 2.54449C24.3683 2.70768 24.4214 2.89744 24.4214 3.11376C24.4214 3.43256 24.319 3.71151 24.114 3.9506C23.9129 4.1859 23.6377 4.35289 23.2886 4.45157L23.966 6H23.2259L22.6624 4.53127H22.0418L21.7287 6H21.0456ZM23.021 2.64126H22.446L22.1671 3.93352H22.7364C23.0286 3.93352 23.262 3.86142 23.4366 3.7172C23.6149 3.57298 23.7041 3.39271 23.7041 3.17639C23.7041 3.0094 23.6472 2.87846 23.5334 2.78358C23.4195 2.6887 23.2487 2.64126 23.021 2.64126ZM25.3063 6L26.1545 2.01506H28.7163L28.5796 2.64126H26.7067L26.4847 3.68304H28.1413L28.0104 4.28078H26.3538L26.1204 5.3738H28.0331L27.9022 6H25.3063ZM29.4113 6L30.2595 2.01506H31.4322C31.7776 2.01506 32.0774 2.08148 32.3317 2.21431C32.586 2.34334 32.7833 2.52361 32.9238 2.75512C33.0642 2.98283 33.1344 3.2466 33.1344 3.54642C33.1344 3.89557 33.0718 4.22006 32.9465 4.51988C32.8213 4.8159 32.6467 5.07587 32.4228 5.29979C32.1989 5.51991 31.937 5.69259 31.6372 5.81783C31.3412 5.93928 31.0186 6 30.6694 6H29.4113ZM31.3469 2.64126H30.8117L30.2254 5.3738H30.7605C30.973 5.3738 31.178 5.33015 31.3753 5.24286C31.5727 5.15557 31.7491 5.03223 31.9047 4.87283C32.0604 4.71343 32.1818 4.52937 32.2691 4.32063C32.3602 4.1081 32.4057 3.87849 32.4057 3.63181C32.4057 3.3206 32.3108 3.07771 32.1211 2.90313C31.9351 2.72855 31.677 2.64126 31.3469 2.64126ZM36.0592 6L36.9074 2.01506H38.2338C38.583 2.01506 38.8581 2.09666 39.0593 2.25985C39.2642 2.42304 39.3667 2.63557 39.3667 2.89744C39.3667 3.11756 39.3022 3.3206 39.1731 3.50657C39.0479 3.68873 38.8581 3.82916 38.6039 3.92783C38.7784 4.00373 38.9094 4.11 38.9967 4.24663C39.0877 4.37946 39.1333 4.53506 39.1333 4.71343C39.1333 4.94494 39.0688 5.15937 38.9397 5.35672C38.8145 5.55027 38.6304 5.70587 38.3875 5.82352C38.1484 5.94117 37.8562 6 37.5108 6H36.0592ZM38.0744 2.61849H37.4596L37.2376 3.68304H37.8524C38.1029 3.68304 38.2983 3.62042 38.4388 3.49518C38.5792 3.36994 38.6494 3.22003 38.6494 3.04545C38.6494 2.91262 38.6001 2.80825 38.5014 2.73235C38.4027 2.65645 38.2604 2.61849 38.0744 2.61849ZM37.7841 4.21816H37.1237L36.8732 5.39657H37.545C37.8372 5.39657 38.0573 5.32825 38.2054 5.19163C38.3534 5.055 38.4274 4.88801 38.4274 4.69066C38.4274 4.53886 38.3704 4.4231 38.2566 4.3434C38.1465 4.25991 37.989 4.21816 37.7841 4.21816ZM41.0984 6L41.4399 4.38895L40.4494 2.01506H41.1837L41.8669 3.7912L43.3071 2.01506H44.1212L42.1231 4.38325L41.7815 6H41.0984Z" fill="#151515"/>
</svg>
